{"glyphs":{"0":{"ha":824,"x_min":71,"x_max":754,"o":"m 413 -17 q 233 33 310 -17 q 114 184 156 83 q 71 436 71 285 q 114 688 71 588 q 233 838 156 788 q 413 888 310 888 q 592 838 515 888 q 711 688 669 788 q 754 436 754 588 q 711 184 754 285 q 592 33 669 83 q 413 -17 515 -17 m 413 83 q 583 175 525 83 q 642 436 642 267 q 583 697 642 605 q 413 789 525 789 q 242 697 301 789 q 183 436 183 605 q 242 175 183 267 q 413 83 301 83 z "},"1":{"ha":459,"x_min":67,"x_max":318,"o":"m 231 875 l 318 875 l 318 0 l 210 0 l 210 747 q 140 712 176 724 q 67 699 103 700 l 67 804 q 152 827 110 810 q 231 875 193 844 z "},"2":{"ha":805,"x_min":89,"x_max":713,"o":"m 89 0 l 89 129 q 114 256 89 205 q 183 340 138 306 q 289 397 228 373 l 461 465 q 561 535 528 492 q 594 640 594 577 q 548 749 594 707 q 419 792 502 792 q 285 757 338 792 q 225 651 233 722 l 104 651 q 149 780 109 727 q 258 860 189 833 q 418 888 326 888 q 569 855 502 888 q 674 765 635 822 q 713 633 713 708 q 688 516 713 566 q 616 430 663 466 q 507 368 570 394 l 331 297 q 231 235 264 272 q 197 142 197 199 l 197 100 l 704 100 l 704 0 l 89 0 z "},"3":{"ha":820,"x_min":74,"x_max":735,"o":"m 413 -17 q 286 2 347 -17 q 177 56 226 20 q 101 144 129 92 q 74 267 74 197 l 185 267 q 217 166 186 207 q 298 104 247 125 q 413 83 349 83 q 563 131 510 83 q 617 249 617 178 q 594 328 617 294 q 524 383 572 363 q 397 403 476 403 l 299 403 l 299 489 l 365 489 q 525 529 467 489 q 583 640 583 569 q 536 746 583 703 q 401 789 489 789 q 281 761 334 789 q 210 661 228 734 l 99 661 q 151 792 110 742 q 257 865 193 842 q 399 888 321 888 q 553 857 485 888 q 661 773 622 826 q 700 650 700 719 q 661 532 700 581 q 547 457 622 483 q 682 379 630 433 q 735 240 735 325 q 695 107 735 165 q 584 16 656 49 q 413 -17 512 -17 z "},"4":{"ha":776,"x_min":36,"x_max":746,"o":"m 493 885 l 594 885 l 594 304 l 746 304 l 746 213 l 594 213 l 594 0 l 488 0 l 488 213 l 36 213 l 36 296 l 493 885 m 492 714 l 165 296 l 492 296 l 492 714 z "},"5":{"ha":784,"x_min":90,"x_max":706,"o":"m 392 -17 q 241 13 309 -17 q 132 101 173 43 q 90 243 91 159 l 199 243 q 255 124 199 164 q 392 83 310 83 q 539 141 485 83 q 593 282 593 198 q 376 450 593 450 l 143 450 l 181 872 l 664 872 l 664 774 l 268 774 l 290 811 l 261 507 l 247 519 q 323 530 281 527 q 399 533 365 533 q 623 470 540 533 q 706 282 706 407 q 667 130 706 197 q 559 23 629 62 q 392 -17 488 -17 z "},"6":{"ha":795,"x_min":71,"x_max":715,"o":"m 418 -17 q 235 41 313 -17 q 114 198 157 99 q 71 421 71 297 q 115 672 71 567 q 240 832 158 776 q 433 888 321 888 q 570 858 511 888 q 666 776 630 828 q 708 653 701 723 l 590 653 q 543 752 580 715 q 436 789 506 789 q 249 686 317 789 q 181 404 181 583 q 182 345 181 378 q 188 282 183 311 q 230 427 194 374 q 322 503 267 481 q 438 525 376 525 q 580 490 517 525 q 679 394 642 456 q 715 253 715 333 q 678 111 715 172 q 573 17 640 51 q 418 -17 506 -17 m 418 83 q 549 130 497 83 q 601 256 601 176 q 549 383 601 337 q 418 429 497 429 q 325 407 366 429 q 260 345 284 384 q 236 256 236 306 q 288 130 236 176 q 418 83 340 83 z "},"7":{"ha":652,"x_min":33,"x_max":628,"o":"m 82 0 l 500 769 l 33 769 l 33 872 l 628 872 l 628 772 l 226 0 l 82 0 z "},"8":{"ha":853,"x_min":76,"x_max":778,"o":"m 426 -17 q 245 16 324 -17 q 121 106 166 49 q 76 235 76 163 q 111 348 76 301 q 205 420 145 395 q 342 446 265 446 q 381 444 362 446 q 421 436 399 442 l 421 404 q 299 382 351 404 q 218 322 247 359 q 189 243 189 285 q 220 156 189 192 q 305 102 251 120 q 426 83 359 83 q 601 119 539 83 q 664 214 664 156 q 631 292 664 261 q 540 343 598 322 l 300 435 q 211 481 256 451 q 136 553 167 510 q 106 657 106 597 q 144 776 106 724 q 254 858 182 828 q 426 888 326 888 q 591 856 519 888 q 703 770 663 824 q 744 646 744 715 q 717 545 744 592 q 636 471 690 499 q 506 443 583 443 q 470 445 487 443 q 432 454 453 448 l 432 489 q 533 508 488 489 q 605 561 578 527 q 632 640 632 595 q 606 717 632 683 q 534 770 580 751 q 426 789 488 789 q 320 770 367 789 q 247 721 274 752 q 219 653 219 690 q 251 578 219 606 q 339 529 283 550 l 579 438 q 726 352 675 401 q 778 218 778 303 q 736 96 778 149 q 616 13 694 43 q 426 -17 538 -17 z "},"9":{"ha":806,"x_min":92,"x_max":735,"o":"m 394 -17 q 241 19 308 -17 q 136 116 174 54 q 97 258 97 178 l 210 258 q 260 131 212 178 q 392 83 308 83 q 525 131 474 83 q 600 264 576 178 q 624 468 624 351 q 622 518 624 495 q 617 571 621 542 q 574 446 608 496 q 486 372 540 397 q 367 347 433 347 q 227 382 289 347 q 128 479 165 417 q 92 619 92 540 q 129 761 92 701 q 233 855 166 822 q 388 888 299 888 q 526 857 463 888 q 636 769 590 826 q 709 632 683 712 q 735 453 735 552 q 698 203 735 309 q 586 41 662 98 q 394 -17 511 -17 m 388 443 q 481 466 439 443 q 547 528 522 489 q 571 615 571 567 q 518 742 571 696 q 388 789 465 789 q 256 742 308 789 q 204 615 204 696 q 256 489 204 535 q 388 443 308 443 z "},"\r":{"ha":833,"x_min":0,"x_max":0,"o":""}," ":{"ha":330,"x_min":0,"x_max":0,"o":""}," ":{"ha":330,"x_min":0,"x_max":0,"o":""},",":{"ha":290,"x_min":42,"x_max":246,"o":"m 124 -151 l 42 -111 q 109 -67 81 -91 q 144 -7 136 -42 q 93 15 115 -3 q 72 63 72 33 q 94 113 72 92 q 150 133 116 133 q 219 102 193 133 q 246 28 246 71 q 215 -72 246 -23 q 124 -151 184 -121 z "},".":{"ha":248,"x_min":42,"x_max":206,"o":"m 42 65 q 65 121 42 97 q 122 144 88 144 q 181 121 157 144 q 206 65 206 97 q 181 10 206 32 q 122 -12 157 -12 q 65 10 88 -12 q 42 65 42 33 z "},";":{"ha":363,"x_min":79,"x_max":283,"o":"m 161 -151 l 79 -111 q 146 -67 119 -91 q 182 -7 174 -42 q 131 15 152 -3 q 110 63 110 33 q 132 113 110 92 q 188 133 153 133 q 257 102 231 133 q 283 28 283 71 q 252 -72 283 -23 q 161 -151 222 -121 m 114 535 q 137 592 114 568 q 194 615 160 615 q 253 592 229 615 q 278 535 278 568 q 253 481 278 503 q 194 458 229 458 q 137 481 160 458 q 114 535 114 503 z "},":":{"ha":320,"x_min":78,"x_max":242,"o":"m 78 110 q 101 167 78 143 q 158 190 124 190 q 217 167 193 190 q 242 110 242 143 q 217 56 242 78 q 158 33 193 33 q 101 56 124 33 q 78 110 78 78 m 78 535 q 101 592 78 568 q 158 615 124 615 q 217 592 193 615 q 242 535 242 568 q 217 481 242 503 q 158 458 193 458 q 101 481 124 458 q 78 535 78 503 z "},"-":{"ha":483,"x_min":53,"x_max":431,"o":"m 53 357 l 53 451 l 431 451 l 431 357 l 53 357 z "},"–":{"ha":656,"x_min":76,"x_max":581,"o":"m 76 357 l 76 451 l 581 451 l 581 357 l 76 357 z "},"—":{"ha":1006,"x_min":76,"x_max":932,"o":"m 76 357 l 76 451 l 932 451 l 932 357 l 76 357 z "},"!":{"ha":385,"x_min":114,"x_max":278,"o":"m 151 244 l 138 869 l 253 869 l 239 244 l 151 244 m 195 -12 q 137 10 160 -12 q 114 65 114 32 q 137 121 114 98 q 195 144 160 144 q 254 121 230 144 q 278 65 278 98 q 254 10 278 32 q 195 -12 230 -12 z "},"a":{"ha":765,"x_min":83,"x_max":646,"o":"m 551 0 l 538 146 l 538 431 q 499 559 538 520 q 385 599 461 599 q 307 586 342 599 q 251 548 272 574 q 231 481 231 522 l 110 481 q 145 597 110 553 q 243 661 181 641 q 385 681 305 681 q 520 655 461 681 q 613 573 579 629 q 646 428 646 517 l 646 0 l 551 0 m 325 -17 q 190 13 243 -17 q 110 88 136 42 q 83 186 83 135 q 117 296 83 253 q 209 358 151 338 q 340 378 267 378 q 445 367 392 378 q 547 339 497 357 l 547 271 q 453 297 506 288 q 357 307 401 307 q 244 280 290 307 q 199 186 199 252 q 234 103 199 138 q 346 68 269 68 q 443 93 400 68 q 512 157 487 119 q 538 233 538 195 l 564 233 q 535 110 564 167 q 453 18 506 53 q 325 -17 399 -17 z "},"b":{"ha":823,"x_min":140,"x_max":740,"o":"m 444 -17 q 324 18 378 -17 q 239 120 270 53 q 207 283 207 187 l 249 283 q 275 173 249 219 q 344 104 302 128 q 433 81 387 81 q 531 111 487 81 q 602 199 576 142 q 629 335 629 256 q 603 468 629 413 q 532 555 576 524 q 432 585 487 585 q 343 561 385 585 q 275 493 301 538 q 249 382 249 448 l 207 382 q 238 543 207 476 q 324 645 269 610 q 451 681 378 681 q 595 639 530 681 q 701 519 661 597 q 740 335 740 441 q 700 149 740 228 q 592 27 660 70 q 444 -17 525 -17 m 140 0 l 140 947 l 249 947 l 249 156 l 217 0 l 140 0 z "},"c":{"ha":717,"x_min":71,"x_max":640,"o":"m 374 -17 q 225 26 294 -17 q 113 148 156 69 q 71 333 71 226 q 113 521 71 443 q 225 640 156 599 q 374 681 294 681 q 475 664 430 681 q 553 617 519 647 q 608 549 586 587 q 640 469 630 511 l 529 460 q 471 551 512 517 q 372 585 431 585 q 280 557 323 585 q 209 473 236 528 q 182 333 182 417 q 207 200 182 256 q 274 112 231 143 q 372 81 317 81 q 489 118 449 81 q 529 224 529 156 l 640 224 q 608 100 640 154 q 515 15 575 46 q 374 -17 455 -17 z "},"d":{"ha":823,"x_min":82,"x_max":682,"o":"m 378 -17 q 230 27 297 -17 q 122 149 163 70 q 82 335 82 228 q 122 519 82 441 q 227 639 161 597 q 371 681 292 681 q 499 645 444 681 q 585 543 554 610 q 615 382 615 476 l 574 382 q 548 493 574 448 q 480 561 522 538 q 390 585 438 585 q 291 555 336 585 q 220 468 247 524 q 193 335 193 413 q 220 199 193 256 q 291 111 247 142 q 390 81 336 81 q 477 104 435 81 q 547 173 519 128 q 574 283 574 219 l 615 283 q 584 120 615 187 q 498 18 552 53 q 378 -17 444 -17 m 592 0 l 574 156 l 574 947 l 682 947 l 682 0 l 592 0 z "},"e":{"ha":713,"x_min":71,"x_max":644,"o":"m 371 -17 q 217 27 285 -17 q 110 150 149 72 q 71 331 71 228 q 110 518 71 440 q 216 639 149 597 q 371 681 284 681 q 500 650 447 681 q 586 567 553 619 q 632 450 619 515 q 639 314 644 384 l 158 314 l 158 381 l 567 381 l 535 360 q 531 442 538 401 q 506 517 524 483 q 456 572 488 551 q 372 593 423 593 q 265 560 308 593 q 201 475 222 528 q 179 360 179 422 l 179 315 q 200 191 179 246 q 264 104 222 136 q 371 72 306 72 q 477 103 435 72 q 528 196 519 135 l 640 196 q 593 82 630 130 q 499 9 556 35 q 371 -17 442 -17 z "},"f":{"ha":476,"x_min":68,"x_max":482,"o":"m 176 0 l 176 767 q 202 875 176 833 q 270 937 227 917 q 365 957 313 957 q 423 953 394 957 q 482 940 453 949 l 461 854 q 420 867 440 863 q 381 871 399 871 q 336 863 358 871 q 299 831 314 854 q 285 765 285 808 l 285 0 l 176 0 m 68 589 l 68 664 l 422 664 l 422 589 l 68 589 z "},"g":{"ha":784,"x_min":40,"x_max":763,"o":"m 375 -342 q 198 -313 273 -342 q 82 -236 123 -284 q 40 -129 40 -187 q 97 -11 40 -52 q 243 29 153 29 l 303 -8 q 187 -40 228 -8 q 146 -125 146 -71 q 204 -217 146 -179 q 375 -254 263 -254 q 521 -230 458 -254 q 619 -168 584 -206 q 654 -85 654 -129 q 631 -31 654 -53 q 561 -8 608 -8 l 303 -8 q 186 12 235 -8 q 111 66 138 33 q 85 139 85 99 q 108 210 85 181 q 170 254 132 239 q 251 269 208 269 l 272 229 q 230 220 251 229 q 195 192 209 210 q 181 146 181 174 q 207 92 181 114 q 303 71 233 71 l 561 71 q 709 31 655 71 q 763 -79 763 -8 q 716 -205 763 -144 q 583 -303 669 -265 q 375 -342 496 -342 m 394 194 q 257 225 318 194 q 159 310 195 256 q 124 438 124 365 q 159 565 124 510 q 257 650 195 620 q 394 681 318 681 q 530 650 469 681 q 626 565 590 620 q 663 438 663 510 q 626 310 663 365 q 530 225 590 256 q 394 194 469 194 m 394 272 q 513 319 471 272 q 556 438 556 367 q 513 556 556 510 q 394 601 471 601 q 275 556 319 601 q 232 438 232 510 q 275 319 232 367 q 394 272 319 272 m 613 575 l 561 596 q 584 698 561 654 q 649 767 607 742 q 750 792 692 792 l 742 685 q 646 658 679 685 q 613 575 613 631 z "},"h":{"ha":838,"x_min":140,"x_max":719,"o":"m 613 0 l 613 390 q 567 535 613 485 q 443 585 522 585 q 340 552 383 585 q 272 459 296 519 q 249 314 249 398 l 207 314 q 238 512 207 430 q 327 637 268 594 q 469 681 385 681 q 604 645 548 681 q 690 545 660 610 q 719 390 719 480 l 719 0 l 613 0 m 140 0 l 140 947 l 249 947 l 249 0 l 140 0 z "},"i":{"ha":414,"x_min":129,"x_max":274,"o":"m 201 821 q 149 840 168 821 q 129 890 129 859 q 149 939 129 921 q 201 957 168 957 q 254 939 235 957 q 274 890 274 921 q 254 840 274 859 q 201 821 235 821 m 147 0 l 147 665 l 256 665 l 256 0 l 147 0 z "},"j":{"ha":435,"x_min":-119,"x_max":294,"o":"m 222 821 q 170 840 189 821 q 151 890 151 859 q 170 939 151 921 q 222 957 189 957 q 275 939 256 957 q 294 890 294 921 q 275 840 294 859 q 222 821 256 821 m 67 -342 q -26 -329 19 -342 q -119 -290 -72 -316 l -114 -196 q -34 -233 -73 -219 q 47 -247 6 -247 q 138 -210 106 -247 q 169 -93 169 -172 l 169 667 l 276 667 l 276 -94 q 218 -284 276 -226 q 67 -342 160 -342 z "},"k":{"ha":783,"x_min":140,"x_max":738,"o":"m 140 0 l 140 947 l 249 947 l 249 0 l 140 0 m 232 381 l 571 664 l 722 664 l 232 265 l 232 381 m 604 0 l 289 419 l 399 439 l 738 0 l 604 0 z "},"l":{"ha":389,"x_min":140,"x_max":249,"o":"m 140 0 l 140 947 l 249 947 l 249 0 l 140 0 z "},"m":{"ha":1299,"x_min":140,"x_max":1182,"o":"m 1074 0 l 1074 390 q 1028 535 1074 485 q 906 585 983 585 q 767 515 815 585 q 719 322 719 445 l 669 322 q 687 479 669 412 q 739 591 705 547 q 822 658 773 636 q 932 681 870 681 q 1066 645 1010 681 q 1152 545 1122 610 q 1182 390 1182 480 l 1182 0 l 1074 0 m 140 0 l 140 664 l 233 664 l 246 531 q 334 642 277 603 q 469 681 390 681 q 604 645 548 681 q 690 545 660 610 q 719 390 719 480 l 719 0 l 613 0 l 613 390 q 567 535 613 485 q 443 585 522 585 q 340 552 383 585 q 272 459 296 519 q 249 314 249 398 l 249 0 l 140 0 z "},"n":{"ha":838,"x_min":140,"x_max":719,"o":"m 613 0 l 613 390 q 567 535 613 485 q 443 585 522 585 q 340 552 383 585 q 272 459 296 519 q 249 314 249 398 l 207 314 q 238 512 207 430 q 327 637 268 594 q 469 681 385 681 q 604 645 548 681 q 690 545 660 610 q 719 390 719 480 l 719 0 l 613 0 m 140 0 l 140 664 l 233 664 l 249 511 l 249 0 l 140 0 z "},"o":{"ha":759,"x_min":71,"x_max":689,"o":"m 381 -17 q 221 23 291 -17 q 111 140 151 63 q 71 332 71 218 q 111 524 71 447 q 221 641 151 601 q 381 681 291 681 q 539 641 469 681 q 649 524 609 601 q 689 332 689 447 q 649 140 689 218 q 539 23 609 63 q 381 -17 469 -17 m 378 78 q 488 109 442 78 q 556 197 533 140 q 579 332 579 253 q 530 519 579 451 q 383 588 481 588 q 273 557 318 588 q 205 468 228 526 q 182 332 182 411 q 232 146 182 215 q 378 78 281 78 z "},"p":{"ha":812,"x_min":140,"x_max":740,"o":"m 442 -17 q 315 17 369 -17 q 232 114 261 50 q 203 271 203 178 l 249 271 q 274 167 249 209 q 341 102 300 124 q 429 81 383 81 q 525 109 479 81 q 600 194 571 138 q 629 333 629 251 q 602 469 629 413 q 531 555 576 525 q 431 585 485 585 q 342 562 383 585 q 274 495 300 539 q 249 386 249 451 l 203 386 q 235 548 203 483 q 322 647 267 614 q 444 681 376 681 q 590 639 522 681 q 699 519 657 597 q 740 333 740 442 q 698 145 740 224 q 588 25 656 67 q 442 -17 520 -17 m 140 -326 l 140 664 l 231 664 l 249 508 l 249 -326 l 140 -326 z "},"q":{"ha":812,"x_min":71,"x_max":771,"o":"m 371 -17 q 223 25 292 -17 q 113 145 155 67 q 71 333 71 224 q 113 519 71 442 q 222 639 154 597 q 367 681 290 681 q 490 647 435 681 q 577 548 545 614 q 610 386 610 483 l 563 386 q 537 495 563 451 q 469 562 511 539 q 381 585 428 585 q 281 555 326 585 q 209 469 236 525 q 182 333 182 413 q 211 194 182 251 q 285 109 240 138 q 382 81 331 81 q 469 102 428 81 q 536 166 510 124 q 563 271 563 208 l 594 271 q 569 120 594 185 q 493 19 543 56 q 371 -17 443 -17 m 735 -342 q 601 -260 640 -315 q 563 -106 563 -206 l 563 508 l 596 664 l 669 664 l 669 -112 q 678 -187 669 -160 q 710 -230 688 -214 q 771 -258 732 -245 l 735 -342 z "},"r":{"ha":502,"x_min":140,"x_max":503,"o":"m 140 0 l 140 665 l 249 665 l 249 0 l 140 0 m 215 300 q 240 510 215 426 q 311 635 264 594 q 425 676 358 676 q 466 673 447 676 q 503 664 484 670 l 496 557 q 453 568 476 563 q 413 572 431 572 q 317 539 353 572 q 265 444 281 505 q 249 300 249 383 l 215 300 z "},"s":{"ha":730,"x_min":85,"x_max":646,"o":"m 379 -17 q 218 11 283 -17 q 120 86 153 38 q 85 197 87 135 l 189 197 q 240 102 192 134 q 369 71 288 71 q 449 85 413 71 q 506 123 485 99 q 528 178 528 147 q 499 239 528 217 q 408 278 471 261 l 279 319 q 150 392 195 346 q 106 503 106 438 q 176 632 106 583 q 363 681 247 681 q 552 631 485 681 q 622 506 619 581 l 515 506 q 471 572 509 549 q 363 594 433 594 q 257 564 295 594 q 219 497 219 534 q 338 396 219 428 l 469 351 q 600 284 555 326 q 646 178 646 242 q 613 83 646 128 q 521 11 581 39 q 379 -17 461 -17 z "},"t":{"ha":522,"x_min":47,"x_max":488,"o":"m 344 -17 q 247 4 290 -17 q 179 67 204 25 q 154 171 154 108 l 154 849 l 261 849 l 261 174 q 357 71 261 71 q 412 77 385 71 q 472 96 439 83 l 488 18 q 417 -7 452 3 q 344 -17 382 -17 m 47 589 l 47 664 l 471 664 l 471 589 l 47 589 z "},"u":{"ha":841,"x_min":121,"x_max":700,"o":"m 592 665 l 700 665 l 700 0 l 592 0 l 592 665 m 121 665 l 229 665 l 229 251 q 270 125 229 168 q 386 82 310 82 q 495 115 449 82 q 566 207 541 149 q 592 342 592 266 l 632 342 q 600 151 632 230 q 509 30 567 72 q 371 -12 450 -12 q 240 15 296 -12 q 152 100 183 43 q 121 243 121 156 l 121 665 z "},"v":{"ha":698,"x_min":25,"x_max":674,"o":"m 25 664 l 149 664 l 357 93 l 342 93 l 550 664 l 674 664 l 408 0 l 290 0 l 25 664 z "},"w":{"ha":1006,"x_min":25,"x_max":978,"o":"m 25 664 l 138 664 l 307 110 l 293 110 l 458 632 l 549 632 l 713 108 l 700 108 l 869 664 l 978 664 l 760 0 l 654 0 l 493 490 l 510 490 l 350 0 l 244 0 l 25 664 z "},"x":{"ha":710,"x_min":36,"x_max":674,"o":"m 36 0 l 288 332 l 36 665 l 168 665 l 358 414 l 542 665 l 674 665 l 421 332 l 672 0 l 540 0 l 350 253 l 168 0 l 36 0 z "},"y":{"ha":647,"x_min":-8,"x_max":622,"o":"m 31 664 l 151 664 l 368 94 l 343 94 l 511 664 l 622 664 l 372 -133 q 289 -287 341 -233 q 156 -342 237 -342 q 73 -329 112 -342 q -8 -293 33 -317 l -8 -193 q 63 -235 28 -222 q 135 -247 97 -247 q 205 -221 176 -247 q 251 -153 233 -194 q 283 -67 270 -112 l 303 0 l 31 664 z "},"z":{"ha":659,"x_min":74,"x_max":588,"o":"m 74 0 l 74 88 l 465 576 l 74 576 l 74 664 l 588 664 l 588 576 l 201 88 l 588 88 l 588 0 l 74 0 z "},"A":{"ha":798,"x_min":36,"x_max":761,"o":"m 36 0 l 336 872 l 468 872 l 761 0 l 647 0 l 574 224 l 226 224 l 150 0 l 36 0 m 254 308 l 546 308 l 400 740 l 254 308 z "},"B":{"ha":863,"x_min":140,"x_max":767,"o":"m 140 0 l 140 872 l 467 872 q 626 841 563 872 q 720 757 689 809 q 751 644 751 706 q 710 514 751 569 q 586 439 669 459 q 680 401 640 431 q 744 329 721 372 q 767 238 767 286 q 752 151 767 193 q 702 74 737 108 q 610 20 667 40 q 467 0 552 0 l 140 0 m 249 94 l 465 94 q 608 136 565 94 q 651 243 651 178 q 604 349 651 309 q 465 389 557 389 l 249 389 l 249 94 m 249 779 l 249 482 l 463 482 q 592 522 544 482 q 640 635 640 562 q 593 741 640 703 q 464 779 547 779 l 249 779 z "},"C":{"ha":851,"x_min":71,"x_max":786,"o":"m 443 -17 q 244 41 328 -17 q 116 202 161 99 q 71 442 71 306 q 120 686 71 587 q 253 836 169 785 q 443 888 338 888 q 668 818 583 888 q 785 636 753 748 l 668 613 q 582 742 641 694 q 443 790 522 790 q 316 751 374 790 q 223 634 258 712 q 188 442 188 556 q 216 256 188 338 q 300 128 244 175 q 443 82 357 82 q 607 138 547 82 q 668 283 668 193 l 786 283 q 743 123 786 190 q 623 19 700 56 q 443 -17 545 -17 z "},"D":{"ha":917,"x_min":140,"x_max":829,"o":"m 140 872 l 396 872 q 625 818 528 872 q 776 667 722 765 q 829 436 829 569 q 776 207 829 305 q 625 55 722 109 q 396 0 528 0 l 140 0 l 140 872 m 249 776 l 249 94 l 396 94 q 566 139 494 94 q 675 261 637 183 q 714 436 714 338 q 675 611 714 535 q 566 732 637 688 q 396 776 494 776 l 249 776 z "},"E":{"ha":781,"x_min":139,"x_max":676,"o":"m 139 0 l 139 872 l 676 872 l 676 779 l 247 779 l 247 486 l 651 486 l 651 393 l 247 393 l 247 94 l 676 94 l 676 0 l 139 0 z "},"F":{"ha":728,"x_min":140,"x_max":671,"o":"m 140 0 l 140 872 l 671 872 l 671 779 l 249 779 l 249 489 l 642 489 l 642 396 l 249 396 l 249 0 l 140 0 z "},"G":{"ha":894,"x_min":71,"x_max":792,"o":"m 447 -17 q 258 38 343 -17 q 122 191 172 92 q 71 426 71 290 q 103 626 71 540 q 193 770 136 712 q 324 858 250 828 q 481 888 398 888 q 660 845 583 888 q 792 713 737 803 l 689 676 q 589 761 642 734 q 476 789 536 789 q 332 745 398 789 q 226 620 266 701 q 186 426 186 539 q 219 249 186 326 q 311 127 251 172 q 454 83 372 83 q 568 113 517 83 q 647 200 618 142 q 676 349 676 259 l 710 349 q 683 156 710 238 q 599 28 657 74 q 447 -17 541 -17 m 696 0 l 676 206 l 676 351 l 457 358 l 457 432 l 782 432 l 782 0 l 696 0 z "},"H":{"ha":928,"x_min":140,"x_max":788,"o":"m 140 872 l 249 872 l 249 488 l 681 488 l 681 872 l 788 872 l 788 0 l 681 0 l 681 394 l 249 394 l 249 0 l 140 0 l 140 872 z "},"I":{"ha":389,"x_min":140,"x_max":249,"o":"m 140 0 l 140 872 l 249 872 l 249 0 l 140 0 z "},"J":{"ha":560,"x_min":11,"x_max":449,"o":"m 11 43 l 11 156 q 110 106 60 124 q 206 89 159 89 q 309 132 278 89 q 340 253 340 175 l 340 872 l 449 872 l 449 253 q 420 98 449 158 q 338 11 391 39 q 213 -17 285 -17 q 107 0 156 -17 q 11 43 57 17 z "},"K":{"ha":844,"x_min":140,"x_max":815,"o":"m 642 872 l 792 872 l 235 299 l 235 451 l 642 872 m 392 504 l 815 0 l 674 0 l 314 433 l 392 504 m 140 872 l 250 872 l 250 0 l 140 0 l 140 872 z "},"L":{"ha":649,"x_min":140,"x_max":638,"o":"m 249 872 l 249 94 l 638 94 l 638 0 l 140 0 l 140 872 l 249 872 z "},"M":{"ha":1176,"x_min":140,"x_max":1036,"o":"m 140 872 l 296 872 l 596 269 l 585 269 l 885 872 l 1036 872 l 1036 0 l 926 0 l 926 760 l 946 760 l 626 110 l 554 110 l 236 756 l 249 756 l 249 0 l 140 0 l 140 872 z "},"N":{"ha":950,"x_min":139,"x_max":810,"o":"m 139 872 l 268 872 l 711 154 l 701 154 l 701 872 l 810 872 l 810 0 l 689 0 l 231 742 l 247 742 l 247 0 l 139 0 l 139 872 z "},"O":{"ha":897,"x_min":71,"x_max":826,"o":"m 449 -17 q 255 33 340 -17 q 120 184 169 83 q 71 435 71 284 q 120 688 71 588 q 255 838 169 788 q 449 888 340 888 q 642 838 557 888 q 777 687 728 788 q 826 435 826 586 q 777 182 826 283 q 642 33 728 82 q 449 -17 557 -17 m 449 83 q 643 173 572 83 q 714 436 714 263 q 643 698 714 606 q 449 790 572 790 q 255 698 327 790 q 183 435 183 606 q 255 173 183 262 q 449 83 327 83 z "},"P":{"ha":769,"x_min":138,"x_max":714,"o":"m 138 0 l 138 872 l 418 872 q 638 800 562 872 q 714 603 714 727 q 638 408 714 480 q 418 336 562 336 l 247 336 l 247 0 l 138 0 m 247 431 l 418 431 q 556 477 509 431 q 603 603 603 524 q 556 731 603 683 q 418 779 509 779 l 247 779 l 247 431 z "},"Q":{"ha":905,"x_min":71,"x_max":826,"o":"m 449 -17 q 255 33 340 -17 q 120 184 169 83 q 71 435 71 284 q 120 688 71 588 q 255 838 169 788 q 449 888 340 888 q 642 838 557 888 q 777 687 728 788 q 826 435 826 586 q 777 182 826 283 q 642 33 728 82 q 449 -17 557 -17 m 710 -232 q 599 -200 649 -232 q 508 -108 550 -169 l 418 21 l 515 51 l 596 -64 q 643 -108 619 -95 q 692 -122 668 -121 q 760 -112 728 -122 q 826 -86 791 -103 l 826 -206 q 767 -225 795 -219 q 710 -232 738 -232 m 449 83 q 643 173 572 83 q 714 436 714 263 q 643 698 714 606 q 449 790 572 790 q 255 698 327 790 q 183 435 183 606 q 255 173 183 262 q 449 83 327 83 z "},"R":{"ha":851,"x_min":140,"x_max":769,"o":"m 140 0 l 140 872 l 444 872 q 670 801 594 872 q 747 614 747 730 q 670 428 747 499 q 444 357 594 357 l 249 357 l 249 0 l 140 0 m 629 0 l 379 396 l 497 396 l 769 0 l 629 0 m 249 433 l 436 433 q 585 482 534 433 q 636 607 636 530 q 587 733 636 686 q 444 779 538 779 l 249 779 l 249 433 z "},"S":{"ha":840,"x_min":96,"x_max":743,"o":"m 419 -17 q 259 15 332 -17 q 142 108 186 47 q 96 261 97 170 l 201 261 q 231 161 201 200 q 310 102 261 122 q 418 83 360 83 q 528 103 481 83 q 600 157 574 124 q 625 229 625 190 q 591 319 625 285 q 490 375 557 353 l 336 429 q 172 518 228 468 q 117 658 117 568 q 195 824 117 760 q 417 888 273 888 q 625 826 550 888 q 711 661 700 765 l 604 661 q 548 755 594 722 q 417 789 501 789 q 283 751 331 789 q 235 654 235 713 q 265 578 235 606 q 360 528 295 550 l 540 465 q 689 378 634 434 q 743 232 743 322 q 706 106 743 163 q 597 17 669 50 q 419 -17 524 -17 z "},"T":{"ha":695,"x_min":8,"x_max":688,"o":"m 8 779 l 8 872 l 688 872 l 688 779 l 377 779 l 401 804 l 401 0 l 293 0 l 293 804 l 317 779 l 8 779 z "},"U":{"ha":907,"x_min":121,"x_max":783,"o":"m 121 872 l 229 872 l 229 315 q 291 138 229 192 q 453 83 353 83 q 614 138 552 83 q 675 315 675 192 l 675 872 l 783 872 l 783 315 q 743 132 783 206 q 628 20 702 58 q 453 -17 553 -17 q 277 20 352 -17 q 162 132 203 58 q 121 315 121 206 l 121 872 z "},"V":{"ha":781,"x_min":25,"x_max":757,"o":"m 383 115 l 642 872 l 757 872 l 446 0 l 333 0 l 25 872 l 140 872 l 397 115 l 383 115 z "},"W":{"ha":1242,"x_min":19,"x_max":1221,"o":"m 19 872 l 142 872 l 368 96 l 336 96 l 568 782 l 642 782 l 871 101 l 840 101 l 1100 872 l 1221 872 l 913 0 l 799 0 l 597 592 l 618 592 l 410 0 l 296 0 l 19 872 z "},"X":{"ha":891,"x_min":65,"x_max":821,"o":"m 68 0 l 375 433 l 65 872 l 196 872 l 447 517 l 678 872 l 810 872 l 507 435 l 821 0 l 688 0 l 435 349 l 199 0 l 68 0 z "},"Y":{"ha":762,"x_min":13,"x_max":749,"o":"m 13 872 l 143 872 l 393 449 l 365 449 l 619 872 l 749 872 l 433 358 l 433 0 l 324 0 l 324 358 l 13 872 z "},"Z":{"ha":822,"x_min":101,"x_max":742,"o":"m 101 0 l 101 97 l 636 810 l 636 769 l 101 774 l 101 872 l 742 872 l 742 775 l 224 85 l 215 103 l 742 99 l 742 0 l 101 0 z "},"'":{"ha":188,"x_min":39,"x_max":150,"o":"m 39 940 l 150 940 l 135 635 l 53 635 l 39 940 z "},"ʼ":{"ha":254,"x_min":50,"x_max":254,"o":"m 132 583 l 50 624 q 117 668 90 644 q 153 728 144 692 q 102 749 123 731 q 81 797 81 767 q 102 847 81 826 q 158 868 124 868 q 228 837 201 868 q 254 763 254 806 q 223 663 254 712 q 132 583 192 614 z "},"‘":{"ha":295,"x_min":50,"x_max":254,"o":"m 146 582 q 97 597 118 582 q 63 636 75 611 q 50 692 50 661 q 83 790 50 742 q 176 869 116 838 l 254 828 q 187 783 215 808 q 150 722 160 757 q 203 702 183 719 q 224 656 224 685 q 202 604 224 626 q 146 582 181 582 z "},"’":{"ha":295,"x_min":21,"x_max":224,"o":"m 99 582 l 21 624 q 88 669 60 644 q 124 728 115 694 q 71 749 92 731 q 50 797 50 767 q 73 849 50 828 q 131 869 96 869 q 181 855 160 869 q 213 815 201 840 q 224 760 224 790 q 191 662 224 710 q 99 582 158 615 z "},"(":{"ha":494,"x_min":101,"x_max":454,"o":"m 376 1010 l 454 956 q 322 789 375 875 q 242 611 269 702 q 215 426 215 520 q 275 152 215 286 q 454 -101 335 19 l 376 -158 q 171 117 241 -34 q 101 426 101 267 q 171 737 101 587 q 376 1010 241 887 z "},")":{"ha":494,"x_min":39,"x_max":393,"o":"m 118 -158 l 39 -101 q 218 152 158 19 q 279 426 279 286 q 252 611 279 520 q 172 789 225 702 q 39 956 118 875 l 118 1010 q 323 737 253 887 q 393 426 393 587 q 362 217 393 320 q 269 19 331 115 q 118 -158 208 -76 z "},"+":{"ha":729,"x_min":24,"x_max":706,"o":"m 311 703 l 418 703 l 418 408 l 706 408 l 706 315 l 418 315 l 418 21 l 311 21 l 311 315 l 24 315 l 24 408 l 311 408 l 311 703 z "},"−":{"ha":729,"x_min":122,"x_max":607,"o":"m 122 314 l 122 408 l 607 408 l 607 314 l 122 314 z "},"=":{"ha":729,"x_min":136,"x_max":593,"o":"m 136 428 l 136 522 l 593 522 l 593 428 l 136 428 m 136 163 l 136 256 l 593 256 l 593 163 l 136 163 z "},"$":{"ha":876,"x_min":96,"x_max":781,"o":"m 443 -17 q 310 1 373 -17 q 199 53 247 19 q 123 140 151 88 q 96 261 96 192 l 201 261 q 233 160 201 199 q 319 102 264 121 q 447 83 375 83 q 564 104 517 83 q 635 159 611 125 q 658 232 658 193 q 625 320 658 284 q 531 375 592 356 l 442 406 l 442 503 l 578 458 q 727 373 673 427 q 781 229 781 319 q 744 112 781 168 q 632 19 707 56 q 443 -17 557 -17 m 396 -126 l 396 989 l 481 989 l 481 -126 l 396 -126 m 422 406 l 351 429 q 177 517 237 467 q 118 658 118 568 q 200 824 118 760 q 436 888 281 888 q 654 825 577 888 q 747 661 731 763 l 639 661 q 576 757 628 722 q 435 793 524 793 q 286 754 337 793 q 235 654 235 715 q 263 578 235 606 q 354 529 292 549 l 422 504 l 422 406 z "},"?":{"ha":692,"x_min":42,"x_max":628,"o":"m 246 222 l 246 285 q 259 384 246 345 q 301 451 272 423 q 383 508 331 480 q 458 555 430 533 q 498 601 485 576 q 510 663 510 626 q 466 753 510 717 q 344 789 422 789 q 214 755 259 789 q 157 661 169 722 l 42 661 q 127 825 51 763 q 342 888 202 888 q 495 857 431 888 q 593 774 559 826 q 628 660 628 722 q 592 540 628 588 q 475 449 556 492 q 402 401 428 423 q 364 351 375 379 q 353 278 353 323 l 353 222 l 246 222 m 301 -17 q 244 6 267 -17 q 221 60 221 28 q 243 117 221 93 q 301 140 266 140 q 360 117 335 140 q 385 61 385 94 q 360 6 385 29 q 301 -17 336 -17 z "},"£":{"ha":784,"x_min":28,"x_max":733,"o":"m 67 63 l 67 94 q 144 125 120 94 q 168 219 168 156 l 168 600 q 197 755 168 690 q 282 853 225 819 q 424 888 339 888 q 583 835 521 888 q 663 679 646 783 l 556 679 q 510 762 547 735 q 424 789 473 789 q 316 743 355 789 q 276 600 276 698 l 276 225 q 233 101 276 140 q 67 63 189 63 m 28 0 l 28 94 l 479 94 q 577 123 546 94 q 618 213 609 152 l 733 213 q 671 57 727 115 q 479 0 615 0 l 28 0 m 42 371 l 42 447 l 528 447 l 528 371 l 42 371 z "},"`":{"ha":450,"x_min":71,"x_max":380,"o":"m 326 781 l 71 1007 l 147 1069 l 380 825 l 326 781 z "},"´":{"ha":450,"x_min":71,"x_max":380,"o":"m 125 781 l 71 825 l 304 1069 l 380 1007 l 125 781 z "},"à":{"ha":765,"x_min":83,"x_max":646,"o":"m 551 0 l 538 146 l 538 431 q 499 559 538 520 q 385 599 461 599 q 307 586 342 599 q 251 548 272 574 q 231 481 231 522 l 110 481 q 145 597 110 553 q 243 661 181 641 q 385 681 305 681 q 520 655 461 681 q 613 573 579 629 q 646 428 646 517 l 646 0 l 551 0 m 325 -17 q 190 13 243 -17 q 110 88 136 42 q 83 186 83 135 q 117 296 83 253 q 209 358 151 338 q 340 378 267 378 q 445 367 392 378 q 547 339 497 357 l 547 271 q 453 297 506 288 q 357 307 401 307 q 244 280 290 307 q 199 186 199 252 q 234 103 199 138 q 346 68 269 68 q 443 93 400 68 q 512 157 487 119 q 538 233 538 195 l 564 233 q 535 110 564 167 q 453 18 506 53 q 325 -17 399 -17 m 485 781 l 230 1007 l 306 1069 l 539 825 l 485 781 z "},"è":{"ha":713,"x_min":71,"x_max":644,"o":"m 371 -17 q 217 27 285 -17 q 110 150 149 72 q 71 331 71 228 q 110 518 71 440 q 216 639 149 597 q 371 681 284 681 q 500 650 447 681 q 586 567 553 619 q 632 450 619 515 q 639 314 644 384 l 158 314 l 158 381 l 567 381 l 535 360 q 531 442 538 401 q 506 517 524 483 q 456 572 488 551 q 372 593 423 593 q 265 560 308 593 q 201 475 222 528 q 179 360 179 422 l 179 315 q 200 191 179 246 q 264 104 222 136 q 371 72 306 72 q 477 103 435 72 q 528 196 519 135 l 640 196 q 593 82 630 130 q 499 9 556 35 q 371 -17 442 -17 m 460 781 l 205 1007 l 281 1069 l 514 825 l 460 781 z "},"ò":{"ha":759,"x_min":71,"x_max":689,"o":"m 381 -17 q 221 23 291 -17 q 111 140 151 63 q 71 332 71 218 q 111 524 71 447 q 221 641 151 601 q 381 681 291 681 q 539 641 469 681 q 649 524 609 601 q 689 332 689 447 q 649 140 689 218 q 539 23 609 63 q 381 -17 469 -17 m 378 78 q 488 109 442 78 q 556 197 533 140 q 579 332 579 253 q 530 519 579 451 q 383 588 481 588 q 273 557 318 588 q 205 468 228 526 q 182 332 182 411 q 232 146 182 215 q 378 78 281 78 m 483 781 l 228 1007 l 303 1069 l 537 825 l 483 781 z "},"À":{"ha":798,"x_min":36,"x_max":761,"o":"m 36 0 l 336 872 l 468 872 l 761 0 l 647 0 l 574 224 l 226 224 l 150 0 l 36 0 m 254 308 l 546 308 l 400 740 l 254 308 m 506 990 l 251 1215 l 327 1277 l 560 1033 l 506 990 z "},"È":{"ha":781,"x_min":139,"x_max":676,"o":"m 139 0 l 139 872 l 676 872 l 676 779 l 247 779 l 247 486 l 651 486 l 651 393 l 247 393 l 247 94 l 676 94 l 676 0 l 139 0 m 493 990 l 238 1215 l 314 1277 l 547 1033 l 493 990 z "},"ù":{"ha":841,"x_min":121,"x_max":700,"o":"m 592 665 l 700 665 l 700 0 l 592 0 l 592 665 m 121 665 l 229 665 l 229 251 q 270 125 229 168 q 386 82 310 82 q 495 115 449 82 q 566 207 541 149 q 592 342 592 266 l 632 342 q 600 151 632 230 q 509 30 567 72 q 371 -12 450 -12 q 240 15 296 -12 q 152 100 183 43 q 121 243 121 156 l 121 665 m 536 781 l 281 1007 l 357 1069 l 590 825 l 536 781 z "},"á":{"ha":765,"x_min":83,"x_max":646,"o":"m 551 0 l 538 146 l 538 431 q 499 559 538 520 q 385 599 461 599 q 307 586 342 599 q 251 548 272 574 q 231 481 231 522 l 110 481 q 145 597 110 553 q 243 661 181 641 q 385 681 305 681 q 520 655 461 681 q 613 573 579 629 q 646 428 646 517 l 646 0 l 551 0 m 325 -17 q 190 13 243 -17 q 110 88 136 42 q 83 186 83 135 q 117 296 83 253 q 209 358 151 338 q 340 378 267 378 q 445 367 392 378 q 547 339 497 357 l 547 271 q 453 297 506 288 q 357 307 401 307 q 244 280 290 307 q 199 186 199 252 q 234 103 199 138 q 346 68 269 68 q 443 93 400 68 q 512 157 487 119 q 538 233 538 195 l 564 233 q 535 110 564 167 q 453 18 506 53 q 325 -17 399 -17 m 341 777 l 287 821 l 520 1065 l 596 1003 l 341 777 z "},"é":{"ha":713,"x_min":71,"x_max":644,"o":"m 371 -17 q 217 27 285 -17 q 110 150 149 72 q 71 331 71 228 q 110 518 71 440 q 216 639 149 597 q 371 681 284 681 q 500 650 447 681 q 586 567 553 619 q 632 450 619 515 q 639 314 644 384 l 158 314 l 158 381 l 567 381 l 535 360 q 531 442 538 401 q 506 517 524 483 q 456 572 488 551 q 372 593 423 593 q 265 560 308 593 q 201 475 222 528 q 179 360 179 422 l 179 315 q 200 191 179 246 q 264 104 222 136 q 371 72 306 72 q 477 103 435 72 q 528 196 519 135 l 640 196 q 593 82 630 130 q 499 9 556 35 q 371 -17 442 -17 m 316 777 l 262 821 l 495 1065 l 571 1003 l 316 777 z "},"ó":{"ha":759,"x_min":71,"x_max":689,"o":"m 381 -17 q 221 23 291 -17 q 111 140 151 63 q 71 332 71 218 q 111 524 71 447 q 221 641 151 601 q 381 681 291 681 q 539 641 469 681 q 649 524 609 601 q 689 332 689 447 q 649 140 689 218 q 539 23 609 63 q 381 -17 469 -17 m 378 78 q 488 109 442 78 q 556 197 533 140 q 579 332 579 253 q 530 519 579 451 q 383 588 481 588 q 273 557 318 588 q 205 468 228 526 q 182 332 182 411 q 232 146 182 215 q 378 78 281 78 m 339 777 l 285 821 l 518 1065 l 594 1003 l 339 777 z "},"ú":{"ha":841,"x_min":121,"x_max":700,"o":"m 592 665 l 700 665 l 700 0 l 592 0 l 592 665 m 121 665 l 229 665 l 229 251 q 270 125 229 168 q 386 82 310 82 q 495 115 449 82 q 566 207 541 149 q 592 342 592 266 l 632 342 q 600 151 632 230 q 509 30 567 72 q 371 -12 450 -12 q 240 15 296 -12 q 152 100 183 43 q 121 243 121 156 l 121 665 m 392 777 l 338 821 l 572 1065 l 647 1003 l 392 777 z "},"Á":{"ha":798,"x_min":36,"x_max":761,"o":"m 36 0 l 336 872 l 468 872 l 761 0 l 647 0 l 574 224 l 226 224 l 150 0 l 36 0 m 254 308 l 546 308 l 400 740 l 254 308 m 363 985 l 308 1029 l 542 1273 l 617 1211 l 363 985 z "},"É":{"ha":781,"x_min":139,"x_max":676,"o":"m 139 0 l 139 872 l 676 872 l 676 779 l 247 779 l 247 486 l 651 486 l 651 393 l 247 393 l 247 94 l 676 94 l 676 0 l 139 0 m 349 985 l 295 1029 l 528 1273 l 604 1211 l 349 985 z "},"Ì":{"ha":389,"x_min":42,"x_max":351,"o":"m 140 0 l 140 872 l 249 872 l 249 0 l 140 0 m 297 990 l 42 1215 l 118 1277 l 351 1033 l 297 990 z "},"Í":{"ha":389,"x_min":99,"x_max":408,"o":"m 140 0 l 140 872 l 249 872 l 249 0 l 140 0 m 153 985 l 99 1029 l 333 1273 l 408 1211 l 153 985 z "},"Ò":{"ha":897,"x_min":71,"x_max":826,"o":"m 449 -17 q 255 33 340 -17 q 120 184 169 83 q 71 435 71 284 q 120 688 71 588 q 255 838 169 788 q 449 888 340 888 q 642 838 557 888 q 777 687 728 788 q 826 435 826 586 q 777 182 826 283 q 642 33 728 82 q 449 -17 557 -17 m 449 83 q 643 173 572 83 q 714 436 714 263 q 643 698 714 606 q 449 790 572 790 q 255 698 327 790 q 183 435 183 606 q 255 173 183 262 q 449 83 327 83 m 556 990 l 301 1215 l 377 1277 l 610 1033 l 556 990 z "},"Ó":{"ha":897,"x_min":71,"x_max":826,"o":"m 449 -17 q 255 33 340 -17 q 120 184 169 83 q 71 435 71 284 q 120 688 71 588 q 255 838 169 788 q 449 888 340 888 q 642 838 557 888 q 777 687 728 788 q 826 435 826 586 q 777 182 826 283 q 642 33 728 82 q 449 -17 557 -17 m 449 83 q 643 173 572 83 q 714 436 714 263 q 643 698 714 606 q 449 790 572 790 q 255 698 327 790 q 183 435 183 606 q 255 173 183 262 q 449 83 327 83 m 413 985 l 358 1029 l 592 1273 l 667 1211 l 413 985 z "},"Ù":{"ha":907,"x_min":121,"x_max":783,"o":"m 121 872 l 229 872 l 229 315 q 291 138 229 192 q 453 83 353 83 q 614 138 552 83 q 675 315 675 192 l 675 872 l 783 872 l 783 315 q 743 132 783 206 q 628 20 702 58 q 453 -17 553 -17 q 277 20 352 -17 q 162 132 203 58 q 121 315 121 206 l 121 872 m 556 990 l 301 1215 l 377 1277 l 610 1033 l 556 990 z "},"Ú":{"ha":907,"x_min":121,"x_max":783,"o":"m 121 872 l 229 872 l 229 315 q 291 138 229 192 q 453 83 353 83 q 614 138 552 83 q 675 315 675 192 l 675 872 l 783 872 l 783 315 q 743 132 783 206 q 628 20 702 58 q 453 -17 553 -17 q 277 20 352 -17 q 162 132 203 58 q 121 315 121 206 l 121 872 m 413 985 l 358 1029 l 592 1273 l 667 1211 l 413 985 z "},"ˆ":{"ha":582,"x_min":71,"x_max":512,"o":"m 136 759 l 71 810 l 291 1026 l 512 810 l 447 759 l 272 936 l 310 936 l 136 759 z "},"â":{"ha":765,"x_min":83,"x_max":646,"o":"m 551 0 l 538 146 l 538 431 q 499 559 538 520 q 385 599 461 599 q 307 586 342 599 q 251 548 272 574 q 231 481 231 522 l 110 481 q 145 597 110 553 q 243 661 181 641 q 385 681 305 681 q 520 655 461 681 q 613 573 579 629 q 646 428 646 517 l 646 0 l 551 0 m 325 -17 q 190 13 243 -17 q 110 88 136 42 q 83 186 83 135 q 117 296 83 253 q 209 358 151 338 q 340 378 267 378 q 445 367 392 378 q 547 339 497 357 l 547 271 q 453 297 506 288 q 357 307 401 307 q 244 280 290 307 q 199 186 199 252 q 234 103 199 138 q 346 68 269 68 q 443 93 400 68 q 512 157 487 119 q 538 233 538 195 l 564 233 q 535 110 564 167 q 453 18 506 53 q 325 -17 399 -17 m 226 751 l 161 803 l 381 1019 l 602 803 l 538 751 l 363 928 l 400 928 l 226 751 z "},"ê":{"ha":713,"x_min":71,"x_max":644,"o":"m 371 -17 q 217 27 285 -17 q 110 150 149 72 q 71 331 71 228 q 110 518 71 440 q 216 639 149 597 q 371 681 284 681 q 500 650 447 681 q 586 567 553 619 q 632 450 619 515 q 639 314 644 384 l 158 314 l 158 381 l 567 381 l 535 360 q 531 442 538 401 q 506 517 524 483 q 456 572 488 551 q 372 593 423 593 q 265 560 308 593 q 201 475 222 528 q 179 360 179 422 l 179 315 q 200 191 179 246 q 264 104 222 136 q 371 72 306 72 q 477 103 435 72 q 528 196 519 135 l 640 196 q 593 82 630 130 q 499 9 556 35 q 371 -17 442 -17 m 201 751 l 136 803 l 356 1019 l 577 803 l 513 751 l 338 928 l 375 928 l 201 751 z "},"ô":{"ha":759,"x_min":71,"x_max":689,"o":"m 381 -17 q 221 23 291 -17 q 111 140 151 63 q 71 332 71 218 q 111 524 71 447 q 221 641 151 601 q 381 681 291 681 q 539 641 469 681 q 649 524 609 601 q 689 332 689 447 q 649 140 689 218 q 539 23 609 63 q 381 -17 469 -17 m 378 78 q 488 109 442 78 q 556 197 533 140 q 579 332 579 253 q 530 519 579 451 q 383 588 481 588 q 273 557 318 588 q 205 468 228 526 q 182 332 182 411 q 232 146 182 215 q 378 78 281 78 m 224 751 l 159 803 l 379 1019 l 600 803 l 535 751 l 360 928 l 398 928 l 224 751 z "},"û":{"ha":841,"x_min":121,"x_max":700,"o":"m 592 665 l 700 665 l 700 0 l 592 0 l 592 665 m 121 665 l 229 665 l 229 251 q 270 125 229 168 q 386 82 310 82 q 495 115 449 82 q 566 207 541 149 q 592 342 592 266 l 632 342 q 600 151 632 230 q 509 30 567 72 q 371 -12 450 -12 q 240 15 296 -12 q 152 100 183 43 q 121 243 121 156 l 121 665 m 278 751 l 213 803 l 433 1019 l 653 803 l 589 751 l 414 928 l 451 928 l 278 751 z "},"Â":{"ha":798,"x_min":36,"x_max":761,"o":"m 36 0 l 336 872 l 468 872 l 761 0 l 647 0 l 574 224 l 226 224 l 150 0 l 36 0 m 254 308 l 546 308 l 400 740 l 254 308 m 248 960 l 183 1011 l 403 1227 l 624 1011 l 559 960 l 384 1137 l 422 1137 l 248 960 z "},"Ê":{"ha":781,"x_min":139,"x_max":676,"o":"m 139 0 l 139 872 l 676 872 l 676 779 l 247 779 l 247 486 l 651 486 l 651 393 l 247 393 l 247 94 l 676 94 l 676 0 l 139 0 m 235 960 l 169 1011 l 390 1227 l 610 1011 l 546 960 l 371 1137 l 408 1137 l 235 960 z "},"Î":{"ha":389,"x_min":-26,"x_max":415,"o":"m 140 0 l 140 872 l 249 872 l 249 0 l 140 0 m 39 960 l -26 1011 l 194 1227 l 415 1011 l 350 960 l 175 1137 l 213 1137 l 39 960 z "},"Ô":{"ha":897,"x_min":71,"x_max":826,"o":"m 449 -17 q 255 33 340 -17 q 120 184 169 83 q 71 435 71 284 q 120 688 71 588 q 255 838 169 788 q 449 888 340 888 q 642 838 557 888 q 777 687 728 788 q 826 435 826 586 q 777 182 826 283 q 642 33 728 82 q 449 -17 557 -17 m 449 83 q 643 173 572 83 q 714 436 714 263 q 643 698 714 606 q 449 790 572 790 q 255 698 327 790 q 183 435 183 606 q 255 173 183 262 q 449 83 327 83 m 298 960 l 233 1011 l 453 1227 l 674 1011 l 609 960 l 434 1137 l 472 1137 l 298 960 z "},"Û":{"ha":907,"x_min":121,"x_max":783,"o":"m 121 872 l 229 872 l 229 315 q 291 138 229 192 q 453 83 353 83 q 614 138 552 83 q 675 315 675 192 l 675 872 l 783 872 l 783 315 q 743 132 783 206 q 628 20 702 58 q 453 -17 553 -17 q 277 20 352 -17 q 162 132 203 58 q 121 315 121 206 l 121 872 m 298 960 l 233 1011 l 453 1227 l 674 1011 l 609 960 l 434 1137 l 472 1137 l 298 960 z "},"˜":{"ha":578,"x_min":71,"x_max":508,"o":"m 115 776 l 71 805 q 120 911 88 874 q 194 948 152 948 q 232 941 213 948 q 296 912 252 935 q 356 883 339 890 q 388 876 372 876 q 427 893 408 876 q 461 948 447 910 l 508 916 q 480 841 498 872 q 438 793 461 810 q 390 776 415 776 q 346 785 369 776 q 278 817 323 794 q 224 843 240 837 q 194 849 209 849 q 153 833 173 849 q 115 776 133 817 z "},"&":{"ha":1270,"x_min":124,"x_max":1206,"o":"m 1018 -17 q 919 6 965 -17 q 819 76 873 28 l 364 478 q 285 574 314 522 q 257 682 257 626 q 290 787 257 741 q 383 860 322 833 q 526 886 443 886 q 662 859 604 886 q 752 787 720 833 q 785 685 785 742 q 759 585 785 631 q 678 499 733 539 q 532 424 622 460 l 472 481 q 592 546 550 515 q 649 610 633 578 q 665 678 665 642 q 627 761 665 728 q 526 794 589 794 q 413 756 451 794 q 375 667 375 718 q 393 595 375 629 q 453 524 411 560 l 906 125 q 956 90 934 101 q 1010 79 978 79 q 1072 106 1045 79 q 1103 193 1099 132 l 1206 193 q 1154 39 1201 94 q 1018 -17 1107 -17 m 465 -17 q 330 3 392 -17 q 221 58 267 23 q 149 141 175 94 q 124 242 124 188 q 208 401 124 348 q 453 468 292 455 l 479 404 q 300 353 358 392 q 242 246 242 315 q 268 163 242 201 q 344 103 294 126 q 467 81 394 81 q 622 116 551 81 q 750 212 692 151 q 852 355 808 274 q 929 528 897 435 l 1006 486 q 921 289 972 381 q 804 129 871 198 q 652 22 737 60 q 465 -17 568 -17 z "},"@":{"ha":1303,"x_min":93,"x_max":1239,"o":"m 756 -250 q 484 -208 606 -250 q 274 -91 362 -167 q 140 89 187 -15 q 93 316 93 192 q 139 542 93 438 q 266 724 184 647 q 459 844 348 801 q 703 888 571 888 q 924 851 826 888 q 1093 748 1023 814 q 1201 595 1164 682 q 1239 408 1239 508 q 1214 256 1239 324 q 1146 140 1189 188 q 1050 65 1103 91 q 940 39 997 39 q 846 65 883 39 q 803 138 809 91 l 799 158 q 733 74 775 110 q 624 39 692 39 q 514 69 565 39 q 431 153 463 99 q 400 284 400 208 q 425 409 400 351 q 493 511 450 467 q 592 580 537 555 q 708 604 647 604 q 840 554 792 604 q 889 403 889 504 l 889 192 q 902 137 889 154 q 942 119 915 119 q 1025 153 982 119 q 1098 252 1068 188 q 1128 408 1128 317 q 1077 606 1128 519 q 932 742 1026 692 q 708 792 838 792 q 501 753 594 792 q 342 648 408 715 q 240 492 276 581 q 204 302 204 403 q 270 60 204 165 q 460 -103 337 -44 q 756 -162 584 -162 l 756 -250 m 639 126 q 730 160 694 126 q 797 254 767 194 l 797 403 q 777 490 797 460 q 710 519 757 519 q 615 491 663 519 q 535 409 567 462 q 503 283 503 356 q 541 167 503 207 q 639 126 580 126 z "},"¨":{"ha":519,"x_min":71,"x_max":449,"o":"m 375 791 q 324 811 345 791 q 303 860 303 831 q 324 910 303 889 q 375 931 345 931 q 427 910 406 931 q 449 860 449 889 q 427 811 449 831 q 375 791 406 791 m 143 791 q 91 811 112 791 q 71 858 71 831 q 91 909 71 889 q 143 929 112 929 q 195 909 174 929 q 217 858 217 889 q 195 811 217 831 q 143 791 174 791 z "},"ä":{"ha":765,"x_min":83,"x_max":646,"o":"m 551 0 l 538 146 l 538 431 q 499 559 538 520 q 385 599 461 599 q 307 586 342 599 q 251 548 272 574 q 231 481 231 522 l 110 481 q 145 597 110 553 q 243 661 181 641 q 385 681 305 681 q 520 655 461 681 q 613 573 579 629 q 646 428 646 517 l 646 0 l 551 0 m 325 -17 q 190 13 243 -17 q 110 88 136 42 q 83 186 83 135 q 117 296 83 253 q 209 358 151 338 q 340 378 267 378 q 445 367 392 378 q 547 339 497 357 l 547 271 q 453 297 506 288 q 357 307 401 307 q 244 280 290 307 q 199 186 199 252 q 234 103 199 138 q 346 68 269 68 q 443 93 400 68 q 512 157 487 119 q 538 233 538 195 l 564 233 q 535 110 564 167 q 453 18 506 53 q 325 -17 399 -17 m 497 791 q 446 811 467 791 q 425 860 425 831 q 446 910 425 889 q 497 931 467 931 q 550 910 528 931 q 571 860 571 889 q 550 811 571 831 q 497 791 528 791 m 265 791 q 214 811 234 791 q 193 858 193 831 q 214 909 193 889 q 265 929 234 929 q 318 909 297 929 q 339 858 339 889 q 318 811 339 831 q 265 791 297 791 z "},"ë":{"ha":713,"x_min":71,"x_max":644,"o":"m 371 -17 q 217 27 285 -17 q 110 150 149 72 q 71 331 71 228 q 110 518 71 440 q 216 639 149 597 q 371 681 284 681 q 500 650 447 681 q 586 567 553 619 q 632 450 619 515 q 639 314 644 384 l 158 314 l 158 381 l 567 381 l 535 360 q 531 442 538 401 q 506 517 524 483 q 456 572 488 551 q 372 593 423 593 q 265 560 308 593 q 201 475 222 528 q 179 360 179 422 l 179 315 q 200 191 179 246 q 264 104 222 136 q 371 72 306 72 q 477 103 435 72 q 528 196 519 135 l 640 196 q 593 82 630 130 q 499 9 556 35 q 371 -17 442 -17 m 472 791 q 421 811 442 791 q 400 860 400 831 q 421 910 400 889 q 472 931 442 931 q 525 910 503 931 q 546 860 546 889 q 525 811 546 831 q 472 791 503 791 m 240 791 q 189 811 209 791 q 168 858 168 831 q 189 909 168 889 q 240 929 209 929 q 293 909 272 929 q 314 858 314 889 q 293 811 314 831 q 240 791 272 791 z "},"ö":{"ha":759,"x_min":71,"x_max":689,"o":"m 381 -17 q 221 23 291 -17 q 111 140 151 63 q 71 332 71 218 q 111 524 71 447 q 221 641 151 601 q 381 681 291 681 q 539 641 469 681 q 649 524 609 601 q 689 332 689 447 q 649 140 689 218 q 539 23 609 63 q 381 -17 469 -17 m 378 78 q 488 109 442 78 q 556 197 533 140 q 579 332 579 253 q 530 519 579 451 q 383 588 481 588 q 273 557 318 588 q 205 468 228 526 q 182 332 182 411 q 232 146 182 215 q 378 78 281 78 m 495 791 q 444 811 465 791 q 423 860 423 831 q 444 910 423 889 q 495 931 465 931 q 548 910 526 931 q 569 860 569 889 q 548 811 569 831 q 495 791 526 791 m 263 791 q 211 811 232 791 q 191 858 191 831 q 211 909 191 889 q 263 929 232 929 q 316 909 294 929 q 337 858 337 889 q 316 811 337 831 q 263 791 294 791 z "},"ü":{"ha":841,"x_min":121,"x_max":700,"o":"m 592 665 l 700 665 l 700 0 l 592 0 l 592 665 m 121 665 l 229 665 l 229 251 q 270 125 229 168 q 386 82 310 82 q 495 115 449 82 q 566 207 541 149 q 592 342 592 266 l 632 342 q 600 151 632 230 q 509 30 567 72 q 371 -12 450 -12 q 240 15 296 -12 q 152 100 183 43 q 121 243 121 156 l 121 665 m 549 791 q 498 811 519 791 q 476 860 476 831 q 498 910 476 889 q 549 931 519 931 q 601 910 580 931 q 622 860 622 889 q 601 811 622 831 q 549 791 580 791 m 317 791 q 265 811 285 791 q 244 858 244 831 q 265 909 244 889 q 317 929 285 929 q 369 909 348 929 q 390 858 390 889 q 369 811 390 831 q 317 791 348 791 z "},"Ä":{"ha":798,"x_min":36,"x_max":761,"o":"m 36 0 l 336 872 l 468 872 l 761 0 l 647 0 l 574 224 l 226 224 l 150 0 l 36 0 m 254 308 l 546 308 l 400 740 l 254 308 m 519 999 q 468 1019 489 999 q 447 1068 447 1039 q 468 1118 447 1097 q 519 1139 489 1139 q 571 1118 550 1139 q 592 1068 592 1097 q 571 1019 592 1039 q 519 999 550 999 m 287 999 q 235 1019 256 999 q 215 1067 215 1039 q 235 1117 215 1097 q 287 1138 256 1138 q 339 1117 318 1138 q 360 1067 360 1097 q 339 1019 360 1039 q 287 999 318 999 z "},"Ë":{"ha":781,"x_min":139,"x_max":676,"o":"m 139 0 l 139 872 l 676 872 l 676 779 l 247 779 l 247 486 l 651 486 l 651 393 l 247 393 l 247 94 l 676 94 l 676 0 l 139 0 m 506 999 q 455 1019 476 999 q 433 1068 433 1039 q 455 1118 433 1097 q 506 1139 476 1139 q 558 1118 537 1139 q 579 1068 579 1097 q 558 1019 579 1039 q 506 999 537 999 m 274 999 q 222 1019 242 999 q 201 1067 201 1039 q 222 1117 201 1097 q 274 1138 242 1138 q 326 1117 305 1138 q 347 1067 347 1097 q 326 1019 347 1039 q 274 999 305 999 z "},"Ï":{"ha":389,"x_min":6,"x_max":383,"o":"m 140 0 l 140 872 l 249 872 l 249 0 l 140 0 m 310 999 q 259 1019 280 999 q 238 1068 238 1039 q 259 1118 238 1097 q 310 1139 280 1139 q 362 1118 341 1139 q 383 1068 383 1097 q 362 1019 383 1039 q 310 999 341 999 m 78 999 q 26 1019 47 999 q 6 1067 6 1039 q 26 1117 6 1097 q 78 1138 47 1138 q 130 1117 109 1138 q 151 1067 151 1097 q 130 1019 151 1039 q 78 999 109 999 z "},"Ö":{"ha":897,"x_min":71,"x_max":826,"o":"m 449 -17 q 255 33 340 -17 q 120 184 169 83 q 71 435 71 284 q 120 688 71 588 q 255 838 169 788 q 449 888 340 888 q 642 838 557 888 q 777 687 728 788 q 826 435 826 586 q 777 182 826 283 q 642 33 728 82 q 449 -17 557 -17 m 449 83 q 643 173 572 83 q 714 436 714 263 q 643 698 714 606 q 449 790 572 790 q 255 698 327 790 q 183 435 183 606 q 255 173 183 262 q 449 83 327 83 m 569 999 q 518 1019 539 999 q 497 1068 497 1039 q 518 1118 497 1097 q 569 1139 539 1139 q 621 1118 600 1139 q 642 1068 642 1097 q 621 1019 642 1039 q 569 999 600 999 m 337 999 q 285 1019 306 999 q 265 1067 265 1039 q 285 1117 265 1097 q 337 1138 306 1138 q 389 1117 368 1138 q 410 1067 410 1097 q 389 1019 410 1039 q 337 999 368 999 z "},"Ü":{"ha":907,"x_min":121,"x_max":783,"o":"m 121 872 l 229 872 l 229 315 q 291 138 229 192 q 453 83 353 83 q 614 138 552 83 q 675 315 675 192 l 675 872 l 783 872 l 783 315 q 743 132 783 206 q 628 20 702 58 q 453 -17 553 -17 q 277 20 352 -17 q 162 132 203 58 q 121 315 121 206 l 121 872 m 569 999 q 518 1019 539 999 q 497 1068 497 1039 q 518 1118 497 1097 q 569 1139 539 1139 q 621 1118 600 1139 q 642 1068 642 1097 q 621 1019 642 1039 q 569 999 600 999 m 337 999 q 285 1019 306 999 q 265 1067 265 1039 q 285 1117 265 1097 q 337 1138 306 1138 q 389 1117 368 1138 q 410 1067 410 1097 q 389 1019 410 1039 q 337 999 368 999 z "},"ì":{"ha":414,"x_min":49,"x_max":358,"o":"m 147 0 l 147 665 l 256 665 l 256 0 l 147 0 m 303 781 l 49 1007 l 124 1069 l 358 825 l 303 781 z "},"í":{"ha":414,"x_min":106,"x_max":415,"o":"m 147 0 l 147 665 l 256 665 l 256 0 l 147 0 m 160 777 l 106 821 l 339 1065 l 415 1003 l 160 777 z "},"î":{"ha":414,"x_min":-20,"x_max":421,"o":"m 147 0 l 147 665 l 256 665 l 256 0 l 147 0 m 45 751 l -20 803 l 200 1019 l 421 803 l 356 751 l 181 928 l 219 928 l 45 751 z "},"ï":{"ha":414,"x_min":12,"x_max":390,"o":"m 147 0 l 147 665 l 256 665 l 256 0 l 147 0 m 316 791 q 265 811 286 791 q 244 860 244 831 q 265 910 244 889 q 316 931 286 931 q 368 910 347 931 q 390 860 390 889 q 368 811 390 831 q 316 791 347 791 m 84 791 q 32 811 53 791 q 12 858 12 831 q 32 909 12 889 q 84 929 53 929 q 136 909 115 929 q 158 858 158 889 q 136 811 158 831 q 84 791 115 791 z "},"<":{"ha":729,"x_min":110,"x_max":619,"o":"m 548 793 l 619 710 l 187 401 l 187 446 l 619 140 l 548 56 l 110 376 l 110 471 l 548 793 z "},">":{"ha":729,"x_min":110,"x_max":619,"o":"m 181 56 l 110 140 l 540 446 l 540 401 l 110 710 l 181 793 l 619 471 l 619 376 l 181 56 z "},"\"":{"ha":423,"x_min":40,"x_max":383,"o":"m 286 642 l 272 947 l 383 947 l 368 642 l 286 642 m 54 642 l 40 947 l 151 947 l 136 642 l 54 642 z "},"#":{"ha":869,"x_min":74,"x_max":813,"o":"m 192 43 l 213 236 l 74 236 l 81 310 l 219 310 l 246 558 l 107 558 l 114 632 l 254 632 l 274 822 l 375 822 l 356 632 l 569 632 l 590 822 l 690 822 l 671 632 l 813 632 l 804 558 l 663 558 l 638 310 l 779 310 l 771 236 l 629 236 l 608 43 l 507 43 l 528 236 l 314 236 l 293 43 l 192 43 m 321 310 l 535 310 l 561 558 l 347 558 l 321 310 z "},"*":{"ha":573,"x_min":78,"x_max":497,"o":"m 115 593 l 240 715 l 78 772 l 111 846 l 258 772 l 246 950 l 329 950 l 317 772 l 464 847 l 497 772 l 336 717 l 461 593 l 399 539 l 289 683 l 178 539 l 115 593 z "},"/":{"ha":599,"x_min":79,"x_max":539,"o":"m 79 -100 l 428 1015 l 539 1015 l 188 -100 l 79 -100 z "},"%":{"ha":1008,"x_min":85,"x_max":926,"o":"m 154 0 l 742 872 l 854 872 l 267 0 l 154 0 m 747 -14 q 661 9 701 -14 q 596 76 621 31 q 571 186 571 120 q 596 295 571 251 q 661 362 621 340 q 747 385 701 385 q 836 362 795 385 q 902 295 877 340 q 926 186 926 251 q 902 76 926 120 q 836 9 877 31 q 747 -14 795 -14 m 747 61 q 814 91 788 61 q 839 186 839 121 q 814 281 839 250 q 747 311 788 311 q 682 281 707 311 q 657 186 657 250 q 682 91 657 121 q 747 61 707 61 m 261 490 q 175 513 215 490 q 110 580 135 535 q 85 689 85 624 q 110 798 85 754 q 175 865 135 842 q 261 888 215 888 q 349 865 308 888 q 415 798 390 842 q 440 689 440 754 q 415 580 440 624 q 349 513 390 535 q 261 490 308 490 m 261 564 q 326 594 301 564 q 351 689 351 624 q 326 784 351 753 q 261 815 301 815 q 196 784 221 815 q 171 689 171 753 q 196 594 171 624 q 261 564 221 564 z "},"\\":{"ha":599,"x_min":63,"x_max":522,"o":"m 63 1015 l 171 1015 l 522 -100 l 411 -100 l 63 1015 z "},"|":{"ha":389,"x_min":140,"x_max":249,"o":"m 140 -169 l 140 1042 l 249 1042 l 249 -169 l 140 -169 z "},"[":{"ha":439,"x_min":140,"x_max":414,"o":"m 140 -140 l 140 1014 l 414 1014 l 414 918 l 249 918 l 249 -44 l 414 -44 l 414 -140 l 140 -140 z "},"]":{"ha":394,"x_min":-19,"x_max":254,"o":"m 254 -140 l -19 -140 l -19 -44 l 146 -44 l 146 918 l -19 918 l -19 1014 l 254 1014 l 254 -140 z "},"^":{"ha":729,"x_min":79,"x_max":650,"o":"m 79 340 l 322 814 l 407 814 l 650 340 l 529 340 l 344 726 l 385 726 l 201 340 l 79 340 z "},"_":{"ha":1006,"x_min":76,"x_max":932,"o":"m 76 0 l 76 94 l 932 94 l 932 0 l 76 0 z "},"{":{"ha":483,"x_min":104,"x_max":472,"o":"m 472 -192 q 300 -149 365 -192 q 207 -34 235 -107 q 178 133 178 40 l 178 260 q 166 345 178 320 q 128 369 155 369 l 104 369 l 104 475 l 128 475 q 166 500 155 475 q 178 585 178 524 l 178 713 q 207 880 178 807 q 300 995 235 953 q 472 1038 365 1038 l 472 942 q 327 883 370 942 q 285 711 285 824 l 285 582 q 265 480 285 517 q 213 425 245 442 l 213 421 q 265 366 245 404 q 285 264 285 328 l 285 135 q 327 -37 285 22 q 472 -96 370 -96 l 472 -192 z "},"}":{"ha":483,"x_min":11,"x_max":379,"o":"m 11 -192 l 11 -96 q 156 -37 113 -96 q 199 135 199 22 l 199 264 q 219 366 199 328 q 271 421 239 404 l 271 425 q 219 480 239 442 q 199 582 199 517 l 199 711 q 156 883 199 824 q 11 942 113 942 l 11 1038 q 183 995 119 1038 q 277 880 248 953 q 306 713 306 807 l 306 585 q 317 500 306 524 q 356 475 328 475 l 379 475 l 379 369 l 356 369 q 317 345 328 369 q 306 260 306 320 l 306 133 q 277 -34 306 40 q 183 -149 248 -107 q 11 -192 119 -192 z "},"~":{"ha":729,"x_min":81,"x_max":648,"o":"m 141 310 l 81 342 q 142 456 104 417 q 230 496 179 496 q 285 487 255 496 q 369 457 316 478 q 452 427 426 434 q 498 419 478 419 q 548 439 524 419 q 590 499 572 459 l 648 461 q 583 350 623 385 q 491 315 542 315 q 438 324 470 315 q 353 354 406 333 q 272 383 297 375 q 227 392 247 392 q 182 374 203 392 q 141 310 160 356 z "},"ã":{"ha":765,"x_min":83,"x_max":646,"o":"m 551 0 l 538 146 l 538 431 q 499 559 538 520 q 385 599 461 599 q 307 586 342 599 q 251 548 272 574 q 231 481 231 522 l 110 481 q 145 597 110 553 q 243 661 181 641 q 385 681 305 681 q 520 655 461 681 q 613 573 579 629 q 646 428 646 517 l 646 0 l 551 0 m 325 -17 q 190 13 243 -17 q 110 88 136 42 q 83 186 83 135 q 117 296 83 253 q 209 358 151 338 q 340 378 267 378 q 445 367 392 378 q 547 339 497 357 l 547 271 q 453 297 506 288 q 357 307 401 307 q 244 280 290 307 q 199 186 199 252 q 234 103 199 138 q 346 68 269 68 q 443 93 400 68 q 512 157 487 119 q 538 233 538 195 l 564 233 q 535 110 564 167 q 453 18 506 53 q 325 -17 399 -17 m 208 772 l 163 800 q 212 906 180 869 q 287 943 244 943 q 325 936 305 943 q 388 907 344 930 q 448 878 431 885 q 480 871 465 871 q 519 888 500 871 q 553 943 539 906 l 601 911 q 572 836 590 867 q 530 788 553 805 q 483 772 507 772 q 439 780 462 772 q 370 812 415 789 q 317 838 332 832 q 287 844 301 844 q 245 828 265 844 q 208 772 226 813 z "},"ñ":{"ha":838,"x_min":140,"x_max":719,"o":"m 613 0 l 613 390 q 567 535 613 485 q 443 585 522 585 q 340 552 383 585 q 272 459 296 519 q 249 314 249 398 l 207 314 q 238 512 207 430 q 327 637 268 594 q 469 681 385 681 q 604 645 548 681 q 690 545 660 610 q 719 390 719 480 l 719 0 l 613 0 m 140 0 l 140 664 l 233 664 l 249 511 l 249 0 l 140 0 m 264 781 l 219 810 q 268 916 236 879 q 343 953 301 953 q 381 946 361 953 q 444 917 401 940 q 504 888 488 894 q 536 881 521 881 q 576 898 556 881 q 610 953 595 915 l 657 921 q 628 846 647 877 q 586 798 610 815 q 539 781 563 781 q 495 790 518 781 q 426 822 472 799 q 373 848 388 842 q 343 853 358 853 q 302 838 322 853 q 264 781 282 822 z "},"õ":{"ha":759,"x_min":71,"x_max":689,"o":"m 381 -17 q 221 23 291 -17 q 111 140 151 63 q 71 332 71 218 q 111 524 71 447 q 221 641 151 601 q 381 681 291 681 q 539 641 469 681 q 649 524 609 601 q 689 332 689 447 q 649 140 689 218 q 539 23 609 63 q 381 -17 469 -17 m 378 78 q 488 109 442 78 q 556 197 533 140 q 579 332 579 253 q 530 519 579 451 q 383 588 481 588 q 273 557 318 588 q 205 468 228 526 q 182 332 182 411 q 232 146 182 215 q 378 78 281 78 m 206 772 l 161 800 q 210 906 178 869 q 285 943 242 943 q 323 936 303 943 q 386 907 342 930 q 446 878 429 885 q 478 871 463 871 q 517 888 498 871 q 551 943 537 906 l 599 911 q 570 836 588 867 q 528 788 551 805 q 481 772 505 772 q 436 780 460 772 q 368 812 413 789 q 315 838 330 832 q 285 844 299 844 q 243 828 263 844 q 206 772 224 813 z "},"Ã":{"ha":798,"x_min":36,"x_max":761,"o":"m 36 0 l 336 872 l 468 872 l 761 0 l 647 0 l 574 224 l 226 224 l 150 0 l 36 0 m 254 308 l 546 308 l 400 740 l 254 308 m 229 980 l 185 1008 q 234 1115 201 1078 q 308 1151 266 1151 q 346 1145 326 1151 q 410 1115 366 1138 q 469 1086 453 1093 q 501 1079 486 1079 q 541 1097 522 1079 q 575 1151 560 1114 l 622 1119 q 593 1044 612 1076 q 552 997 575 1013 q 504 980 528 980 q 460 989 483 980 q 392 1020 437 997 q 338 1046 353 1040 q 308 1052 323 1052 q 267 1036 287 1052 q 229 980 247 1021 z "},"Ñ":{"ha":950,"x_min":139,"x_max":810,"o":"m 139 872 l 268 872 l 711 154 l 701 154 l 701 872 l 810 872 l 810 0 l 689 0 l 231 742 l 247 742 l 247 0 l 139 0 l 139 872 m 301 980 l 256 1008 q 305 1115 273 1078 q 380 1151 338 1151 q 418 1145 398 1151 q 481 1115 438 1138 q 541 1086 524 1093 q 573 1079 558 1079 q 613 1097 593 1079 q 647 1151 632 1114 l 694 1119 q 665 1044 683 1076 q 623 997 647 1013 q 576 980 600 980 q 532 989 555 980 q 463 1020 508 997 q 410 1046 425 1040 q 380 1052 394 1052 q 339 1036 358 1052 q 301 980 319 1021 z "},"Õ":{"ha":897,"x_min":71,"x_max":826,"o":"m 449 -17 q 255 33 340 -17 q 120 184 169 83 q 71 435 71 284 q 120 688 71 588 q 255 838 169 788 q 449 888 340 888 q 642 838 557 888 q 777 687 728 788 q 826 435 826 586 q 777 182 826 283 q 642 33 728 82 q 449 -17 557 -17 m 449 83 q 643 173 572 83 q 714 436 714 263 q 643 698 714 606 q 449 790 572 790 q 255 698 327 790 q 183 435 183 606 q 255 173 183 262 q 449 83 327 83 m 279 980 l 235 1008 q 284 1115 251 1078 q 358 1151 316 1151 q 396 1145 376 1151 q 460 1115 416 1138 q 519 1086 503 1093 q 551 1079 536 1079 q 591 1097 572 1079 q 625 1151 610 1114 l 672 1119 q 643 1044 662 1076 q 602 997 625 1013 q 554 980 578 980 q 510 989 533 980 q 442 1020 487 997 q 388 1046 403 1040 q 358 1052 373 1052 q 317 1036 337 1052 q 279 980 297 1021 z "},"Ă":{"ha":798,"x_min":36,"x_max":761,"o":"m 36 0 l 336 872 l 468 872 l 761 0 l 647 0 l 574 224 l 226 224 l 150 0 l 36 0 m 254 308 l 546 308 l 400 740 l 254 308 m 403 1008 q 263 1058 315 1008 q 210 1185 210 1108 l 301 1185 q 329 1110 301 1137 q 403 1083 357 1083 q 478 1110 451 1083 q 506 1185 506 1137 l 597 1185 q 544 1058 597 1108 q 403 1008 492 1008 z "},"Ā":{"ha":798,"x_min":36,"x_max":761,"o":"m 36 0 l 336 872 l 468 872 l 761 0 l 647 0 l 574 224 l 226 224 l 150 0 l 36 0 m 254 308 l 546 308 l 400 740 l 254 308 m 187 1110 l 621 1110 l 621 1019 l 187 1019 l 187 1110 z "},"Ą":{"ha":798,"x_min":36,"x_max":842,"o":"m 36 0 l 336 872 l 468 872 l 761 0 l 647 0 l 574 224 l 226 224 l 150 0 l 36 0 m 254 308 l 546 308 l 400 740 l 254 308 m 842 -231 q 751 -268 799 -255 q 660 -281 703 -281 q 550 -250 591 -281 q 508 -164 508 -219 q 552 -58 508 -109 q 685 27 597 -6 l 755 0 q 632 -67 677 -32 q 587 -143 587 -102 q 612 -189 587 -174 q 672 -203 638 -203 q 739 -193 704 -203 q 815 -159 773 -182 l 842 -231 z "},"Å":{"ha":798,"x_min":36,"x_max":761,"o":"m 36 0 l 336 872 l 468 872 l 761 0 l 647 0 l 574 224 l 226 224 l 150 0 l 36 0 m 254 308 l 546 308 l 400 740 l 254 308 m 403 950 q 334 969 365 950 q 283 1019 302 988 q 265 1089 265 1051 q 283 1159 265 1127 q 334 1209 302 1190 q 403 1228 365 1228 q 473 1209 442 1228 q 524 1159 505 1190 q 543 1089 543 1127 q 524 1019 543 1051 q 473 969 505 988 q 403 950 442 950 m 403 1028 q 448 1045 430 1028 q 465 1089 465 1063 q 448 1133 465 1115 q 403 1151 430 1151 q 360 1133 378 1151 q 342 1089 342 1115 q 360 1045 342 1063 q 403 1028 378 1028 z "},"Æ":{"ha":1167,"x_min":74,"x_max":1063,"o":"m 1063 872 l 1063 779 l 638 779 l 658 798 l 658 442 l 638 481 l 1038 481 l 1038 388 l 638 388 l 658 417 l 658 48 l 638 95 l 1063 95 l 1063 0 l 550 0 l 550 258 l 570 224 l 233 224 l 286 254 l 186 0 l 74 0 l 417 872 l 1063 872 m 570 308 l 550 276 l 550 797 l 570 779 l 463 779 l 508 817 l 298 285 l 272 308 l 570 308 z "},"Ć":{"ha":851,"x_min":71,"x_max":786,"o":"m 443 -17 q 244 41 328 -17 q 116 202 161 99 q 71 442 71 306 q 120 686 71 587 q 253 836 169 785 q 443 888 338 888 q 668 818 583 888 q 785 636 753 748 l 668 613 q 582 742 641 694 q 443 790 522 790 q 316 751 374 790 q 223 634 258 712 q 188 442 188 556 q 216 256 188 338 q 300 128 244 175 q 443 82 357 82 q 607 138 547 82 q 668 283 668 193 l 786 283 q 743 123 786 190 q 623 19 700 56 q 443 -17 545 -17 m 401 985 l 347 1029 l 581 1273 l 656 1211 l 401 985 z "},"Č":{"ha":851,"x_min":71,"x_max":786,"o":"m 443 -17 q 244 41 328 -17 q 116 202 161 99 q 71 442 71 306 q 120 686 71 587 q 253 836 169 785 q 443 888 338 888 q 668 818 583 888 q 785 636 753 748 l 668 613 q 582 742 641 694 q 443 790 522 790 q 316 751 374 790 q 223 634 258 712 q 188 442 188 556 q 216 256 188 338 q 300 128 244 175 q 443 82 357 82 q 607 138 547 82 q 668 283 668 193 l 786 283 q 743 123 786 190 q 623 19 700 56 q 443 -17 545 -17 m 444 977 l 224 1192 l 290 1244 l 463 1058 l 426 1058 l 601 1244 l 665 1192 l 444 977 z "},"Ç":{"ha":851,"x_min":71,"x_max":786,"o":"m 443 -17 q 244 41 328 -17 q 116 202 161 99 q 71 442 71 306 q 120 686 71 587 q 253 836 169 785 q 443 888 338 888 q 668 818 583 888 q 785 636 753 748 l 668 613 q 582 742 641 694 q 443 790 522 790 q 316 751 374 790 q 223 634 258 712 q 188 442 188 556 q 216 256 188 338 q 300 128 244 175 q 443 82 357 82 q 607 138 547 82 q 668 283 668 193 l 786 283 q 743 123 786 190 q 623 19 700 56 q 443 -17 545 -17 m 313 -247 l 332 -201 q 424 -232 383 -228 q 490 -222 465 -236 q 517 -184 515 -208 q 498 -142 519 -160 q 446 -111 478 -124 q 380 -91 414 -99 l 429 39 l 491 33 l 444 -88 l 419 -49 q 524 -83 482 -62 q 588 -129 567 -103 q 606 -189 608 -156 q 572 -252 603 -228 q 495 -284 541 -276 q 401 -282 449 -291 q 313 -247 352 -273 z "},"Ċ":{"ha":851,"x_min":71,"x_max":786,"o":"m 443 -17 q 244 41 328 -17 q 116 202 161 99 q 71 442 71 306 q 120 686 71 587 q 253 836 169 785 q 443 888 338 888 q 668 818 583 888 q 785 636 753 748 l 668 613 q 582 742 641 694 q 443 790 522 790 q 316 751 374 790 q 223 634 258 712 q 188 442 188 556 q 216 256 188 338 q 300 128 244 175 q 443 82 357 82 q 607 138 547 82 q 668 283 668 193 l 786 283 q 743 123 786 190 q 623 19 700 56 q 443 -17 545 -17 m 442 1005 q 386 1027 408 1005 q 363 1081 363 1049 q 386 1136 363 1113 q 442 1159 408 1159 q 500 1136 476 1159 q 524 1081 524 1113 q 500 1027 524 1049 q 442 1005 476 1005 z "},"Ď":{"ha":917,"x_min":140,"x_max":829,"o":"m 140 872 l 396 872 q 625 818 528 872 q 776 667 722 765 q 829 436 829 569 q 776 207 829 305 q 625 55 722 109 q 396 0 528 0 l 140 0 l 140 872 m 249 776 l 249 94 l 396 94 q 566 139 494 94 q 675 261 637 183 q 714 436 714 338 q 675 611 714 535 q 566 732 637 688 q 396 776 494 776 l 249 776 m 460 977 l 240 1192 l 306 1244 l 479 1058 l 442 1058 l 617 1244 l 681 1192 l 460 977 z "},"Đ":{"ha":917,"x_min":31,"x_max":829,"o":"m 31 483 l 465 483 l 465 390 l 31 390 l 31 483 m 140 872 l 396 872 q 625 818 528 872 q 776 667 722 765 q 829 436 829 569 q 776 207 829 305 q 625 55 722 109 q 396 0 528 0 l 140 0 l 140 872 m 249 776 l 249 94 l 396 94 q 566 139 494 94 q 675 261 637 183 q 714 436 714 338 q 675 611 714 535 q 566 732 637 688 q 396 776 494 776 l 249 776 z "},"Ð":{"ha":917,"x_min":31,"x_max":829,"o":"m 31 483 l 465 483 l 465 390 l 31 390 l 31 483 m 140 872 l 396 872 q 625 818 528 872 q 776 667 722 765 q 829 436 829 569 q 776 207 829 305 q 625 55 722 109 q 396 0 528 0 l 140 0 l 140 872 m 249 776 l 249 94 l 396 94 q 566 139 494 94 q 675 261 637 183 q 714 436 714 338 q 675 611 714 535 q 566 732 637 688 q 396 776 494 776 l 249 776 z "},"Ě":{"ha":781,"x_min":139,"x_max":676,"o":"m 139 0 l 139 872 l 676 872 l 676 779 l 247 779 l 247 486 l 651 486 l 651 393 l 247 393 l 247 94 l 676 94 l 676 0 l 139 0 m 392 977 l 172 1192 l 238 1244 l 411 1058 l 374 1058 l 549 1244 l 613 1192 l 392 977 z "},"Ė":{"ha":781,"x_min":139,"x_max":676,"o":"m 139 0 l 139 872 l 676 872 l 676 779 l 247 779 l 247 486 l 651 486 l 651 393 l 247 393 l 247 94 l 676 94 l 676 0 l 139 0 m 390 1005 q 334 1027 356 1005 q 311 1081 311 1049 q 334 1136 311 1113 q 390 1159 356 1159 q 448 1136 424 1159 q 472 1081 472 1113 q 448 1027 472 1049 q 390 1005 424 1005 z "},"Ē":{"ha":781,"x_min":139,"x_max":676,"o":"m 139 0 l 139 872 l 676 872 l 676 779 l 247 779 l 247 486 l 651 486 l 651 393 l 247 393 l 247 94 l 676 94 l 676 0 l 139 0 m 174 1110 l 608 1110 l 608 1019 l 174 1019 l 174 1110 z "},"Ę":{"ha":781,"x_min":139,"x_max":745,"o":"m 139 0 l 139 872 l 676 872 l 676 779 l 247 779 l 247 486 l 651 486 l 651 393 l 247 393 l 247 94 l 676 94 l 676 0 l 139 0 m 745 -231 q 655 -268 702 -255 q 563 -281 607 -281 q 453 -250 494 -281 q 412 -164 412 -219 q 456 -58 412 -109 q 588 27 500 -6 l 658 0 q 535 -67 581 -32 q 490 -143 490 -102 q 516 -189 490 -174 q 576 -203 541 -203 q 642 -193 608 -203 q 719 -159 676 -182 l 745 -231 z "},"Ğ":{"ha":894,"x_min":71,"x_max":792,"o":"m 447 -17 q 258 38 343 -17 q 122 191 172 92 q 71 426 71 290 q 103 626 71 540 q 193 770 136 712 q 324 858 250 828 q 481 888 398 888 q 660 845 583 888 q 792 713 737 803 l 689 676 q 589 761 642 734 q 476 789 536 789 q 332 745 398 789 q 226 620 266 701 q 186 426 186 539 q 219 249 186 326 q 311 127 251 172 q 454 83 372 83 q 568 113 517 83 q 647 200 618 142 q 676 349 676 259 l 710 349 q 683 156 710 238 q 599 28 657 74 q 447 -17 541 -17 m 696 0 l 676 206 l 676 351 l 457 358 l 457 432 l 782 432 l 782 0 l 696 0 m 447 1008 q 307 1058 359 1008 q 254 1185 254 1108 l 344 1185 q 373 1110 344 1137 q 447 1083 401 1083 q 522 1110 494 1083 q 550 1185 550 1137 l 640 1185 q 588 1058 640 1108 q 447 1008 535 1008 z "},"Ģ":{"ha":894,"x_min":71,"x_max":792,"o":"m 447 -17 q 258 38 343 -17 q 122 191 172 92 q 71 426 71 290 q 103 626 71 540 q 193 770 136 712 q 324 858 250 828 q 481 888 398 888 q 660 845 583 888 q 792 713 737 803 l 689 676 q 589 761 642 734 q 476 789 536 789 q 332 745 398 789 q 226 620 266 701 q 186 426 186 539 q 219 249 186 326 q 311 127 251 172 q 454 83 372 83 q 568 113 517 83 q 647 200 618 142 q 676 349 676 259 l 710 349 q 683 156 710 238 q 599 28 657 74 q 447 -17 541 -17 m 696 0 l 676 206 l 676 351 l 457 358 l 457 432 l 782 432 l 782 0 l 696 0 m 415 -305 l 353 -274 q 415 -234 390 -256 q 449 -181 440 -212 q 406 -164 423 -179 q 392 -124 390 -149 q 411 -83 393 -99 q 457 -67 430 -67 q 510 -90 489 -67 q 528 -153 531 -114 q 499 -235 527 -192 q 415 -305 470 -278 z "},"Ġ":{"ha":894,"x_min":71,"x_max":792,"o":"m 447 -17 q 258 38 343 -17 q 122 191 172 92 q 71 426 71 290 q 103 626 71 540 q 193 770 136 712 q 324 858 250 828 q 481 888 398 888 q 660 845 583 888 q 792 713 737 803 l 689 676 q 589 761 642 734 q 476 789 536 789 q 332 745 398 789 q 226 620 266 701 q 186 426 186 539 q 219 249 186 326 q 311 127 251 172 q 454 83 372 83 q 568 113 517 83 q 647 200 618 142 q 676 349 676 259 l 710 349 q 683 156 710 238 q 599 28 657 74 q 447 -17 541 -17 m 696 0 l 676 206 l 676 351 l 457 358 l 457 432 l 782 432 l 782 0 l 696 0 m 447 1005 q 391 1027 413 1005 q 368 1081 368 1049 q 391 1136 368 1113 q 447 1159 413 1159 q 505 1136 481 1159 q 528 1081 528 1113 q 505 1027 528 1049 q 447 1005 481 1005 z "},"Ħ":{"ha":928,"x_min":140,"x_max":788,"o":"m 140 0 l 140 872 l 249 872 l 249 456 l 681 456 l 681 872 l 788 872 l 788 0 l 681 0 l 681 362 l 249 362 l 249 0 l 140 0 m 201 573 l 201 660 l 761 660 l 761 573 l 201 573 z "},"Ĳ":{"ha":949,"x_min":140,"x_max":838,"o":"m 140 0 l 140 872 l 249 872 l 249 0 l 140 0 m 400 43 l 400 156 q 499 106 449 124 q 594 89 548 89 q 698 132 667 89 q 729 253 729 175 l 729 872 l 838 872 l 838 253 q 809 98 838 158 q 727 11 780 39 q 601 -17 674 -17 q 495 0 545 -17 q 400 43 446 17 z "},"İ":{"ha":389,"x_min":115,"x_max":276,"o":"m 140 0 l 140 872 l 249 872 l 249 0 l 140 0 m 194 1005 q 138 1027 160 1005 q 115 1081 115 1049 q 138 1136 115 1113 q 194 1159 160 1159 q 252 1136 228 1159 q 276 1081 276 1113 q 252 1027 276 1049 q 194 1005 228 1005 z "},"Ī":{"ha":389,"x_min":51,"x_max":338,"o":"m 140 0 l 140 872 l 249 872 l 249 0 l 140 0 m 51 1110 l 338 1110 l 338 1019 l 51 1019 l 51 1110 z "},"Į":{"ha":389,"x_min":1,"x_max":335,"o":"m 140 0 l 140 872 l 249 872 l 249 0 l 140 0 m 335 -231 q 244 -268 292 -255 q 153 -281 197 -281 q 43 -250 84 -281 q 1 -164 1 -219 q 45 -58 1 -109 q 178 27 90 -6 l 248 0 q 125 -67 170 -32 q 80 -143 80 -102 q 105 -189 80 -174 q 165 -203 131 -203 q 232 -193 197 -203 q 308 -159 266 -182 l 335 -231 z "},"Ķ":{"ha":844,"x_min":140,"x_max":815,"o":"m 642 872 l 792 872 l 235 299 l 235 451 l 642 872 m 392 504 l 815 0 l 674 0 l 314 433 l 392 504 m 140 872 l 250 872 l 250 0 l 140 0 l 140 872 m 390 -305 l 328 -274 q 390 -234 365 -256 q 424 -181 415 -212 q 381 -164 398 -179 q 367 -124 365 -149 q 386 -83 368 -99 q 432 -67 405 -67 q 485 -90 464 -67 q 503 -153 506 -114 q 474 -235 502 -192 q 390 -305 445 -278 z "},"Ĺ":{"ha":649,"x_min":140,"x_max":638,"o":"m 249 872 l 249 94 l 638 94 l 638 0 l 140 0 l 140 872 l 249 872 m 293 985 l 239 1029 l 472 1273 l 548 1211 l 293 985 z "},"Ľ":{"ha":649,"x_min":140,"x_max":649,"o":"m 249 872 l 249 94 l 638 94 l 638 0 l 140 0 l 140 872 l 249 872 m 545 634 l 481 665 q 541 704 517 683 q 571 758 564 726 q 527 775 545 760 q 509 815 509 790 q 526 855 509 838 q 571 872 543 872 q 626 847 604 872 q 649 786 649 822 q 623 702 649 744 q 545 634 598 661 z "},"Ļ":{"ha":649,"x_min":140,"x_max":638,"o":"m 249 872 l 249 94 l 638 94 l 638 0 l 140 0 l 140 872 l 249 872 m 292 -305 l 231 -274 q 292 -234 267 -256 q 326 -181 317 -212 q 284 -164 301 -179 q 269 -124 267 -149 q 289 -83 271 -99 q 335 -67 308 -67 q 388 -90 367 -67 q 406 -153 408 -114 q 376 -235 405 -192 q 292 -305 348 -278 z "},"Ł":{"ha":649,"x_min":33,"x_max":638,"o":"m 49 438 l 33 531 l 372 588 l 388 497 l 49 438 m 249 872 l 249 94 l 638 94 l 638 0 l 140 0 l 140 872 l 249 872 z "},"Ń":{"ha":950,"x_min":139,"x_max":810,"o":"m 139 872 l 268 872 l 711 154 l 701 154 l 701 872 l 810 872 l 810 0 l 689 0 l 231 742 l 247 742 l 247 0 l 139 0 l 139 872 m 434 985 l 380 1029 l 613 1273 l 689 1211 l 434 985 z "},"Ň":{"ha":950,"x_min":139,"x_max":810,"o":"m 139 872 l 268 872 l 711 154 l 701 154 l 701 872 l 810 872 l 810 0 l 689 0 l 231 742 l 247 742 l 247 0 l 139 0 l 139 872 m 477 977 l 257 1192 l 322 1244 l 496 1058 l 458 1058 l 633 1244 l 698 1192 l 477 977 z "},"Ņ":{"ha":950,"x_min":139,"x_max":810,"o":"m 139 872 l 268 872 l 711 154 l 701 154 l 701 872 l 810 872 l 810 0 l 689 0 l 231 742 l 247 742 l 247 0 l 139 0 l 139 872 m 442 -305 l 381 -274 q 442 -234 417 -256 q 476 -181 467 -212 q 434 -164 451 -179 q 419 -124 417 -149 q 439 -83 421 -99 q 485 -67 458 -67 q 538 -90 517 -67 q 556 -153 558 -114 q 526 -235 555 -192 q 442 -305 498 -278 z "},"Ŋ":{"ha":950,"x_min":139,"x_max":810,"o":"m 600 -342 q 506 -329 551 -342 q 413 -290 461 -316 l 419 -196 q 500 -233 460 -219 q 581 -247 539 -247 q 672 -210 638 -247 q 706 -93 706 -172 l 703 250 l 810 250 l 810 -94 q 752 -284 810 -226 q 600 -342 694 -342 m 139 872 l 268 872 l 711 154 l 701 154 l 701 872 l 810 872 l 810 0 l 778 -140 l 231 742 l 247 742 l 247 0 l 139 0 l 139 872 z "},"Ő":{"ha":897,"x_min":71,"x_max":826,"o":"m 449 -17 q 255 33 340 -17 q 120 184 169 83 q 71 435 71 284 q 120 688 71 588 q 255 838 169 788 q 449 888 340 888 q 642 838 557 888 q 777 687 728 788 q 826 435 826 586 q 777 182 826 283 q 642 33 728 82 q 449 -17 557 -17 m 449 83 q 643 173 572 83 q 714 436 714 263 q 643 698 714 606 q 449 790 572 790 q 255 698 327 790 q 183 435 183 606 q 255 173 183 262 q 449 83 327 83 m 553 967 l 494 976 l 514 1203 l 598 1188 l 553 967 m 390 973 l 330 980 l 341 1208 l 426 1197 l 390 973 z "},"Ō":{"ha":897,"x_min":71,"x_max":826,"o":"m 449 -17 q 255 33 340 -17 q 120 184 169 83 q 71 435 71 284 q 120 688 71 588 q 255 838 169 788 q 449 888 340 888 q 642 838 557 888 q 777 687 728 788 q 826 435 826 586 q 777 182 826 283 q 642 33 728 82 q 449 -17 557 -17 m 449 83 q 643 173 572 83 q 714 436 714 263 q 643 698 714 606 q 449 790 572 790 q 255 698 327 790 q 183 435 183 606 q 255 173 183 262 q 449 83 327 83 m 237 1110 l 671 1110 l 671 1019 l 237 1019 l 237 1110 z "},"Ø":{"ha":897,"x_min":64,"x_max":826,"o":"m 64 0 l 727 874 l 823 874 l 158 0 l 64 0 m 448 -17 q 254 33 340 -17 q 119 184 169 83 q 70 435 70 284 q 119 688 70 588 q 254 838 169 788 q 448 888 340 888 q 642 838 556 888 q 776 687 727 788 q 826 435 826 586 q 776 182 826 283 q 642 33 727 82 q 448 -17 556 -17 m 448 83 q 642 173 571 83 q 713 436 713 263 q 642 698 713 606 q 448 790 571 790 q 255 698 326 790 q 183 435 183 606 q 255 173 183 262 q 448 83 326 83 z "},"Œ":{"ha":1218,"x_min":71,"x_max":1114,"o":"m 438 -17 q 248 34 331 -17 q 118 185 165 84 q 71 437 71 285 q 118 688 71 588 q 249 838 165 788 q 441 888 332 888 q 587 860 523 888 q 692 775 651 833 l 626 729 q 543 775 588 759 q 444 790 498 790 q 250 698 317 790 q 183 433 183 605 q 250 173 183 263 q 444 83 317 83 q 545 101 503 83 q 628 147 588 118 l 692 77 q 587 10 651 38 q 438 -17 524 -17 m 622 0 l 622 872 l 1114 872 l 1114 779 l 706 779 l 728 804 l 728 462 l 706 486 l 1089 486 l 1089 393 l 706 393 l 728 417 l 728 70 l 706 94 l 1114 94 l 1114 0 l 622 0 z "},"Þ":{"ha":769,"x_min":138,"x_max":714,"o":"m 138 0 l 138 872 l 247 872 l 247 702 l 222 726 l 418 726 q 638 654 562 726 q 714 457 714 581 q 638 262 714 334 q 418 190 562 190 l 222 190 l 247 215 l 247 0 l 138 0 m 247 260 l 222 285 l 418 285 q 556 331 509 285 q 603 457 603 378 q 556 585 603 538 q 418 633 509 633 l 222 633 l 247 658 l 247 260 z "},"Ŕ":{"ha":851,"x_min":140,"x_max":769,"o":"m 140 0 l 140 872 l 444 872 q 670 801 594 872 q 747 614 747 730 q 670 428 747 499 q 444 357 594 357 l 249 357 l 249 0 l 140 0 m 629 0 l 379 396 l 497 396 l 769 0 l 629 0 m 249 433 l 436 433 q 585 482 534 433 q 636 607 636 530 q 587 733 636 686 q 444 779 538 779 l 249 779 l 249 433 m 385 985 l 331 1029 l 564 1273 l 640 1211 l 385 985 z "},"Ř":{"ha":851,"x_min":140,"x_max":769,"o":"m 140 0 l 140 872 l 444 872 q 670 801 594 872 q 747 614 747 730 q 670 428 747 499 q 444 357 594 357 l 249 357 l 249 0 l 140 0 m 629 0 l 379 396 l 497 396 l 769 0 l 629 0 m 249 433 l 436 433 q 585 482 534 433 q 636 607 636 530 q 587 733 636 686 q 444 779 538 779 l 249 779 l 249 433 m 428 977 l 208 1192 l 273 1244 l 447 1058 l 409 1058 l 584 1244 l 649 1192 l 428 977 z "},"Ŗ":{"ha":851,"x_min":140,"x_max":769,"o":"m 140 0 l 140 872 l 444 872 q 670 801 594 872 q 747 614 747 730 q 670 428 747 499 q 444 357 594 357 l 249 357 l 249 0 l 140 0 m 629 0 l 379 396 l 497 396 l 769 0 l 629 0 m 249 433 l 436 433 q 585 482 534 433 q 636 607 636 530 q 587 733 636 686 q 444 779 538 779 l 249 779 l 249 433 m 393 -305 l 331 -274 q 393 -234 368 -256 q 427 -181 418 -212 q 385 -164 401 -179 q 370 -124 368 -149 q 390 -83 372 -99 q 435 -67 408 -67 q 488 -90 467 -67 q 507 -153 509 -114 q 477 -235 506 -192 q 393 -305 449 -278 z "},"Ś":{"ha":840,"x_min":96,"x_max":743,"o":"m 419 -17 q 259 15 332 -17 q 142 108 186 47 q 96 261 97 170 l 201 261 q 231 161 201 200 q 310 102 261 122 q 418 83 360 83 q 528 103 481 83 q 600 157 574 124 q 625 229 625 190 q 591 319 625 285 q 490 375 557 353 l 336 429 q 172 518 228 468 q 117 658 117 568 q 195 824 117 760 q 417 888 273 888 q 625 826 550 888 q 711 661 700 765 l 604 661 q 548 755 594 722 q 417 789 501 789 q 283 751 331 789 q 235 654 235 713 q 265 578 235 606 q 360 528 295 550 l 540 465 q 689 378 634 434 q 743 232 743 322 q 706 106 743 163 q 597 17 669 50 q 419 -17 524 -17 m 379 985 l 325 1029 l 558 1273 l 634 1211 l 379 985 z "},"Š":{"ha":840,"x_min":96,"x_max":743,"o":"m 419 -17 q 259 15 332 -17 q 142 108 186 47 q 96 261 97 170 l 201 261 q 231 161 201 200 q 310 102 261 122 q 418 83 360 83 q 528 103 481 83 q 600 157 574 124 q 625 229 625 190 q 591 319 625 285 q 490 375 557 353 l 336 429 q 172 518 228 468 q 117 658 117 568 q 195 824 117 760 q 417 888 273 888 q 625 826 550 888 q 711 661 700 765 l 604 661 q 548 755 594 722 q 417 789 501 789 q 283 751 331 789 q 235 654 235 713 q 265 578 235 606 q 360 528 295 550 l 540 465 q 689 378 634 434 q 743 232 743 322 q 706 106 743 163 q 597 17 669 50 q 419 -17 524 -17 m 422 977 l 202 1192 l 267 1244 l 441 1058 l 403 1058 l 578 1244 l 643 1192 l 422 977 z "},"Ş":{"ha":840,"x_min":96,"x_max":743,"o":"m 419 -17 q 259 15 332 -17 q 142 108 186 47 q 96 261 97 170 l 201 261 q 231 161 201 200 q 310 102 261 122 q 418 83 360 83 q 528 103 481 83 q 600 157 574 124 q 625 229 625 190 q 591 319 625 285 q 490 375 557 353 l 336 429 q 172 518 228 468 q 117 658 117 568 q 195 824 117 760 q 417 888 273 888 q 625 826 550 888 q 711 661 700 765 l 604 661 q 548 755 594 722 q 417 789 501 789 q 283 751 331 789 q 235 654 235 713 q 265 578 235 606 q 360 528 295 550 l 540 465 q 689 378 634 434 q 743 232 743 322 q 706 106 743 163 q 597 17 669 50 q 419 -17 524 -17 m 287 -247 l 306 -201 q 398 -232 357 -228 q 464 -222 439 -236 q 490 -184 488 -208 q 472 -142 492 -160 q 419 -111 451 -124 q 353 -91 388 -99 l 403 39 l 465 33 l 418 -88 l 393 -49 q 498 -83 456 -62 q 561 -129 540 -103 q 579 -189 582 -156 q 545 -252 576 -228 q 469 -284 515 -276 q 374 -282 423 -291 q 287 -247 326 -273 z "},"Ș":{"ha":840,"x_min":96,"x_max":743,"o":"m 419 -17 q 259 15 332 -17 q 142 108 186 47 q 96 261 97 170 l 201 261 q 231 161 201 200 q 310 102 261 122 q 418 83 360 83 q 528 103 481 83 q 600 157 574 124 q 625 229 625 190 q 591 319 625 285 q 490 375 557 353 l 336 429 q 172 518 228 468 q 117 658 117 568 q 195 824 117 760 q 417 888 273 888 q 625 826 550 888 q 711 661 700 765 l 604 661 q 548 755 594 722 q 417 789 501 789 q 283 751 331 789 q 235 654 235 713 q 265 578 235 606 q 360 528 295 550 l 540 465 q 689 378 634 434 q 743 232 743 322 q 706 106 743 163 q 597 17 669 50 q 419 -17 524 -17 m 390 -305 l 328 -274 q 390 -234 365 -256 q 424 -181 415 -212 q 381 -164 398 -179 q 367 -124 365 -149 q 386 -83 368 -99 q 432 -67 405 -67 q 485 -90 464 -67 q 503 -153 506 -114 q 474 -235 502 -192 q 390 -305 445 -278 z "},"ẞ":{"ha":883,"x_min":139,"x_max":831,"o":"m 566 492 q 706 462 647 492 q 798 376 765 431 q 831 247 831 321 q 793 101 831 160 q 695 13 755 42 q 571 -17 636 -17 q 491 -11 524 -17 q 408 13 458 -5 l 408 113 q 488 86 453 97 q 567 75 522 75 q 645 94 610 75 q 699 149 679 114 q 719 228 719 183 q 702 317 719 276 q 641 382 685 358 q 512 407 596 407 l 440 407 l 440 469 l 611 779 l 247 779 l 247 0 l 139 0 l 139 872 l 740 872 l 740 799 l 566 492 z "},"Ŧ":{"ha":695,"x_min":8,"x_max":688,"o":"m 113 381 l 113 469 l 579 469 l 579 381 l 113 381 m 8 779 l 8 872 l 688 872 l 688 779 l 377 779 l 401 804 l 401 0 l 293 0 l 293 804 l 317 779 l 8 779 z "},"Ť":{"ha":695,"x_min":8,"x_max":688,"o":"m 8 779 l 8 872 l 688 872 l 688 779 l 377 779 l 401 804 l 401 0 l 293 0 l 293 804 l 317 779 l 8 779 m 350 977 l 130 1192 l 195 1244 l 369 1058 l 331 1058 l 506 1244 l 571 1192 l 350 977 z "},"Ţ":{"ha":695,"x_min":8,"x_max":688,"o":"m 8 779 l 8 872 l 688 872 l 688 779 l 377 779 l 401 804 l 401 0 l 293 0 l 293 804 l 317 779 l 8 779 m 188 -255 l 207 -209 q 299 -240 258 -236 q 365 -230 340 -244 q 392 -192 390 -216 q 373 -149 394 -167 q 321 -119 353 -131 q 255 -99 289 -106 l 304 31 l 366 26 l 319 -96 l 294 -56 q 399 -90 357 -70 q 463 -137 442 -110 q 481 -197 483 -163 q 447 -260 478 -236 q 370 -291 416 -284 q 276 -290 324 -299 q 188 -255 227 -281 z "},"Ț":{"ha":695,"x_min":8,"x_max":688,"o":"m 8 779 l 8 872 l 688 872 l 688 779 l 377 779 l 401 804 l 401 0 l 293 0 l 293 804 l 317 779 l 8 779 m 291 -312 l 229 -281 q 291 -242 266 -263 q 325 -188 316 -220 q 283 -172 299 -187 q 268 -131 266 -156 q 288 -91 269 -107 q 333 -74 306 -74 q 386 -98 365 -74 q 405 -160 407 -122 q 375 -242 403 -199 q 291 -312 347 -285 z "},"Ŭ":{"ha":907,"x_min":121,"x_max":783,"o":"m 121 872 l 229 872 l 229 315 q 291 138 229 192 q 453 83 353 83 q 614 138 552 83 q 675 315 675 192 l 675 872 l 783 872 l 783 315 q 743 132 783 206 q 628 20 702 58 q 453 -17 553 -17 q 277 20 352 -17 q 162 132 203 58 q 121 315 121 206 l 121 872 m 453 1008 q 313 1058 365 1008 q 260 1185 260 1108 l 351 1185 q 379 1110 351 1137 q 453 1083 407 1083 q 528 1110 501 1083 q 556 1185 556 1137 l 647 1185 q 594 1058 647 1108 q 453 1008 542 1008 z "},"Ű":{"ha":907,"x_min":121,"x_max":783,"o":"m 121 872 l 229 872 l 229 315 q 291 138 229 192 q 453 83 353 83 q 614 138 552 83 q 675 315 675 192 l 675 872 l 783 872 l 783 315 q 743 132 783 206 q 628 20 702 58 q 453 -17 553 -17 q 277 20 352 -17 q 162 132 203 58 q 121 315 121 206 l 121 872 m 553 967 l 494 976 l 514 1203 l 598 1188 l 553 967 m 390 973 l 330 980 l 341 1208 l 426 1197 l 390 973 z "},"Ū":{"ha":907,"x_min":121,"x_max":783,"o":"m 121 872 l 229 872 l 229 315 q 291 138 229 192 q 453 83 353 83 q 614 138 552 83 q 675 315 675 192 l 675 872 l 783 872 l 783 315 q 743 132 783 206 q 628 20 702 58 q 453 -17 553 -17 q 277 20 352 -17 q 162 132 203 58 q 121 315 121 206 l 121 872 m 237 1110 l 671 1110 l 671 1019 l 237 1019 l 237 1110 z "},"Ų":{"ha":907,"x_min":121,"x_max":783,"o":"m 121 872 l 229 872 l 229 315 q 291 138 229 192 q 453 83 353 83 q 614 138 552 83 q 675 315 675 192 l 675 872 l 783 872 l 783 315 q 743 132 783 206 q 628 20 702 58 q 453 -17 553 -17 q 277 20 352 -17 q 162 132 203 58 q 121 315 121 206 l 121 872 m 663 -231 q 572 -268 619 -255 q 481 -281 524 -281 q 370 -250 412 -281 q 329 -164 329 -219 q 373 -58 329 -109 q 506 27 417 -6 l 576 0 q 453 -67 498 -32 q 408 -143 408 -102 q 433 -189 408 -174 q 493 -203 458 -203 q 559 -193 525 -203 q 636 -159 594 -182 l 663 -231 z "},"Ů":{"ha":907,"x_min":121,"x_max":783,"o":"m 121 872 l 229 872 l 229 315 q 291 138 229 192 q 453 83 353 83 q 614 138 552 83 q 675 315 675 192 l 675 872 l 783 872 l 783 315 q 743 132 783 206 q 628 20 702 58 q 453 -17 553 -17 q 277 20 352 -17 q 162 132 203 58 q 121 315 121 206 l 121 872 m 453 950 q 384 969 415 950 q 333 1019 352 988 q 315 1089 315 1051 q 333 1159 315 1127 q 384 1209 352 1190 q 453 1228 415 1228 q 523 1209 492 1228 q 574 1159 555 1190 q 593 1089 593 1127 q 574 1019 593 1051 q 523 969 555 988 q 453 950 492 950 m 453 1028 q 498 1045 480 1028 q 515 1089 515 1063 q 498 1133 515 1115 q 453 1151 480 1151 q 410 1133 428 1151 q 392 1089 392 1115 q 410 1045 392 1063 q 453 1028 428 1028 z "},"Ẃ":{"ha":1242,"x_min":19,"x_max":1221,"o":"m 19 872 l 142 872 l 368 96 l 336 96 l 568 782 l 642 782 l 871 101 l 840 101 l 1100 872 l 1221 872 l 913 0 l 799 0 l 597 592 l 618 592 l 410 0 l 296 0 l 19 872 m 575 997 l 521 1040 l 754 1284 l 830 1222 l 575 997 z "},"Ŵ":{"ha":1242,"x_min":19,"x_max":1221,"o":"m 19 872 l 142 872 l 368 96 l 336 96 l 568 782 l 642 782 l 871 101 l 840 101 l 1100 872 l 1221 872 l 913 0 l 799 0 l 597 592 l 618 592 l 410 0 l 296 0 l 19 872 m 460 971 l 395 1022 l 615 1238 l 836 1022 l 772 971 l 597 1148 l 634 1148 l 460 971 z "},"Ẅ":{"ha":1242,"x_min":19,"x_max":1221,"o":"m 19 872 l 142 872 l 368 96 l 336 96 l 568 782 l 642 782 l 871 101 l 840 101 l 1100 872 l 1221 872 l 913 0 l 799 0 l 597 592 l 618 592 l 410 0 l 296 0 l 19 872 m 731 1010 q 680 1030 701 1010 q 659 1079 659 1050 q 680 1129 659 1108 q 731 1150 701 1150 q 784 1129 763 1150 q 805 1079 805 1108 q 784 1030 805 1050 q 731 1010 763 1010 m 499 1010 q 448 1030 468 1010 q 427 1078 427 1050 q 448 1128 427 1108 q 499 1149 468 1149 q 552 1128 531 1149 q 573 1078 573 1108 q 552 1030 573 1050 q 499 1010 531 1010 z "},"Ẁ":{"ha":1242,"x_min":19,"x_max":1221,"o":"m 19 872 l 142 872 l 368 96 l 336 96 l 568 782 l 642 782 l 871 101 l 840 101 l 1100 872 l 1221 872 l 913 0 l 799 0 l 597 592 l 618 592 l 410 0 l 296 0 l 19 872 m 719 1001 l 464 1226 l 540 1288 l 773 1044 l 719 1001 z "},"Ý":{"ha":762,"x_min":13,"x_max":749,"o":"m 13 872 l 143 872 l 393 449 l 365 449 l 619 872 l 749 872 l 433 358 l 433 0 l 324 0 l 324 358 l 13 872 m 340 985 l 286 1029 l 519 1273 l 595 1211 l 340 985 z "},"Ŷ":{"ha":762,"x_min":13,"x_max":749,"o":"m 13 872 l 143 872 l 393 449 l 365 449 l 619 872 l 749 872 l 433 358 l 433 0 l 324 0 l 324 358 l 13 872 m 226 960 l 160 1011 l 381 1227 l 601 1011 l 537 960 l 362 1137 l 399 1137 l 226 960 z "},"Ÿ":{"ha":762,"x_min":13,"x_max":749,"o":"m 13 872 l 143 872 l 393 449 l 365 449 l 619 872 l 749 872 l 433 358 l 433 0 l 324 0 l 324 358 l 13 872 m 497 999 q 445 1019 467 999 q 424 1068 424 1039 q 445 1118 424 1097 q 497 1139 467 1139 q 549 1118 528 1139 q 570 1068 570 1097 q 549 1019 570 1039 q 497 999 528 999 m 265 999 q 213 1019 233 999 q 192 1067 192 1039 q 213 1117 192 1097 q 265 1138 233 1138 q 317 1117 296 1138 q 338 1067 338 1097 q 317 1019 338 1039 q 265 999 296 999 z "},"Ỳ":{"ha":762,"x_min":13,"x_max":749,"o":"m 13 872 l 143 872 l 393 449 l 365 449 l 619 872 l 749 872 l 433 358 l 433 0 l 324 0 l 324 358 l 13 872 m 484 990 l 229 1215 l 305 1277 l 538 1033 l 484 990 z "},"Ź":{"ha":822,"x_min":101,"x_max":742,"o":"m 101 0 l 101 97 l 636 810 l 636 769 l 101 774 l 101 872 l 742 872 l 742 775 l 224 85 l 215 103 l 742 99 l 742 0 l 101 0 m 393 985 l 339 1029 l 572 1273 l 648 1211 l 393 985 z "},"Ž":{"ha":822,"x_min":101,"x_max":742,"o":"m 101 0 l 101 97 l 636 810 l 636 769 l 101 774 l 101 872 l 742 872 l 742 775 l 224 85 l 215 103 l 742 99 l 742 0 l 101 0 m 436 977 l 216 1192 l 281 1244 l 455 1058 l 417 1058 l 592 1244 l 657 1192 l 436 977 z "},"Ż":{"ha":822,"x_min":101,"x_max":742,"o":"m 101 0 l 101 97 l 636 810 l 636 769 l 101 774 l 101 872 l 742 872 l 742 775 l 224 85 l 215 103 l 742 99 l 742 0 l 101 0 m 434 1005 q 377 1027 400 1005 q 355 1081 355 1049 q 377 1136 355 1113 q 434 1159 400 1159 q 492 1136 468 1159 q 515 1081 515 1113 q 492 1027 515 1049 q 434 1005 468 1005 z "},"ă":{"ha":765,"x_min":83,"x_max":646,"o":"m 551 0 l 538 146 l 538 431 q 499 559 538 520 q 385 599 461 599 q 307 586 342 599 q 251 548 272 574 q 231 481 231 522 l 110 481 q 145 597 110 553 q 243 661 181 641 q 385 681 305 681 q 520 655 461 681 q 613 573 579 629 q 646 428 646 517 l 646 0 l 551 0 m 325 -17 q 190 13 243 -17 q 110 88 136 42 q 83 186 83 135 q 117 296 83 253 q 209 358 151 338 q 340 378 267 378 q 445 367 392 378 q 547 339 497 357 l 547 271 q 453 297 506 288 q 357 307 401 307 q 244 280 290 307 q 199 186 199 252 q 234 103 199 138 q 346 68 269 68 q 443 93 400 68 q 512 157 487 119 q 538 233 538 195 l 564 233 q 535 110 564 167 q 453 18 506 53 q 325 -17 399 -17 m 382 800 q 241 850 294 800 q 189 977 189 900 l 279 977 q 307 901 279 928 q 382 874 335 874 q 457 901 429 874 q 485 977 485 928 l 575 977 q 523 850 575 900 q 382 800 470 800 z "},"ā":{"ha":765,"x_min":83,"x_max":646,"o":"m 551 0 l 538 146 l 538 431 q 499 559 538 520 q 385 599 461 599 q 307 586 342 599 q 251 548 272 574 q 231 481 231 522 l 110 481 q 145 597 110 553 q 243 661 181 641 q 385 681 305 681 q 520 655 461 681 q 613 573 579 629 q 646 428 646 517 l 646 0 l 551 0 m 325 -17 q 190 13 243 -17 q 110 88 136 42 q 83 186 83 135 q 117 296 83 253 q 209 358 151 338 q 340 378 267 378 q 445 367 392 378 q 547 339 497 357 l 547 271 q 453 297 506 288 q 357 307 401 307 q 244 280 290 307 q 199 186 199 252 q 234 103 199 138 q 346 68 269 68 q 443 93 400 68 q 512 157 487 119 q 538 233 538 195 l 564 233 q 535 110 564 167 q 453 18 506 53 q 325 -17 399 -17 m 165 901 l 599 901 l 599 811 l 165 811 l 165 901 z "},"ą":{"ha":765,"x_min":83,"x_max":733,"o":"m 551 0 l 538 146 l 538 431 q 499 559 538 520 q 385 599 461 599 q 307 586 342 599 q 251 548 272 574 q 231 481 231 522 l 110 481 q 145 597 110 553 q 243 661 181 641 q 385 681 305 681 q 520 655 461 681 q 613 573 579 629 q 646 428 646 517 l 646 0 l 551 0 m 325 -17 q 190 13 243 -17 q 110 88 136 42 q 83 186 83 135 q 117 296 83 253 q 209 358 151 338 q 340 378 267 378 q 445 367 392 378 q 547 339 497 357 l 547 271 q 453 297 506 288 q 357 307 401 307 q 244 280 290 307 q 199 186 199 252 q 234 103 199 138 q 346 68 269 68 q 443 93 400 68 q 512 157 487 119 q 538 233 538 195 l 564 233 q 535 110 564 167 q 453 18 506 53 q 325 -17 399 -17 m 733 -231 q 642 -268 690 -255 q 551 -281 594 -281 q 441 -250 482 -281 q 399 -164 399 -219 q 443 -58 399 -109 q 576 27 488 -6 l 646 0 q 523 -67 568 -32 q 478 -143 478 -102 q 503 -189 478 -174 q 563 -203 528 -203 q 630 -193 595 -203 q 706 -159 664 -182 l 733 -231 z "},"å":{"ha":765,"x_min":83,"x_max":646,"o":"m 551 0 l 538 146 l 538 431 q 499 559 538 520 q 385 599 461 599 q 307 586 342 599 q 251 548 272 574 q 231 481 231 522 l 110 481 q 145 597 110 553 q 243 661 181 641 q 385 681 305 681 q 520 655 461 681 q 613 573 579 629 q 646 428 646 517 l 646 0 l 551 0 m 325 -17 q 190 13 243 -17 q 110 88 136 42 q 83 186 83 135 q 117 296 83 253 q 209 358 151 338 q 340 378 267 378 q 445 367 392 378 q 547 339 497 357 l 547 271 q 453 297 506 288 q 357 307 401 307 q 244 280 290 307 q 199 186 199 252 q 234 103 199 138 q 346 68 269 68 q 443 93 400 68 q 512 157 487 119 q 538 233 538 195 l 564 233 q 535 110 564 167 q 453 18 506 53 q 325 -17 399 -17 m 382 742 q 312 760 344 742 q 262 811 281 779 q 243 881 243 842 q 262 950 243 919 q 312 1001 281 982 q 382 1020 344 1020 q 452 1001 420 1020 q 502 950 483 982 q 522 881 522 919 q 502 811 522 842 q 452 760 483 779 q 382 742 420 742 m 382 819 q 426 837 408 819 q 444 881 444 855 q 426 925 444 907 q 382 942 408 942 q 339 925 356 942 q 321 881 321 907 q 339 837 321 855 q 382 819 356 819 z "},"æ":{"ha":1176,"x_min":83,"x_max":1108,"o":"m 547 210 l 533 210 l 533 431 q 494 559 533 519 q 381 599 455 599 q 305 586 339 599 q 251 548 271 574 q 231 481 231 522 l 110 481 q 145 597 110 553 q 238 661 181 641 q 362 681 296 681 q 501 652 444 681 q 590 564 559 623 q 620 416 620 506 l 620 273 l 547 210 m 319 -17 q 192 11 245 -17 q 111 85 140 38 q 83 190 83 132 q 117 296 83 254 q 207 358 150 338 q 333 378 264 378 q 440 367 387 378 q 542 339 494 356 l 542 271 q 448 297 501 288 q 353 307 394 307 q 244 279 289 307 q 199 189 199 251 q 233 103 199 138 q 335 68 267 68 q 438 93 393 68 q 507 156 482 118 q 533 233 533 194 l 603 233 q 569 114 603 171 q 470 20 534 56 q 319 -17 407 -17 m 840 -17 q 682 28 750 -17 q 575 153 613 74 q 536 335 536 233 q 574 515 536 437 q 680 637 613 593 q 835 681 747 681 q 963 650 910 681 q 1049 567 1017 619 q 1095 450 1082 515 q 1102 314 1108 384 l 622 314 l 622 381 l 1031 381 l 999 360 q 994 442 1001 401 q 969 517 988 483 q 918 572 951 551 q 835 593 885 593 q 729 560 772 593 q 664 475 686 528 q 642 360 642 422 l 642 315 q 663 191 642 246 q 727 104 684 136 q 835 72 770 72 q 939 102 897 72 q 991 196 982 133 l 1103 196 q 1057 83 1094 131 q 964 9 1020 35 q 840 -17 908 -17 z "},"ć":{"ha":717,"x_min":71,"x_max":640,"o":"m 374 -17 q 225 26 294 -17 q 113 148 156 69 q 71 333 71 226 q 113 521 71 443 q 225 640 156 599 q 374 681 294 681 q 475 664 430 681 q 553 617 519 647 q 608 549 586 587 q 640 469 630 511 l 529 460 q 471 551 512 517 q 372 585 431 585 q 280 557 323 585 q 209 473 236 528 q 182 333 182 417 q 207 200 182 256 q 274 112 231 143 q 372 81 317 81 q 489 118 449 81 q 529 224 529 156 l 640 224 q 608 100 640 154 q 515 15 575 46 q 374 -17 455 -17 m 332 777 l 278 821 l 511 1065 l 587 1003 l 332 777 z "},"č":{"ha":717,"x_min":71,"x_max":640,"o":"m 374 -17 q 225 26 294 -17 q 113 148 156 69 q 71 333 71 226 q 113 521 71 443 q 225 640 156 599 q 374 681 294 681 q 475 664 430 681 q 553 617 519 647 q 608 549 586 587 q 640 469 630 511 l 529 460 q 471 551 512 517 q 372 585 431 585 q 280 557 323 585 q 209 473 236 528 q 182 333 182 417 q 207 200 182 256 q 274 112 231 143 q 372 81 317 81 q 489 118 449 81 q 529 224 529 156 l 640 224 q 608 100 640 154 q 515 15 575 46 q 374 -17 455 -17 m 375 769 l 155 984 l 220 1035 l 394 849 l 356 849 l 531 1035 l 596 984 l 375 769 z "},"ç":{"ha":717,"x_min":71,"x_max":640,"o":"m 374 -17 q 225 26 294 -17 q 113 148 156 69 q 71 333 71 226 q 113 521 71 443 q 225 640 156 599 q 374 681 294 681 q 475 664 430 681 q 553 617 519 647 q 608 549 586 587 q 640 469 630 511 l 529 460 q 471 551 512 517 q 372 585 431 585 q 280 557 323 585 q 209 473 236 528 q 182 333 182 417 q 207 200 182 256 q 274 112 231 143 q 372 81 317 81 q 489 118 449 81 q 529 224 529 156 l 640 224 q 608 100 640 154 q 515 15 575 46 q 374 -17 455 -17 m 237 -247 l 256 -201 q 348 -232 307 -228 q 414 -222 389 -235 q 440 -183 438 -208 q 422 -141 442 -159 q 369 -110 401 -123 q 303 -90 338 -98 l 353 40 l 415 34 l 368 -87 l 343 -48 q 448 -82 406 -62 q 511 -128 490 -102 q 529 -188 532 -155 q 495 -252 526 -228 q 419 -283 465 -276 q 324 -281 373 -290 q 237 -247 276 -272 z "},"ċ":{"ha":717,"x_min":71,"x_max":640,"o":"m 374 -17 q 225 26 294 -17 q 113 148 156 69 q 71 333 71 226 q 113 521 71 443 q 225 640 156 599 q 374 681 294 681 q 475 664 430 681 q 553 617 519 647 q 608 549 586 587 q 640 469 630 511 l 529 460 q 471 551 512 517 q 372 585 431 585 q 280 557 323 585 q 209 473 236 528 q 182 333 182 417 q 207 200 182 256 q 274 112 231 143 q 372 81 317 81 q 489 118 449 81 q 529 224 529 156 l 640 224 q 608 100 640 154 q 515 15 575 46 q 374 -17 455 -17 m 373 797 q 316 818 339 797 q 294 872 294 840 q 316 928 294 905 q 373 951 339 951 q 431 928 407 951 q 454 872 454 905 q 431 818 454 840 q 373 797 407 797 z "},"ď":{"ha":823,"x_min":82,"x_max":889,"o":"m 378 -17 q 230 27 297 -17 q 122 149 163 70 q 82 335 82 228 q 122 519 82 441 q 227 639 161 597 q 371 681 292 681 q 499 645 444 681 q 585 543 554 610 q 615 382 615 476 l 574 382 q 548 493 574 448 q 480 561 522 538 q 390 585 438 585 q 291 555 336 585 q 220 468 247 524 q 193 335 193 413 q 220 199 193 256 q 291 111 247 142 q 390 81 336 81 q 477 104 435 81 q 547 173 519 128 q 574 283 574 219 l 615 283 q 584 120 615 187 q 498 18 552 53 q 378 -17 444 -17 m 592 0 l 574 156 l 574 947 l 682 947 l 682 0 l 592 0 m 785 719 l 722 750 q 781 789 758 767 q 811 843 804 810 q 767 859 785 844 q 749 899 749 874 q 766 940 749 922 q 811 957 783 957 q 867 932 844 957 q 889 871 889 906 q 864 787 889 828 q 785 719 838 746 z "},"đ":{"ha":823,"x_min":82,"x_max":788,"o":"m 378 -17 q 230 27 297 -17 q 122 149 163 70 q 82 335 82 228 q 122 519 82 441 q 227 639 161 597 q 371 681 292 681 q 499 645 444 681 q 585 543 554 610 q 615 382 615 476 l 574 382 q 548 493 574 448 q 480 561 522 538 q 390 585 438 585 q 291 555 336 585 q 220 468 247 524 q 193 335 193 413 q 220 199 193 256 q 291 111 247 142 q 390 81 336 81 q 477 104 435 81 q 547 173 519 128 q 574 283 574 219 l 615 283 q 584 120 615 187 q 498 18 552 53 q 378 -17 444 -17 m 592 0 l 574 156 l 574 947 l 682 947 l 682 0 l 592 0 m 390 765 l 390 850 l 788 850 l 788 765 l 390 765 z "},"ð":{"ha":779,"x_min":82,"x_max":708,"o":"m 380 -17 q 232 27 299 -17 q 123 149 164 70 q 82 335 82 228 q 122 518 82 441 q 226 638 161 596 q 369 681 292 681 q 503 640 444 681 q 597 528 563 600 q 631 360 631 456 l 590 360 q 559 487 589 438 q 483 561 528 537 q 391 585 438 585 q 291 555 336 585 q 220 468 247 524 q 193 333 193 412 q 219 199 193 256 q 291 111 246 142 q 393 81 336 81 q 496 115 454 81 q 561 210 538 150 q 588 347 584 271 q 576 565 594 461 q 520 760 559 669 q 422 926 481 851 q 285 1057 363 1001 l 369 1124 q 502 988 442 1066 q 605 817 562 909 q 672 626 648 726 q 695 426 695 526 q 671 242 695 324 q 605 103 647 160 q 505 14 562 45 q 380 -17 447 -17 m 308 776 l 274 846 l 675 1040 l 708 970 l 308 776 z "},"ě":{"ha":713,"x_min":71,"x_max":644,"o":"m 371 -17 q 217 27 285 -17 q 110 150 149 72 q 71 331 71 228 q 110 518 71 440 q 216 639 149 597 q 371 681 284 681 q 500 650 447 681 q 586 567 553 619 q 632 450 619 515 q 639 314 644 384 l 158 314 l 158 381 l 567 381 l 535 360 q 531 442 538 401 q 506 517 524 483 q 456 572 488 551 q 372 593 423 593 q 265 560 308 593 q 201 475 222 528 q 179 360 179 422 l 179 315 q 200 191 179 246 q 264 104 222 136 q 371 72 306 72 q 477 103 435 72 q 528 196 519 135 l 640 196 q 593 82 630 130 q 499 9 556 35 q 371 -17 442 -17 m 359 769 l 139 984 l 204 1035 l 378 849 l 340 849 l 515 1035 l 580 984 l 359 769 z "},"ė":{"ha":713,"x_min":71,"x_max":644,"o":"m 371 -17 q 217 27 285 -17 q 110 150 149 72 q 71 331 71 228 q 110 518 71 440 q 216 639 149 597 q 371 681 284 681 q 500 650 447 681 q 586 567 553 619 q 632 450 619 515 q 639 314 644 384 l 158 314 l 158 381 l 567 381 l 535 360 q 531 442 538 401 q 506 517 524 483 q 456 572 488 551 q 372 593 423 593 q 265 560 308 593 q 201 475 222 528 q 179 360 179 422 l 179 315 q 200 191 179 246 q 264 104 222 136 q 371 72 306 72 q 477 103 435 72 q 528 196 519 135 l 640 196 q 593 82 630 130 q 499 9 556 35 q 371 -17 442 -17 m 357 797 q 300 818 323 797 q 278 872 278 840 q 300 928 278 905 q 357 951 323 951 q 415 928 391 951 q 438 872 438 905 q 415 818 438 840 q 357 797 391 797 z "},"ē":{"ha":713,"x_min":71,"x_max":644,"o":"m 371 -17 q 217 27 285 -17 q 110 150 149 72 q 71 331 71 228 q 110 518 71 440 q 216 639 149 597 q 371 681 284 681 q 500 650 447 681 q 586 567 553 619 q 632 450 619 515 q 639 314 644 384 l 158 314 l 158 381 l 567 381 l 535 360 q 531 442 538 401 q 506 517 524 483 q 456 572 488 551 q 372 593 423 593 q 265 560 308 593 q 201 475 222 528 q 179 360 179 422 l 179 315 q 200 191 179 246 q 264 104 222 136 q 371 72 306 72 q 477 103 435 72 q 528 196 519 135 l 640 196 q 593 82 630 130 q 499 9 556 35 q 371 -17 442 -17 m 140 901 l 574 901 l 574 811 l 140 811 l 140 901 z "},"ę":{"ha":713,"x_min":71,"x_max":644,"o":"m 613 -231 q 523 -268 570 -255 q 431 -281 475 -281 q 321 -250 363 -281 q 280 -164 280 -219 q 300 -91 280 -127 q 359 -18 319 -54 q 456 51 398 17 l 526 24 q 437 -37 475 -9 q 379 -90 399 -65 q 358 -143 358 -116 q 384 -189 358 -174 q 444 -203 409 -203 q 510 -193 476 -203 q 587 -159 544 -182 l 613 -231 m 371 -17 q 217 27 285 -17 q 110 150 149 72 q 71 331 71 228 q 110 518 71 440 q 216 639 149 597 q 371 681 284 681 q 500 650 447 681 q 586 567 553 619 q 632 450 619 515 q 639 314 644 384 l 158 314 l 158 381 l 567 381 l 535 360 q 531 442 538 401 q 506 517 524 483 q 456 572 488 551 q 372 593 423 593 q 265 560 308 593 q 201 475 222 528 q 179 360 179 422 l 179 315 q 200 191 179 246 q 264 104 222 136 q 371 72 306 72 q 477 103 435 72 q 528 196 519 135 l 640 196 q 593 82 630 130 q 499 9 556 35 q 371 -17 442 -17 z "},"ğ":{"ha":784,"x_min":40,"x_max":763,"o":"m 375 -342 q 198 -313 273 -342 q 82 -236 123 -284 q 40 -129 40 -187 q 97 -11 40 -52 q 243 29 153 29 l 303 -8 q 187 -40 228 -8 q 146 -125 146 -71 q 204 -217 146 -179 q 375 -254 263 -254 q 521 -230 458 -254 q 619 -168 584 -206 q 654 -85 654 -129 q 631 -31 654 -53 q 561 -8 608 -8 l 303 -8 q 186 12 235 -8 q 111 66 138 33 q 85 139 85 99 q 108 210 85 181 q 170 254 132 239 q 251 269 208 269 l 272 229 q 230 220 251 229 q 195 192 209 210 q 181 146 181 174 q 207 92 181 114 q 303 71 233 71 l 561 71 q 709 31 655 71 q 763 -79 763 -8 q 716 -205 763 -144 q 583 -303 669 -265 q 375 -342 496 -342 m 394 194 q 257 225 318 194 q 159 310 195 256 q 124 438 124 365 q 159 565 124 510 q 257 650 195 620 q 394 681 318 681 q 530 650 469 681 q 626 565 590 620 q 663 438 663 510 q 626 310 663 365 q 530 225 590 256 q 394 194 469 194 m 394 272 q 513 319 471 272 q 556 438 556 367 q 513 556 556 510 q 394 601 471 601 q 275 556 319 601 q 232 438 232 510 q 275 319 232 367 q 394 272 319 272 m 613 575 l 561 596 q 584 698 561 654 q 649 767 607 742 q 750 792 692 792 l 742 685 q 646 658 679 685 q 613 575 613 631 m 392 800 q 252 850 304 800 q 199 977 199 900 l 290 977 q 318 901 290 928 q 392 874 346 874 q 467 901 440 874 q 495 977 495 928 l 585 977 q 533 850 585 900 q 392 800 481 800 z "},"ģ":{"ha":784,"x_min":40,"x_max":763,"o":"m 375 -342 q 198 -313 273 -342 q 82 -236 123 -284 q 40 -129 40 -187 q 97 -11 40 -52 q 243 29 153 29 l 303 -8 q 187 -40 228 -8 q 146 -125 146 -71 q 204 -217 146 -179 q 375 -254 263 -254 q 521 -230 458 -254 q 619 -168 584 -206 q 654 -85 654 -129 q 631 -31 654 -53 q 561 -8 608 -8 l 303 -8 q 186 12 235 -8 q 111 66 138 33 q 85 139 85 99 q 108 210 85 181 q 170 254 132 239 q 251 269 208 269 l 272 229 q 230 220 251 229 q 195 192 209 210 q 181 146 181 174 q 207 92 181 114 q 303 71 233 71 l 561 71 q 709 31 655 71 q 763 -79 763 -8 q 716 -205 763 -144 q 583 -303 669 -265 q 375 -342 496 -342 m 394 194 q 257 225 318 194 q 159 310 195 256 q 124 438 124 365 q 159 565 124 510 q 257 650 195 620 q 394 681 318 681 q 530 650 469 681 q 626 565 590 620 q 663 438 663 510 q 626 310 663 365 q 530 225 590 256 q 394 194 469 194 m 394 272 q 513 319 471 272 q 556 438 556 367 q 513 556 556 510 q 394 601 471 601 q 275 556 319 601 q 232 438 232 510 q 275 319 232 367 q 394 272 319 272 m 613 575 l 561 596 q 584 698 561 654 q 649 767 607 742 q 750 792 692 792 l 742 685 q 646 658 679 685 q 613 575 613 631 m 434 959 l 496 928 q 434 889 459 910 q 400 835 409 867 q 442 818 426 833 q 457 778 459 803 q 437 738 456 754 q 392 721 419 721 q 339 744 360 721 q 320 807 318 768 q 350 889 322 846 q 434 959 379 932 z "},"ġ":{"ha":784,"x_min":40,"x_max":763,"o":"m 375 -342 q 198 -313 273 -342 q 82 -236 123 -284 q 40 -129 40 -187 q 97 -11 40 -52 q 243 29 153 29 l 303 -8 q 187 -40 228 -8 q 146 -125 146 -71 q 204 -217 146 -179 q 375 -254 263 -254 q 521 -230 458 -254 q 619 -168 584 -206 q 654 -85 654 -129 q 631 -31 654 -53 q 561 -8 608 -8 l 303 -8 q 186 12 235 -8 q 111 66 138 33 q 85 139 85 99 q 108 210 85 181 q 170 254 132 239 q 251 269 208 269 l 272 229 q 230 220 251 229 q 195 192 209 210 q 181 146 181 174 q 207 92 181 114 q 303 71 233 71 l 561 71 q 709 31 655 71 q 763 -79 763 -8 q 716 -205 763 -144 q 583 -303 669 -265 q 375 -342 496 -342 m 394 194 q 257 225 318 194 q 159 310 195 256 q 124 438 124 365 q 159 565 124 510 q 257 650 195 620 q 394 681 318 681 q 530 650 469 681 q 626 565 590 620 q 663 438 663 510 q 626 310 663 365 q 530 225 590 256 q 394 194 469 194 m 394 272 q 513 319 471 272 q 556 438 556 367 q 513 556 556 510 q 394 601 471 601 q 275 556 319 601 q 232 438 232 510 q 275 319 232 367 q 394 272 319 272 m 613 575 l 561 596 q 584 698 561 654 q 649 767 607 742 q 750 792 692 792 l 742 685 q 646 658 679 685 q 613 575 613 631 m 392 797 q 336 818 358 797 q 313 872 313 840 q 336 928 313 905 q 392 951 358 951 q 450 928 426 951 q 474 872 474 905 q 450 818 474 840 q 392 797 426 797 z "},"ħ":{"ha":838,"x_min":34,"x_max":719,"o":"m 613 0 l 613 390 q 567 535 613 485 q 443 585 522 585 q 340 552 383 585 q 272 459 296 519 q 249 314 249 398 l 207 314 q 238 512 207 430 q 327 637 268 594 q 469 681 385 681 q 604 645 548 681 q 690 545 660 610 q 719 390 719 480 l 719 0 l 613 0 m 140 0 l 140 947 l 249 947 l 249 0 l 140 0 m 34 765 l 34 850 l 433 850 l 433 765 l 34 765 z "},"ı":{"ha":414,"x_min":147,"x_max":256,"o":"m 147 0 l 147 665 l 256 665 l 256 0 l 147 0 z "},"ī":{"ha":414,"x_min":58,"x_max":344,"o":"m 147 0 l 147 665 l 256 665 l 256 0 l 147 0 m 58 901 l 344 901 l 344 811 l 58 811 l 58 901 z "},"į":{"ha":414,"x_min":8,"x_max":342,"o":"m 147 0 l 147 665 l 256 665 l 256 0 l 147 0 m 201 797 q 144 818 167 797 q 122 872 122 840 q 144 928 122 905 q 201 951 167 951 q 258 928 235 951 q 282 872 282 905 q 258 818 282 840 q 201 797 235 797 m 342 -231 q 251 -268 299 -255 q 160 -281 203 -281 q 50 -250 91 -281 q 8 -164 8 -219 q 52 -58 8 -109 q 185 27 97 -6 l 255 0 q 132 -67 177 -32 q 87 -143 87 -102 q 112 -189 87 -174 q 172 -203 138 -203 q 239 -193 204 -203 q 315 -159 273 -182 l 342 -231 z "},"ĳ":{"ha":849,"x_min":129,"x_max":708,"o":"m 201 821 q 149 840 168 821 q 129 890 129 859 q 149 939 129 921 q 201 957 168 957 q 254 939 235 957 q 274 890 274 921 q 254 840 274 859 q 201 821 235 821 m 147 0 l 147 665 l 256 665 l 256 0 l 147 0 m 636 821 q 584 840 603 821 q 565 890 565 859 q 584 939 565 921 q 636 957 603 957 q 689 939 669 957 q 708 890 708 921 q 689 840 708 859 q 636 821 669 821 m 481 -342 q 388 -329 433 -342 q 294 -290 342 -316 l 300 -196 q 380 -233 341 -219 q 461 -247 419 -247 q 551 -210 519 -247 q 583 -93 583 -172 l 583 667 l 690 667 l 690 -94 q 632 -284 690 -226 q 481 -342 574 -342 z "},"ȷ":{"ha":435,"x_min":-119,"x_max":276,"o":"m 67 -342 q -26 -329 19 -342 q -119 -290 -72 -316 l -114 -196 q -34 -233 -73 -219 q 47 -247 6 -247 q 138 -210 106 -247 q 169 -93 169 -172 l 169 667 l 276 667 l 276 -94 q 218 -284 276 -226 q 67 -342 160 -342 z "},"ķ":{"ha":783,"x_min":140,"x_max":738,"o":"m 140 0 l 140 947 l 249 947 l 249 0 l 140 0 m 232 381 l 571 664 l 722 664 l 232 265 l 232 381 m 604 0 l 289 419 l 399 439 l 738 0 l 604 0 m 359 -305 l 297 -274 q 359 -234 334 -256 q 393 -181 384 -212 q 351 -164 367 -179 q 336 -124 334 -149 q 356 -83 338 -99 q 401 -67 374 -67 q 454 -90 433 -67 q 473 -153 475 -114 q 443 -235 472 -192 q 359 -305 415 -278 z "},"ĺ":{"ha":389,"x_min":99,"x_max":408,"o":"m 140 0 l 140 947 l 249 947 l 249 0 l 140 0 m 153 1068 l 99 1112 l 333 1356 l 408 1294 l 153 1068 z "},"ľ":{"ha":389,"x_min":140,"x_max":456,"o":"m 140 0 l 140 947 l 249 947 l 249 0 l 140 0 m 352 719 l 288 750 q 348 789 324 767 q 378 843 371 810 q 334 859 352 844 q 316 899 316 874 q 333 940 316 922 q 378 957 350 957 q 433 932 411 957 q 456 871 456 906 q 430 787 456 828 q 352 719 405 746 z "},"ļ":{"ha":389,"x_min":100,"x_max":278,"o":"m 140 0 l 140 947 l 249 947 l 249 0 l 140 0 m 162 -305 l 100 -274 q 162 -234 137 -256 q 196 -181 187 -212 q 153 -164 170 -179 q 139 -124 137 -149 q 159 -83 140 -99 q 204 -67 177 -67 q 257 -90 236 -67 q 276 -153 278 -114 q 246 -235 274 -192 q 162 -305 217 -278 z "},"ł":{"ha":389,"x_min":31,"x_max":383,"o":"m 45 506 l 31 579 l 369 637 l 383 563 l 45 506 m 140 0 l 140 947 l 249 947 l 249 0 l 140 0 z "},"ń":{"ha":838,"x_min":140,"x_max":719,"o":"m 613 0 l 613 390 q 567 535 613 485 q 443 585 522 585 q 340 552 383 585 q 272 459 296 519 q 249 314 249 398 l 207 314 q 238 512 207 430 q 327 637 268 594 q 469 681 385 681 q 604 645 548 681 q 690 545 660 610 q 719 390 719 480 l 719 0 l 613 0 m 140 0 l 140 664 l 233 664 l 249 511 l 249 0 l 140 0 m 397 787 l 343 831 l 576 1074 l 652 1013 l 397 787 z "},"ň":{"ha":838,"x_min":140,"x_max":719,"o":"m 613 0 l 613 390 q 567 535 613 485 q 443 585 522 585 q 340 552 383 585 q 272 459 296 519 q 249 314 249 398 l 207 314 q 238 512 207 430 q 327 637 268 594 q 469 681 385 681 q 604 645 548 681 q 690 545 660 610 q 719 390 719 480 l 719 0 l 613 0 m 140 0 l 140 664 l 233 664 l 249 511 l 249 0 l 140 0 m 440 778 l 220 994 l 285 1045 l 459 859 l 422 859 l 597 1045 l 661 994 l 440 778 z "},"ņ":{"ha":838,"x_min":140,"x_max":719,"o":"m 613 0 l 613 390 q 567 535 613 485 q 443 585 522 585 q 340 552 383 585 q 272 459 296 519 q 249 314 249 398 l 207 314 q 238 512 207 430 q 327 637 268 594 q 469 681 385 681 q 604 645 548 681 q 690 545 660 610 q 719 390 719 480 l 719 0 l 613 0 m 140 0 l 140 664 l 233 664 l 249 511 l 249 0 l 140 0 m 387 -305 l 325 -274 q 387 -234 362 -256 q 421 -181 412 -212 q 378 -164 395 -179 q 364 -124 362 -149 q 384 -83 365 -99 q 429 -67 402 -67 q 482 -90 461 -67 q 501 -153 503 -114 q 471 -235 499 -192 q 387 -305 442 -278 z "},"ŋ":{"ha":861,"x_min":140,"x_max":720,"o":"m 510 -342 q 417 -329 462 -342 q 324 -290 372 -316 l 330 -196 q 409 -233 370 -219 q 490 -247 449 -247 q 581 -210 549 -247 q 613 -93 613 -172 l 613 366 l 720 366 l 720 -94 q 662 -284 720 -226 q 510 -342 604 -342 m 613 0 l 613 390 q 567 535 613 485 q 443 585 522 585 q 340 552 383 585 q 272 459 296 519 q 249 314 249 398 l 207 314 q 238 512 207 430 q 327 637 268 594 q 469 681 385 681 q 604 645 548 681 q 690 545 660 610 q 719 390 719 480 l 719 0 l 613 0 m 140 0 l 140 664 l 233 664 l 249 511 l 249 0 l 140 0 z "},"ő":{"ha":759,"x_min":71,"x_max":689,"o":"m 381 -17 q 221 23 291 -17 q 111 140 151 63 q 71 332 71 218 q 111 524 71 447 q 221 641 151 601 q 381 681 291 681 q 539 641 469 681 q 649 524 609 601 q 689 332 689 447 q 649 140 689 218 q 539 23 609 63 q 381 -17 469 -17 m 378 78 q 488 109 442 78 q 556 197 533 140 q 579 332 579 253 q 530 519 579 451 q 383 588 481 588 q 273 557 318 588 q 205 468 228 526 q 182 332 182 411 q 232 146 182 215 q 378 78 281 78 m 480 759 l 421 768 l 440 994 l 524 979 l 480 759 m 317 765 l 256 772 l 267 999 l 353 988 l 317 765 z "},"ō":{"ha":759,"x_min":71,"x_max":689,"o":"m 381 -17 q 221 23 291 -17 q 111 140 151 63 q 71 332 71 218 q 111 524 71 447 q 221 641 151 601 q 381 681 291 681 q 539 641 469 681 q 649 524 609 601 q 689 332 689 447 q 649 140 689 218 q 539 23 609 63 q 381 -17 469 -17 m 378 78 q 488 109 442 78 q 556 197 533 140 q 579 332 579 253 q 530 519 579 451 q 383 588 481 588 q 273 557 318 588 q 205 468 228 526 q 182 332 182 411 q 232 146 182 215 q 378 78 281 78 m 163 901 l 597 901 l 597 811 l 163 811 l 163 901 z "},"ø":{"ha":759,"x_min":61,"x_max":712,"o":"m 61 0 l 610 665 l 712 665 l 160 0 l 61 0 m 381 -17 q 221 23 291 -17 q 111 140 151 63 q 71 332 71 218 q 111 524 71 447 q 221 641 151 601 q 381 681 291 681 q 539 641 469 681 q 649 524 609 601 q 689 332 689 447 q 649 140 689 218 q 539 23 609 63 q 381 -17 469 -17 m 378 78 q 488 109 442 78 q 556 197 533 140 q 579 332 579 253 q 530 519 579 451 q 383 588 481 588 q 273 557 318 588 q 205 468 228 526 q 182 332 182 411 q 232 146 182 215 q 378 78 281 78 z "},"œ":{"ha":1171,"x_min":71,"x_max":1102,"o":"m 366 -17 q 214 23 281 -17 q 109 140 147 63 q 71 332 71 218 q 109 524 71 447 q 214 641 147 601 q 366 681 281 681 q 517 641 451 681 q 622 524 583 601 q 660 332 660 447 q 622 140 660 218 q 517 23 583 63 q 366 -17 451 -17 m 363 78 q 468 109 425 78 q 533 197 510 140 q 555 332 555 253 q 508 519 555 451 q 369 588 461 588 q 264 557 306 588 q 199 468 221 526 q 177 332 177 411 q 224 146 177 215 q 363 78 271 78 m 842 -17 q 694 27 759 -17 q 593 150 630 72 q 556 331 556 228 q 593 518 556 440 q 694 639 630 597 q 842 681 759 681 q 964 650 913 681 q 1047 567 1015 619 q 1090 450 1078 515 q 1097 314 1102 384 l 639 314 l 639 381 l 1028 381 l 998 360 q 994 442 1000 401 q 970 517 988 483 q 922 572 953 551 q 842 593 891 593 q 741 560 782 593 q 680 475 700 528 q 659 360 659 422 l 659 315 q 679 191 659 246 q 739 104 699 136 q 842 72 780 72 q 942 103 903 72 q 991 196 982 135 l 1098 196 q 1053 82 1088 130 q 964 9 1018 35 q 842 -17 910 -17 z "},"þ":{"ha":833,"x_min":140,"x_max":740,"o":"m 442 -17 q 315 17 369 -17 q 232 114 261 50 q 203 271 203 178 l 249 271 q 274 167 249 209 q 341 102 300 124 q 429 81 383 81 q 525 109 479 81 q 600 194 571 138 q 629 333 629 251 q 602 469 629 413 q 531 555 576 525 q 431 585 485 585 q 342 562 383 585 q 274 495 300 539 q 249 386 249 451 l 203 386 q 235 548 203 483 q 322 647 267 614 q 444 681 376 681 q 590 639 522 681 q 699 519 657 597 q 740 333 740 442 q 698 145 740 224 q 588 25 656 67 q 442 -17 520 -17 m 140 -326 l 140 872 l 249 872 l 249 -326 l 140 -326 z "},"ŕ":{"ha":502,"x_min":140,"x_max":537,"o":"m 140 0 l 140 665 l 249 665 l 249 0 l 140 0 m 215 300 q 240 510 215 426 q 311 635 264 594 q 425 676 358 676 q 466 673 447 676 q 503 664 484 670 l 496 557 q 453 568 476 563 q 413 572 431 572 q 317 539 353 572 q 265 444 281 505 q 249 300 249 383 l 215 300 m 282 777 l 228 821 l 461 1065 l 537 1003 l 282 777 z "},"ř":{"ha":502,"x_min":105,"x_max":546,"o":"m 140 0 l 140 665 l 249 665 l 249 0 l 140 0 m 215 300 q 240 510 215 426 q 311 635 264 594 q 425 676 358 676 q 466 673 447 676 q 503 664 484 670 l 496 557 q 453 568 476 563 q 413 572 431 572 q 317 539 353 572 q 265 444 281 505 q 249 300 249 383 l 215 300 m 325 769 l 105 984 l 170 1035 l 344 849 l 306 849 l 481 1035 l 546 984 l 325 769 z "},"ŗ":{"ha":502,"x_min":140,"x_max":503,"o":"m 140 0 l 140 665 l 249 665 l 249 0 l 140 0 m 215 300 q 240 510 215 426 q 311 635 264 594 q 425 676 358 676 q 466 673 447 676 q 503 664 484 670 l 496 557 q 453 568 476 563 q 413 572 431 572 q 317 539 353 572 q 265 444 281 505 q 249 300 249 383 l 215 300 m 295 -300 l 233 -269 q 295 -229 270 -251 q 329 -176 320 -208 q 287 -159 303 -174 q 272 -119 270 -144 q 292 -78 274 -94 q 338 -62 310 -62 q 390 -85 369 -62 q 409 -148 411 -109 q 379 -230 408 -187 q 295 -300 351 -273 z "},"ś":{"ha":730,"x_min":85,"x_max":646,"o":"m 379 -17 q 218 11 283 -17 q 120 86 153 38 q 85 197 87 135 l 189 197 q 240 102 192 134 q 369 71 288 71 q 449 85 413 71 q 506 123 485 99 q 528 178 528 147 q 499 239 528 217 q 408 278 471 261 l 279 319 q 150 392 195 346 q 106 503 106 438 q 176 632 106 583 q 363 681 247 681 q 552 631 485 681 q 622 506 619 581 l 515 506 q 471 572 509 549 q 363 594 433 594 q 257 564 295 594 q 219 497 219 534 q 338 396 219 428 l 469 351 q 600 284 555 326 q 646 178 646 242 q 613 83 646 128 q 521 11 581 39 q 379 -17 461 -17 m 324 777 l 270 821 l 503 1065 l 579 1003 l 324 777 z "},"š":{"ha":730,"x_min":85,"x_max":646,"o":"m 379 -17 q 218 11 283 -17 q 120 86 153 38 q 85 197 87 135 l 189 197 q 240 102 192 134 q 369 71 288 71 q 449 85 413 71 q 506 123 485 99 q 528 178 528 147 q 499 239 528 217 q 408 278 471 261 l 279 319 q 150 392 195 346 q 106 503 106 438 q 176 632 106 583 q 363 681 247 681 q 552 631 485 681 q 622 506 619 581 l 515 506 q 471 572 509 549 q 363 594 433 594 q 257 564 295 594 q 219 497 219 534 q 338 396 219 428 l 469 351 q 600 284 555 326 q 646 178 646 242 q 613 83 646 128 q 521 11 581 39 q 379 -17 461 -17 m 367 769 l 147 984 l 213 1035 l 386 849 l 349 849 l 524 1035 l 588 984 l 367 769 z "},"ş":{"ha":730,"x_min":85,"x_max":646,"o":"m 379 -17 q 218 11 283 -17 q 120 86 153 38 q 85 197 87 135 l 189 197 q 240 102 192 134 q 369 71 288 71 q 449 85 413 71 q 506 123 485 99 q 528 178 528 147 q 499 239 528 217 q 408 278 471 261 l 279 319 q 150 392 195 346 q 106 503 106 438 q 176 632 106 583 q 363 681 247 681 q 552 631 485 681 q 622 506 619 581 l 515 506 q 471 572 509 549 q 363 594 433 594 q 257 564 295 594 q 219 497 219 534 q 338 396 219 428 l 469 351 q 600 284 555 326 q 646 178 646 242 q 613 83 646 128 q 521 11 581 39 q 379 -17 461 -17 m 236 -247 l 255 -201 q 347 -232 306 -228 q 413 -222 388 -235 q 440 -183 438 -208 q 421 -141 442 -159 q 369 -110 401 -123 q 303 -90 337 -98 l 352 40 l 414 34 l 367 -87 l 342 -48 q 447 -82 405 -62 q 510 -128 490 -102 q 528 -188 531 -155 q 495 -252 526 -228 q 418 -283 464 -276 q 324 -281 372 -290 q 236 -247 275 -272 z "},"ș":{"ha":730,"x_min":85,"x_max":646,"o":"m 379 -17 q 218 11 283 -17 q 120 86 153 38 q 85 197 87 135 l 189 197 q 240 102 192 134 q 369 71 288 71 q 449 85 413 71 q 506 123 485 99 q 528 178 528 147 q 499 239 528 217 q 408 278 471 261 l 279 319 q 150 392 195 346 q 106 503 106 438 q 176 632 106 583 q 363 681 247 681 q 552 631 485 681 q 622 506 619 581 l 515 506 q 471 572 509 549 q 363 594 433 594 q 257 564 295 594 q 219 497 219 534 q 338 396 219 428 l 469 351 q 600 284 555 326 q 646 178 646 242 q 613 83 646 128 q 521 11 581 39 q 379 -17 461 -17 m 339 -304 l 277 -273 q 339 -233 314 -255 q 373 -180 364 -212 q 331 -163 347 -178 q 316 -123 314 -148 q 336 -82 317 -99 q 381 -66 354 -66 q 434 -90 413 -66 q 453 -152 455 -113 q 423 -234 451 -191 q 339 -304 394 -277 z "},"ß":{"ha":852,"x_min":140,"x_max":768,"o":"m 672 747 q 652 661 672 695 q 607 602 633 626 q 561 555 581 577 q 542 506 542 533 q 565 457 542 478 q 621 414 588 435 q 689 366 655 393 q 745 300 722 339 q 768 202 768 260 q 737 88 768 138 q 654 11 706 39 q 539 -17 602 -17 q 449 -5 499 -17 q 360 26 399 6 l 363 119 q 444 77 401 91 q 524 63 486 63 q 598 81 569 63 q 639 127 626 99 q 651 188 651 156 q 630 268 651 235 q 575 326 608 301 q 511 374 543 351 q 457 425 478 397 q 435 491 435 453 q 455 556 435 528 q 503 607 476 583 q 550 661 530 632 q 571 734 571 691 q 530 825 571 788 q 413 862 490 862 q 289 810 330 862 q 249 641 249 759 l 249 0 l 140 0 l 140 643 q 172 808 140 740 q 266 912 204 876 q 421 948 328 948 q 560 921 504 948 q 644 848 616 894 q 672 747 672 803 z "},"ŧ":{"ha":522,"x_min":47,"x_max":488,"o":"m 47 378 l 47 459 l 471 459 l 471 378 l 47 378 m 344 -17 q 247 4 290 -17 q 179 67 204 25 q 154 171 154 108 l 154 849 l 261 849 l 261 174 q 357 71 261 71 q 412 77 385 71 q 472 96 439 83 l 488 18 q 417 -7 452 3 q 344 -17 382 -17 m 47 589 l 47 664 l 471 664 l 471 589 l 47 589 z "},"ť":{"ha":522,"x_min":47,"x_max":510,"o":"m 344 -17 q 247 4 290 -17 q 179 67 204 25 q 154 171 154 108 l 154 849 l 261 849 l 261 174 q 357 71 261 71 q 412 77 385 71 q 472 96 439 83 l 488 18 q 417 -7 452 3 q 344 -17 382 -17 m 47 589 l 47 664 l 471 664 l 471 589 l 47 589 m 407 747 l 343 778 q 402 817 379 795 q 433 871 426 838 q 389 887 407 872 q 371 927 371 902 q 388 967 371 950 q 433 985 405 985 q 488 959 466 985 q 510 899 510 934 q 485 815 510 856 q 407 747 460 774 z "},"ţ":{"ha":522,"x_min":47,"x_max":488,"o":"m 344 -17 q 247 4 290 -17 q 179 67 204 25 q 154 171 154 108 l 154 849 l 261 849 l 261 174 q 357 71 261 71 q 412 77 385 71 q 472 96 439 83 l 488 18 q 417 -7 452 3 q 344 -17 382 -17 m 47 589 l 47 664 l 471 664 l 471 589 l 47 589 m 171 -245 l 190 -199 q 282 -230 241 -226 q 348 -220 323 -234 q 374 -182 372 -206 q 356 -140 376 -158 q 303 -109 335 -122 q 238 -89 272 -97 l 287 41 l 349 35 l 302 -86 l 277 -47 q 382 -81 340 -60 q 445 -127 424 -101 q 463 -187 466 -153 q 430 -250 460 -226 q 353 -282 399 -274 q 258 -280 307 -289 q 171 -245 210 -271 z "},"ț":{"ha":522,"x_min":47,"x_max":488,"o":"m 344 -17 q 247 4 290 -17 q 179 67 204 25 q 154 171 154 108 l 154 849 l 261 849 l 261 174 q 357 71 261 71 q 412 77 385 71 q 472 96 439 83 l 488 18 q 417 -7 452 3 q 344 -17 382 -17 m 47 589 l 47 664 l 471 664 l 471 589 l 47 589 m 274 -303 l 212 -272 q 274 -232 249 -253 q 308 -178 299 -210 q 265 -162 282 -177 q 251 -122 249 -147 q 270 -81 252 -97 q 316 -65 289 -65 q 369 -88 348 -65 q 388 -151 390 -112 q 358 -233 386 -190 q 274 -303 329 -276 z "},"ŭ":{"ha":841,"x_min":121,"x_max":700,"o":"m 592 665 l 700 665 l 700 0 l 592 0 l 592 665 m 121 665 l 229 665 l 229 251 q 270 125 229 168 q 386 82 310 82 q 495 115 449 82 q 566 207 541 149 q 592 342 592 266 l 632 342 q 600 151 632 230 q 509 30 567 72 q 371 -12 450 -12 q 240 15 296 -12 q 152 100 183 43 q 121 243 121 156 l 121 665 m 433 800 q 293 850 345 800 q 240 977 240 900 l 331 977 q 359 901 331 928 q 433 874 387 874 q 508 901 481 874 q 536 977 536 928 l 626 977 q 574 850 626 900 q 433 800 522 800 z "},"ű":{"ha":841,"x_min":121,"x_max":700,"o":"m 592 665 l 700 665 l 700 0 l 592 0 l 592 665 m 121 665 l 229 665 l 229 251 q 270 125 229 168 q 386 82 310 82 q 495 115 449 82 q 566 207 541 149 q 592 342 592 266 l 632 342 q 600 151 632 230 q 509 30 567 72 q 371 -12 450 -12 q 240 15 296 -12 q 152 100 183 43 q 121 243 121 156 l 121 665 m 533 759 l 474 768 l 494 994 l 578 979 l 533 759 m 370 765 l 310 772 l 321 999 l 406 988 l 370 765 z "},"ū":{"ha":841,"x_min":121,"x_max":700,"o":"m 592 665 l 700 665 l 700 0 l 592 0 l 592 665 m 121 665 l 229 665 l 229 251 q 270 125 229 168 q 386 82 310 82 q 495 115 449 82 q 566 207 541 149 q 592 342 592 266 l 632 342 q 600 151 632 230 q 509 30 567 72 q 371 -12 450 -12 q 240 15 296 -12 q 152 100 183 43 q 121 243 121 156 l 121 665 m 217 901 l 651 901 l 651 811 l 217 811 l 217 901 z "},"ų":{"ha":841,"x_min":121,"x_max":787,"o":"m 592 665 l 700 665 l 700 0 l 592 0 l 592 665 m 121 665 l 229 665 l 229 251 q 270 125 229 168 q 386 82 310 82 q 495 115 449 82 q 566 207 541 149 q 592 342 592 266 l 632 342 q 600 151 632 230 q 509 30 567 72 q 371 -12 450 -12 q 240 15 296 -12 q 152 100 183 43 q 121 243 121 156 l 121 665 m 787 -231 q 696 -268 744 -255 q 605 -281 649 -281 q 495 -250 536 -281 q 453 -164 453 -219 q 498 -58 453 -109 q 630 27 542 -6 l 700 0 q 577 -67 622 -32 q 532 -143 532 -102 q 557 -189 532 -174 q 617 -203 583 -203 q 684 -193 649 -203 q 760 -159 718 -182 l 787 -231 z "},"ů":{"ha":841,"x_min":121,"x_max":700,"o":"m 592 665 l 700 665 l 700 0 l 592 0 l 592 665 m 121 665 l 229 665 l 229 251 q 270 125 229 168 q 386 82 310 82 q 495 115 449 82 q 566 207 541 149 q 592 342 592 266 l 632 342 q 600 151 632 230 q 509 30 567 72 q 371 -12 450 -12 q 240 15 296 -12 q 152 100 183 43 q 121 243 121 156 l 121 665 m 433 742 q 364 760 395 742 q 313 811 332 779 q 294 881 294 842 q 313 950 294 919 q 364 1001 332 982 q 433 1020 395 1020 q 503 1001 472 1020 q 554 950 535 982 q 573 881 573 919 q 554 811 573 842 q 503 760 535 779 q 433 742 472 742 m 433 819 q 477 837 460 819 q 495 881 495 855 q 477 925 495 907 q 433 942 460 942 q 390 925 408 942 q 372 881 372 907 q 390 837 372 855 q 433 819 408 819 z "},"ẃ":{"ha":1006,"x_min":25,"x_max":978,"o":"m 25 664 l 138 664 l 307 110 l 293 110 l 458 632 l 549 632 l 713 108 l 700 108 l 869 664 l 978 664 l 760 0 l 654 0 l 493 490 l 510 490 l 350 0 l 244 0 l 25 664 m 462 777 l 408 821 l 641 1065 l 717 1003 l 462 777 z "},"ŵ":{"ha":1006,"x_min":25,"x_max":978,"o":"m 25 664 l 138 664 l 307 110 l 293 110 l 458 632 l 549 632 l 713 108 l 700 108 l 869 664 l 978 664 l 760 0 l 654 0 l 493 490 l 510 490 l 350 0 l 244 0 l 25 664 m 347 751 l 282 803 l 502 1019 l 723 803 l 658 751 l 483 928 l 521 928 l 347 751 z "},"ẅ":{"ha":1006,"x_min":25,"x_max":978,"o":"m 25 664 l 138 664 l 307 110 l 293 110 l 458 632 l 549 632 l 713 108 l 700 108 l 869 664 l 978 664 l 760 0 l 654 0 l 493 490 l 510 490 l 350 0 l 244 0 l 25 664 m 618 791 q 567 811 588 791 q 546 860 546 831 q 567 910 546 889 q 618 931 588 931 q 670 910 649 931 q 692 860 692 889 q 670 811 692 831 q 618 791 649 791 m 386 791 q 334 811 355 791 q 314 858 314 831 q 334 909 314 889 q 386 929 355 929 q 439 909 417 929 q 460 858 460 889 q 439 811 460 831 q 386 791 417 791 z "},"ẁ":{"ha":1006,"x_min":25,"x_max":978,"o":"m 25 664 l 138 664 l 307 110 l 293 110 l 458 632 l 549 632 l 713 108 l 700 108 l 869 664 l 978 664 l 760 0 l 654 0 l 493 490 l 510 490 l 350 0 l 244 0 l 25 664 m 606 781 l 351 1007 l 426 1069 l 660 825 l 606 781 z "},"ý":{"ha":647,"x_min":-8,"x_max":622,"o":"m 31 664 l 151 664 l 368 94 l 343 94 l 511 664 l 622 664 l 372 -133 q 289 -287 341 -233 q 156 -342 237 -342 q 73 -329 112 -342 q -8 -293 33 -317 l -8 -193 q 63 -235 28 -222 q 135 -247 97 -247 q 205 -221 176 -247 q 251 -153 233 -194 q 283 -67 270 -112 l 303 0 l 31 664 m 283 777 l 228 821 l 462 1065 l 538 1003 l 283 777 z "},"ŷ":{"ha":647,"x_min":-8,"x_max":622,"o":"m 31 664 l 151 664 l 368 94 l 343 94 l 511 664 l 622 664 l 372 -133 q 289 -287 341 -233 q 156 -342 237 -342 q 73 -329 112 -342 q -8 -293 33 -317 l -8 -193 q 63 -235 28 -222 q 135 -247 97 -247 q 205 -221 176 -247 q 251 -153 233 -194 q 283 -67 270 -112 l 303 0 l 31 664 m 168 751 l 103 803 l 323 1019 l 544 803 l 479 751 l 304 928 l 342 928 l 168 751 z "},"ÿ":{"ha":647,"x_min":-8,"x_max":622,"o":"m 31 664 l 151 664 l 368 94 l 343 94 l 511 664 l 622 664 l 372 -133 q 289 -287 341 -233 q 156 -342 237 -342 q 73 -329 112 -342 q -8 -293 33 -317 l -8 -193 q 63 -235 28 -222 q 135 -247 97 -247 q 205 -221 176 -247 q 251 -153 233 -194 q 283 -67 270 -112 l 303 0 l 31 664 m 439 791 q 388 811 409 791 q 367 860 367 831 q 388 910 367 889 q 439 931 409 931 q 491 910 470 931 q 513 860 513 889 q 491 811 513 831 q 439 791 470 791 m 207 791 q 155 811 176 791 q 135 858 135 831 q 155 909 135 889 q 207 929 176 929 q 259 909 238 929 q 281 858 281 889 q 259 811 281 831 q 207 791 238 791 z "},"ỳ":{"ha":647,"x_min":-8,"x_max":622,"o":"m 31 664 l 151 664 l 368 94 l 343 94 l 511 664 l 622 664 l 372 -133 q 289 -287 341 -233 q 156 -342 237 -342 q 73 -329 112 -342 q -8 -293 33 -317 l -8 -193 q 63 -235 28 -222 q 135 -247 97 -247 q 205 -221 176 -247 q 251 -153 233 -194 q 283 -67 270 -112 l 303 0 l 31 664 m 426 781 l 172 1007 l 247 1069 l 481 825 l 426 781 z "},"ź":{"ha":659,"x_min":74,"x_max":588,"o":"m 74 0 l 74 88 l 465 576 l 74 576 l 74 664 l 588 664 l 588 576 l 201 88 l 588 88 l 588 0 l 74 0 m 289 777 l 235 821 l 468 1065 l 544 1003 l 289 777 z "},"ž":{"ha":659,"x_min":74,"x_max":588,"o":"m 74 0 l 74 88 l 465 576 l 74 576 l 74 664 l 588 664 l 588 576 l 201 88 l 588 88 l 588 0 l 74 0 m 332 769 l 112 984 l 177 1035 l 351 849 l 313 849 l 488 1035 l 553 984 l 332 769 z "},"ż":{"ha":659,"x_min":74,"x_max":588,"o":"m 74 0 l 74 88 l 465 576 l 74 576 l 74 664 l 588 664 l 588 576 l 201 88 l 588 88 l 588 0 l 74 0 m 330 797 q 273 818 296 797 q 251 872 251 840 q 273 928 251 905 q 330 951 296 951 q 388 928 364 951 q 411 872 411 905 q 388 818 411 840 q 330 797 364 797 z "},"ﬁ":{"ha":890,"x_min":68,"x_max":749,"o":"m 176 0 l 176 767 q 202 875 176 833 q 270 937 227 917 q 365 957 313 957 q 423 953 394 957 q 482 940 453 949 l 461 854 q 420 867 440 863 q 381 871 399 871 q 336 863 358 871 q 299 831 314 854 q 285 765 285 808 l 285 0 l 176 0 m 68 589 l 68 664 l 422 664 l 422 589 l 68 589 m 677 821 q 624 840 644 821 q 605 890 605 859 q 624 939 605 921 q 677 957 644 957 q 730 939 710 957 q 749 890 749 921 q 730 840 749 859 q 677 821 710 821 m 623 0 l 623 665 l 731 665 l 731 0 l 623 0 z "},"ﬂ":{"ha":865,"x_min":68,"x_max":724,"o":"m 176 0 l 176 767 q 202 875 176 833 q 270 937 227 917 q 365 957 313 957 q 423 953 394 957 q 482 940 453 949 l 461 854 q 420 867 440 863 q 381 871 399 871 q 336 863 358 871 q 299 831 314 854 q 285 765 285 808 l 285 0 l 176 0 m 68 589 l 68 664 l 422 664 l 422 589 l 68 589 m 616 0 l 616 947 l 724 947 l 724 0 l 616 0 z "},"ª":{"ha":765,"x_min":83,"x_max":646,"o":"m 551 0 l 538 146 l 538 431 q 499 559 538 520 q 385 599 461 599 q 307 586 342 599 q 251 548 272 574 q 231 481 231 522 l 110 481 q 145 597 110 553 q 243 661 181 641 q 385 681 305 681 q 520 655 461 681 q 613 573 579 629 q 646 428 646 517 l 646 0 l 551 0 m 325 -17 q 190 13 243 -17 q 110 88 136 42 q 83 186 83 135 q 117 296 83 253 q 209 358 151 338 q 340 378 267 378 q 445 367 392 378 q 547 339 497 357 l 547 271 q 453 297 506 288 q 357 307 401 307 q 244 280 290 307 q 199 186 199 252 q 234 103 199 138 q 346 68 269 68 q 443 93 400 68 q 512 157 487 119 q 538 233 538 195 l 564 233 q 535 110 564 167 q 453 18 506 53 q 325 -17 399 -17 z "},"º":{"ha":759,"x_min":71,"x_max":689,"o":"m 381 -17 q 221 23 291 -17 q 111 140 151 63 q 71 332 71 218 q 111 524 71 447 q 221 641 151 601 q 381 681 291 681 q 539 641 469 681 q 649 524 609 601 q 689 332 689 447 q 649 140 689 218 q 539 23 609 63 q 381 -17 469 -17 m 378 78 q 488 109 442 78 q 556 197 533 140 q 579 332 579 253 q 530 519 579 451 q 383 588 481 588 q 273 557 318 588 q 205 468 228 526 q 182 332 182 411 q 232 146 182 215 q 378 78 281 78 z "},"Δ":{"ha":798,"x_min":36,"x_max":761,"o":"m 36 0 l 336 872 l 468 872 l 761 0 l 647 0 l 400 740 l 150 0 l 36 0 m 103 0 l 103 94 l 691 94 l 691 0 l 103 0 z "},"Ω":{"ha":897,"x_min":71,"x_max":826,"o":"m 379 20 q 269 46 324 20 q 170 123 215 72 q 98 253 125 175 q 71 435 71 331 q 120 688 71 588 q 255 838 169 788 q 449 888 340 888 q 642 838 557 888 q 777 687 728 788 q 826 435 826 586 q 799 252 826 330 q 727 122 772 174 q 627 45 682 71 q 517 20 572 20 l 517 76 q 610 119 565 76 q 684 242 655 162 q 714 436 714 323 q 643 698 714 606 q 449 790 572 790 q 255 698 327 790 q 183 435 183 606 q 213 242 183 322 q 288 119 242 162 q 379 76 333 76 l 379 20 m 71 -1 l 71 76 l 379 76 l 379 -1 l 71 -1 m 517 -1 l 517 76 l 826 76 l 826 -1 l 517 -1 z "},"μ":{"ha":841,"x_min":121,"x_max":700,"o":"m 592 665 l 700 665 l 700 0 l 592 0 l 592 133 q 502 25 559 63 q 371 -12 445 -12 q 229 21 288 -12 l 229 -282 l 121 -282 l 121 665 l 229 665 l 229 251 q 270 125 229 168 q 386 82 310 82 q 495 115 449 82 q 566 207 541 149 q 592 342 592 266 l 592 665 z "},"π":{"ha":853,"x_min":40,"x_max":827,"o":"m 756 -9 q 635 22 687 -9 q 553 113 583 52 q 524 263 524 173 l 524 665 l 631 665 l 631 263 q 675 127 631 168 q 783 87 719 87 l 756 -9 m 214 0 l 214 664 l 322 664 l 322 0 l 214 0 m 40 572 l 40 665 l 827 665 l 827 572 l 40 572 z "},"⁄":{"ha":379,"x_min":-189,"x_max":601,"o":"m -189 -11 l 517 937 l 601 937 l -106 -11 l -189 -11 z "},"½":{"ha":1295,"x_min":67,"x_max":1203,"o":"m 166 944 l 218 944 l 218 417 l 153 417 l 153 867 q 111 845 133 853 q 67 838 89 838 l 67 901 q 118 915 93 905 q 166 944 143 925 m 170 -11 l 876 937 l 960 937 l 253 -11 l 170 -11 m 827 0 l 827 78 q 860 182 827 146 q 948 239 893 217 l 1051 281 q 1111 322 1092 297 q 1131 386 1131 348 q 1103 452 1131 426 q 1026 477 1076 477 q 945 456 976 477 q 909 392 914 435 l 837 392 q 864 470 840 438 q 929 518 888 501 q 1026 535 970 535 q 1116 515 1076 535 q 1180 461 1156 496 q 1203 382 1203 427 q 1170 283 1203 321 q 1079 222 1137 245 l 973 179 q 913 142 933 164 q 892 85 892 120 l 892 60 l 1198 60 l 1198 0 l 827 0 z "},"¼":{"ha":1232,"x_min":67,"x_max":1202,"o":"m 166 944 l 218 944 l 218 417 l 153 417 l 153 867 q 111 845 133 853 q 67 838 89 838 l 67 901 q 118 915 93 905 q 166 944 143 925 m 170 -11 l 876 937 l 960 937 l 253 -11 l 170 -11 m 1050 533 l 1110 533 l 1110 183 l 1202 183 l 1202 128 l 1110 128 l 1110 0 l 1047 0 l 1047 128 l 774 128 l 774 178 l 1050 533 m 1049 430 l 853 178 l 1049 178 l 1049 430 z "},"¾":{"ha":1430,"x_min":74,"x_max":1400,"o":"m 278 400 q 178 419 225 400 q 103 477 132 439 q 74 570 74 515 l 140 570 q 181 488 142 517 q 278 460 221 460 q 368 489 336 460 q 401 560 401 517 q 370 627 401 601 q 269 653 340 653 l 209 653 l 209 705 l 249 705 q 345 729 310 705 q 381 796 381 753 q 352 859 381 833 q 271 885 324 885 q 199 869 231 885 q 156 808 167 852 l 89 808 q 149 913 99 881 q 269 945 199 945 q 399 905 348 945 q 451 801 451 865 q 427 731 451 760 q 359 685 403 701 q 440 639 408 671 q 472 555 472 606 q 419 444 472 488 q 278 400 367 400 m 368 -11 l 1074 937 l 1158 937 l 451 -11 l 368 -11 m 1248 533 l 1308 533 l 1308 183 l 1400 183 l 1400 128 l 1308 128 l 1308 0 l 1244 0 l 1244 128 l 972 128 l 972 178 l 1248 533 m 1247 430 l 1051 178 l 1247 178 l 1247 430 z "},"⅛":{"ha":1312,"x_min":67,"x_max":1237,"o":"m 166 944 l 218 944 l 218 417 l 153 417 l 153 867 q 111 845 133 853 q 67 838 89 838 l 67 901 q 118 915 93 905 q 166 944 143 925 m 170 -11 l 876 937 l 960 937 l 253 -11 l 170 -11 m 1025 -17 q 874 26 933 -17 q 815 135 815 69 q 860 228 815 194 q 974 262 905 262 q 997 261 986 262 q 1022 256 1008 260 l 1022 237 q 920 208 959 237 q 882 140 882 178 q 923 68 882 93 q 1025 43 965 43 q 1131 65 1093 43 q 1168 122 1168 88 q 1148 169 1168 151 q 1094 200 1128 188 l 949 256 q 895 283 923 265 q 850 326 868 300 q 832 389 832 353 q 883 489 832 450 q 1025 528 934 528 q 1124 509 1081 528 q 1192 457 1167 490 q 1217 382 1217 424 q 1180 297 1217 333 q 1073 260 1143 260 q 1051 262 1062 260 q 1028 267 1041 264 l 1028 288 q 1115 313 1080 288 q 1149 379 1149 338 q 1115 443 1149 418 q 1025 469 1081 469 q 936 445 972 469 q 900 387 900 421 q 919 342 900 359 q 973 312 939 325 l 1117 257 q 1206 206 1175 235 q 1237 125 1237 176 q 1181 23 1237 63 q 1025 -17 1125 -17 z "},"⅜":{"ha":1510,"x_min":74,"x_max":1435,"o":"m 278 400 q 178 419 225 400 q 103 477 132 439 q 74 570 74 515 l 140 570 q 181 488 142 517 q 278 460 221 460 q 368 489 336 460 q 401 560 401 517 q 370 627 401 601 q 269 653 340 653 l 209 653 l 209 705 l 249 705 q 345 729 310 705 q 381 796 381 753 q 352 859 381 833 q 271 885 324 885 q 199 869 231 885 q 156 808 167 852 l 89 808 q 149 913 99 881 q 269 945 199 945 q 399 905 348 945 q 451 801 451 865 q 427 731 451 760 q 359 685 403 701 q 440 639 408 671 q 472 555 472 606 q 419 444 472 488 q 278 400 367 400 m 368 -11 l 1074 937 l 1158 937 l 451 -11 l 368 -11 m 1223 -17 q 1072 26 1131 -17 q 1013 135 1013 69 q 1058 228 1013 194 q 1172 262 1103 262 q 1195 261 1184 262 q 1219 256 1206 260 l 1219 237 q 1118 208 1157 237 q 1080 140 1080 178 q 1121 68 1080 93 q 1223 43 1163 43 q 1328 65 1291 43 q 1366 122 1366 88 q 1346 169 1366 151 q 1292 200 1326 188 l 1147 256 q 1093 283 1121 265 q 1048 326 1066 300 q 1030 389 1030 353 q 1081 489 1030 450 q 1223 528 1132 528 q 1322 509 1279 528 q 1390 457 1365 490 q 1415 382 1415 424 q 1378 297 1415 333 q 1271 260 1341 260 q 1249 262 1260 260 q 1226 267 1239 264 l 1226 288 q 1313 313 1278 288 q 1347 379 1347 338 q 1313 443 1347 418 q 1223 469 1278 469 q 1134 445 1170 469 q 1098 387 1098 421 q 1117 342 1098 359 q 1171 312 1137 325 l 1315 257 q 1404 206 1373 235 q 1435 125 1435 176 q 1379 23 1435 63 q 1223 -17 1323 -17 z "},"⅝":{"ha":1492,"x_min":90,"x_max":1417,"o":"m 272 400 q 181 418 222 400 q 115 471 140 436 q 90 556 91 506 l 155 556 q 189 484 155 509 q 272 460 223 460 q 361 494 328 460 q 393 580 393 529 q 263 681 393 681 l 122 681 l 145 935 l 435 935 l 435 876 l 197 876 l 211 899 l 193 715 l 185 723 q 231 730 205 728 q 276 731 256 731 q 411 693 361 731 q 460 580 460 656 q 438 488 460 529 q 372 424 415 447 q 272 400 330 400 m 350 -11 l 1056 937 l 1140 937 l 433 -11 l 350 -11 m 1205 -17 q 1053 26 1113 -17 q 994 135 994 69 q 1040 228 994 194 q 1154 262 1085 262 q 1177 261 1166 262 q 1201 256 1188 260 l 1201 237 q 1100 208 1139 237 q 1062 140 1062 178 q 1103 68 1062 93 q 1205 43 1144 43 q 1310 65 1273 43 q 1348 122 1348 88 q 1328 169 1348 151 q 1274 200 1308 188 l 1129 256 q 1075 283 1103 265 q 1030 326 1048 300 q 1012 389 1012 353 q 1063 489 1012 450 q 1205 528 1114 528 q 1304 509 1261 528 q 1372 457 1347 490 q 1397 382 1397 424 q 1360 297 1397 333 q 1253 260 1323 260 q 1231 262 1242 260 q 1208 267 1221 264 l 1208 288 q 1294 313 1260 288 q 1329 379 1329 338 q 1295 443 1329 418 q 1205 469 1260 469 q 1116 445 1152 469 q 1080 387 1080 421 q 1099 342 1080 359 q 1153 312 1119 325 l 1297 257 q 1386 206 1355 235 q 1417 125 1417 176 q 1361 23 1417 63 q 1205 -17 1305 -17 z "},"⅞":{"ha":1369,"x_min":33,"x_max":1294,"o":"m 63 417 l 315 880 l 33 880 l 33 942 l 392 942 l 392 882 l 149 417 l 63 417 m 227 -11 l 933 937 l 1017 937 l 310 -11 l 227 -11 m 1082 -17 q 931 26 990 -17 q 872 135 872 69 q 917 228 872 194 q 1031 262 962 262 q 1054 261 1043 262 q 1078 256 1065 260 l 1078 237 q 977 208 1016 237 q 939 140 939 178 q 980 68 939 93 q 1082 43 1022 43 q 1188 65 1150 43 q 1225 122 1225 88 q 1205 169 1225 151 q 1151 200 1185 188 l 1006 256 q 952 283 980 265 q 907 326 925 300 q 889 389 889 353 q 940 489 889 450 q 1082 528 991 528 q 1181 509 1138 528 q 1249 457 1224 490 q 1274 382 1274 424 q 1237 297 1274 333 q 1130 260 1200 260 q 1108 262 1119 260 q 1085 267 1098 264 l 1085 288 q 1172 313 1137 288 q 1206 379 1206 338 q 1172 443 1206 418 q 1082 469 1138 469 q 993 445 1029 469 q 957 387 957 421 q 976 342 957 359 q 1030 312 996 325 l 1174 257 q 1263 206 1232 235 q 1294 125 1294 176 q 1238 23 1294 63 q 1082 -17 1182 -17 z "},"₀":{"ha":568,"x_min":71,"x_max":498,"o":"m 284 -17 q 129 54 188 -17 q 71 267 71 124 q 129 478 71 408 q 284 549 188 549 q 439 478 380 549 q 498 267 498 408 q 439 54 498 124 q 284 -17 380 -17 m 284 46 q 391 103 354 46 q 428 267 428 161 q 391 430 428 372 q 284 487 354 487 q 178 430 215 487 q 141 267 141 372 q 178 103 141 161 q 284 46 215 46 z "},"₁":{"ha":359,"x_min":67,"x_max":218,"o":"m 165 527 l 218 527 l 218 0 l 153 0 l 153 450 q 111 429 133 437 q 67 421 89 422 l 67 485 q 118 498 93 488 q 165 527 143 508 z "},"₂":{"ha":557,"x_min":89,"x_max":465,"o":"m 89 0 l 89 78 q 122 182 89 146 q 210 240 155 217 l 313 281 q 374 322 353 297 q 394 385 394 347 q 366 452 394 426 q 288 477 338 477 q 207 456 239 477 q 171 392 176 435 l 98 392 q 125 470 101 438 q 191 518 149 501 q 288 535 233 535 q 378 515 338 535 q 441 461 418 495 q 465 381 465 426 q 431 283 465 321 q 341 222 398 245 l 235 179 q 174 142 194 164 q 154 85 154 120 l 154 60 l 460 60 l 460 0 l 89 0 z "},"₃":{"ha":557,"x_min":74,"x_max":472,"o":"m 278 -17 q 178 3 225 -17 q 103 60 132 22 q 74 153 74 98 l 140 153 q 181 72 142 100 q 278 43 221 43 q 368 72 336 43 q 401 143 401 101 q 370 210 401 184 q 269 235 340 235 l 209 235 l 209 288 l 249 288 q 345 312 310 288 q 381 378 381 336 q 352 442 381 417 q 271 468 324 468 q 199 452 231 468 q 156 391 167 435 l 89 391 q 149 496 99 465 q 269 528 199 528 q 399 488 348 528 q 451 385 451 447 q 427 314 451 343 q 359 268 403 284 q 440 222 408 254 q 472 138 472 189 q 419 27 472 70 q 278 -17 367 -17 z "},"₄":{"ha":494,"x_min":36,"x_max":464,"o":"m 312 533 l 373 533 l 373 183 l 464 183 l 464 128 l 373 128 l 373 0 l 308 0 l 308 128 l 36 128 l 36 178 l 312 533 m 311 430 l 114 178 l 311 178 l 311 430 z "},"₅":{"ha":540,"x_min":90,"x_max":461,"o":"m 272 -17 q 181 1 222 -17 q 116 54 140 19 q 90 140 91 89 l 156 140 q 190 67 156 92 q 272 43 224 43 q 361 78 328 43 q 393 163 393 113 q 263 264 393 264 l 122 264 l 145 519 l 436 519 l 436 459 l 198 459 l 211 482 l 194 299 l 185 306 q 231 313 205 310 q 276 315 256 315 q 411 276 362 315 q 461 163 461 238 q 438 72 461 113 q 373 7 415 31 q 272 -17 331 -17 z "},"₆":{"ha":539,"x_min":71,"x_max":459,"o":"m 281 -17 q 170 18 217 -17 q 97 112 123 52 q 71 247 71 172 q 130 453 71 379 q 290 528 188 528 q 404 489 360 528 q 455 386 449 450 l 384 386 q 356 446 378 424 q 291 468 333 468 q 178 406 219 468 q 138 237 138 344 q 138 201 138 221 q 142 163 139 181 q 167 251 145 219 q 222 296 189 283 q 292 309 256 309 q 411 263 364 309 q 459 145 459 217 q 410 28 459 73 q 281 -17 360 -17 m 281 43 q 359 71 328 43 q 391 147 391 99 q 359 224 391 197 q 281 251 328 251 q 202 222 233 251 q 171 147 171 192 q 202 71 171 99 q 281 43 233 43 z "},"₇":{"ha":416,"x_min":33,"x_max":392,"o":"m 63 0 l 315 463 l 33 463 l 33 526 l 392 526 l 392 465 l 149 0 l 63 0 z "},"₈":{"ha":575,"x_min":76,"x_max":499,"o":"m 288 -17 q 136 26 195 -17 q 76 135 76 69 q 122 228 76 194 q 236 262 167 262 q 259 260 248 262 q 284 256 271 259 l 284 237 q 183 207 222 237 q 144 140 144 178 q 185 68 144 93 q 288 43 226 43 q 393 65 356 43 q 431 122 431 87 q 411 169 431 151 q 356 200 391 187 l 211 255 q 158 283 185 265 q 113 326 131 300 q 94 389 94 353 q 145 489 94 450 q 288 528 197 528 q 386 509 343 528 q 455 457 430 490 q 479 382 479 424 q 442 297 479 333 q 335 260 406 260 q 314 261 324 260 q 291 267 303 263 l 291 288 q 376 313 342 288 q 411 378 411 338 q 377 443 411 417 q 288 468 343 468 q 198 444 234 468 q 163 386 163 420 q 182 341 163 358 q 235 312 201 324 l 379 257 q 468 205 437 235 q 499 124 499 176 q 444 23 499 63 q 288 -17 388 -17 z "},"₉":{"ha":549,"x_min":92,"x_max":478,"o":"m 274 -17 q 182 5 222 -17 q 118 64 141 26 q 94 149 94 101 l 163 149 q 193 72 164 100 q 272 43 222 43 q 379 106 347 43 q 412 275 412 169 q 411 305 412 291 q 408 337 410 319 q 358 236 399 269 q 257 202 317 202 q 139 248 187 202 q 92 366 92 294 q 141 484 92 440 q 269 528 190 528 q 377 495 330 528 q 451 405 424 463 q 478 266 478 346 q 429 60 478 136 q 274 -17 379 -17 m 269 260 q 348 290 316 260 q 380 364 380 319 q 348 440 380 413 q 269 468 316 468 q 191 440 222 468 q 159 364 159 413 q 191 288 159 315 q 269 260 222 260 z "},"⁰":{"ha":568,"x_min":71,"x_max":498,"o":"m 284 323 q 172 354 220 323 q 97 448 124 385 q 71 606 71 511 q 97 763 71 701 q 172 857 124 826 q 284 888 220 888 q 396 857 348 888 q 471 763 444 826 q 498 606 498 701 q 471 448 498 511 q 396 354 444 385 q 284 323 348 323 m 284 385 q 391 443 355 385 q 428 606 428 501 q 391 769 428 711 q 284 826 355 826 q 178 769 215 826 q 141 606 141 711 q 178 443 141 501 q 284 385 215 385 z "},"¹":{"ha":359,"x_min":67,"x_max":218,"o":"m 165 875 l 218 875 l 218 348 l 153 348 l 153 798 q 110 777 133 784 q 67 769 88 769 l 67 833 q 118 846 93 836 q 165 875 142 856 z "},"²":{"ha":557,"x_min":89,"x_max":465,"o":"m 89 353 l 89 431 q 104 507 89 476 q 146 557 119 537 q 210 592 173 577 l 313 633 q 374 675 353 649 q 394 738 394 700 q 366 804 394 778 q 288 830 338 830 q 207 809 238 830 q 171 745 176 788 l 98 745 q 125 823 101 791 q 191 871 149 854 q 288 888 232 888 q 378 868 338 888 q 441 814 418 848 q 465 734 465 779 q 450 664 465 694 q 407 612 435 633 q 341 574 379 590 l 235 532 q 174 494 194 516 q 154 438 154 473 l 154 413 l 460 413 l 460 353 l 89 353 z "},"³":{"ha":558,"x_min":74,"x_max":472,"o":"m 278 343 q 201 354 238 343 q 136 386 165 365 q 90 440 107 408 q 74 513 74 472 l 140 513 q 159 453 141 478 q 209 416 178 428 q 278 403 240 403 q 368 431 336 403 q 401 503 401 460 q 387 551 401 530 q 345 583 374 572 q 269 595 316 595 l 209 595 l 209 647 l 249 647 q 345 672 310 647 q 381 738 381 696 q 352 802 381 776 q 271 828 324 828 q 198 811 230 828 q 156 751 167 795 l 89 751 q 120 830 95 800 q 184 874 145 860 q 269 888 222 888 q 363 869 322 888 q 427 818 403 851 q 451 744 451 786 q 427 673 451 703 q 359 628 403 644 q 440 581 408 614 q 472 497 472 549 q 448 417 472 452 q 381 363 424 383 q 278 343 338 343 z "},"⁴":{"ha":494,"x_min":36,"x_max":464,"o":"m 312 885 l 373 885 l 373 535 l 464 535 l 464 480 l 373 480 l 373 352 l 308 352 l 308 480 l 36 480 l 36 531 l 312 885 m 310 782 l 114 531 l 310 531 l 310 782 z "},"⁵":{"ha":540,"x_min":90,"x_max":461,"o":"m 272 337 q 181 355 222 337 q 116 407 140 372 q 90 493 91 442 l 156 493 q 189 421 156 445 q 272 397 223 397 q 361 431 328 397 q 393 517 393 465 q 263 617 393 617 l 122 617 l 145 872 l 436 872 l 436 813 l 198 813 l 211 835 l 194 652 l 185 660 q 231 666 205 664 q 276 668 256 668 q 411 630 362 668 q 461 517 461 592 q 438 425 461 465 q 373 360 415 384 q 272 337 330 337 z "},"⁶":{"ha":539,"x_min":71,"x_max":459,"o":"m 281 343 q 170 377 217 343 q 97 472 123 412 q 71 606 71 531 q 97 757 71 694 q 173 854 124 820 q 290 888 222 888 q 372 870 336 888 q 429 820 408 852 q 455 746 451 788 l 384 746 q 356 806 378 783 q 291 828 333 828 q 178 766 219 828 q 138 597 138 703 q 138 560 138 581 q 142 523 139 540 q 167 610 145 578 q 222 656 189 642 q 292 669 256 669 q 377 648 340 669 q 437 590 415 627 q 459 505 459 553 q 436 420 459 456 q 374 363 414 383 q 281 343 333 343 m 281 403 q 359 431 328 403 q 391 507 391 459 q 359 583 391 556 q 281 611 328 611 q 224 598 249 611 q 185 560 199 584 q 171 507 171 537 q 202 431 171 459 q 281 403 233 403 z "},"⁷":{"ha":416,"x_min":33,"x_max":392,"o":"m 63 347 l 315 810 l 33 810 l 33 872 l 392 872 l 392 812 l 149 347 l 63 347 z "},"⁸":{"ha":575,"x_min":76,"x_max":499,"o":"m 288 343 q 178 363 226 343 q 103 416 131 382 q 76 494 76 451 q 97 563 76 534 q 154 606 118 591 q 236 622 190 622 q 260 620 249 622 q 284 615 271 619 l 284 597 q 211 583 242 597 q 162 547 179 569 q 144 499 144 525 q 163 447 144 468 q 214 414 182 425 q 288 403 247 403 q 393 425 355 403 q 431 482 431 447 q 410 528 431 510 q 356 560 390 547 l 211 615 q 158 642 185 625 q 113 686 131 660 q 94 749 94 713 q 117 820 94 789 q 184 870 140 852 q 288 888 227 888 q 386 868 343 888 q 455 816 430 849 q 479 742 479 783 q 463 681 479 709 q 414 636 446 653 q 335 619 382 619 q 314 621 324 619 q 291 626 303 623 l 291 647 q 352 659 324 647 q 395 691 379 670 q 411 738 411 711 q 395 785 411 765 q 352 816 380 805 q 288 828 324 828 q 224 817 252 828 q 179 787 195 806 q 163 746 163 769 q 182 701 163 718 q 235 672 201 684 l 379 617 q 468 565 438 594 q 499 484 499 535 q 474 411 499 443 q 402 361 449 379 q 288 343 354 343 z "},"⁹":{"ha":549,"x_min":92,"x_max":478,"o":"m 274 343 q 181 364 222 343 q 118 423 141 385 q 94 508 94 460 l 163 508 q 193 432 164 460 q 272 403 222 403 q 352 431 322 403 q 398 512 383 460 q 412 635 412 564 q 411 665 412 651 q 408 697 410 679 q 382 622 402 651 q 329 577 361 592 q 257 562 297 562 q 173 583 210 562 q 114 641 135 604 q 92 726 92 678 q 114 811 92 775 q 176 867 136 847 q 269 888 217 888 q 353 869 315 888 q 419 816 391 851 q 463 734 447 782 q 478 626 478 685 q 457 475 478 539 q 389 377 435 412 q 274 343 344 343 m 269 619 q 326 633 301 619 q 365 671 351 647 q 380 724 380 694 q 348 800 380 772 q 269 828 316 828 q 190 800 222 828 q 159 724 159 772 q 190 647 159 675 q 269 619 222 619 z "},"…":{"ha":753,"x_min":42,"x_max":710,"o":"m 42 65 q 65 121 42 97 q 122 144 88 144 q 181 121 157 144 q 206 65 206 97 q 181 10 206 32 q 122 -12 157 -12 q 65 10 88 -12 q 42 65 42 33 m 301 65 q 324 121 301 97 q 381 144 347 144 q 440 121 416 144 q 465 65 465 97 q 440 10 465 32 q 381 -12 416 -12 q 324 10 347 -12 q 301 65 301 33 m 547 65 q 569 121 547 97 q 627 144 592 144 q 686 121 662 144 q 710 65 710 97 q 686 10 710 32 q 627 -12 662 -12 q 569 10 592 -12 q 547 65 547 33 z "},"¡":{"ha":385,"x_min":114,"x_max":278,"o":"m 151 611 l 239 611 l 253 -14 l 138 -14 l 151 611 m 195 868 q 254 846 230 868 q 278 790 278 824 q 254 735 278 758 q 195 711 230 711 q 137 735 160 711 q 114 790 114 758 q 137 846 114 824 q 195 868 160 868 z "},"¿":{"ha":692,"x_min":42,"x_max":628,"o":"m 424 629 l 424 567 q 411 467 424 506 q 368 400 399 428 q 286 343 338 372 q 212 297 240 318 q 172 250 184 275 q 160 189 160 225 q 204 99 160 135 q 325 63 248 63 q 456 96 410 63 q 513 190 501 130 l 628 190 q 543 27 619 90 q 328 -36 467 -36 q 175 -5 239 -36 q 76 77 110 26 q 42 192 42 129 q 78 312 42 264 q 194 403 115 360 q 268 450 241 428 q 306 500 294 472 q 317 574 317 528 l 317 629 l 424 629 m 368 868 q 426 845 403 868 q 449 791 449 823 q 426 735 449 758 q 369 711 403 711 q 309 735 334 711 q 285 790 285 758 q 309 845 285 823 q 368 868 334 868 z "},"·":{"ha":248,"x_min":42,"x_max":206,"o":"m 42 354 q 65 410 42 387 q 122 434 88 434 q 181 410 157 434 q 206 354 206 387 q 181 299 206 322 q 122 277 157 277 q 65 300 88 277 q 42 354 42 322 z "},"•":{"ha":383,"x_min":42,"x_max":341,"o":"m 42 367 q 83 469 42 426 q 189 512 125 512 q 297 469 252 512 q 341 367 341 426 q 297 266 341 307 q 189 226 252 226 q 83 267 125 226 q 42 367 42 308 z "},"‚":{"ha":326,"x_min":50,"x_max":254,"o":"m 132 -151 l 50 -111 q 117 -67 90 -91 q 153 -7 144 -42 q 102 15 123 -3 q 81 63 81 33 q 102 113 81 92 q 158 133 124 133 q 228 102 201 133 q 254 28 254 71 q 223 -72 254 -23 q 132 -151 192 -121 z "},"„":{"ha":606,"x_min":50,"x_max":534,"o":"m 412 -151 l 330 -111 q 397 -67 369 -91 q 433 -7 424 -42 q 382 15 403 -3 q 360 63 360 33 q 382 113 360 92 q 438 133 404 133 q 508 102 481 133 q 534 28 534 71 q 503 -72 534 -23 q 412 -151 472 -121 m 132 -151 l 50 -111 q 117 -67 90 -91 q 153 -7 144 -42 q 102 15 123 -3 q 81 63 81 33 q 102 113 81 92 q 158 133 124 133 q 228 102 201 133 q 254 28 254 71 q 223 -72 254 -23 q 132 -151 192 -121 z "},"“":{"ha":558,"x_min":50,"x_max":486,"o":"m 378 582 q 328 597 350 582 q 294 636 307 611 q 282 692 282 661 q 315 790 282 742 q 408 869 348 838 l 486 828 q 419 783 447 808 q 382 722 392 757 q 435 702 415 719 q 456 656 456 685 q 434 604 456 626 q 378 582 413 582 m 146 582 q 97 597 118 582 q 63 636 75 611 q 50 692 50 661 q 83 790 50 742 q 176 869 116 838 l 254 828 q 187 783 215 808 q 150 722 160 757 q 203 702 183 719 q 224 656 224 685 q 202 604 224 626 q 146 582 181 582 z "},"”":{"ha":551,"x_min":50,"x_max":480,"o":"m 355 582 l 277 624 q 344 669 317 644 q 380 728 372 694 q 327 749 349 731 q 306 797 306 767 q 329 849 306 828 q 387 869 352 869 q 437 855 416 869 q 469 815 458 840 q 480 760 480 790 q 447 662 480 710 q 355 582 415 615 m 128 582 l 50 624 q 117 669 90 644 q 153 728 144 694 q 100 749 122 731 q 79 797 79 767 q 102 849 79 828 q 160 869 125 869 q 210 855 189 869 q 242 815 231 840 q 253 760 253 790 q 220 662 253 710 q 128 582 188 615 z "},"«":{"ha":794,"x_min":71,"x_max":724,"o":"m 355 70 l 71 368 l 355 666 l 437 614 l 173 349 l 173 388 l 437 122 l 355 70 m 642 70 l 358 368 l 642 666 l 724 614 l 460 349 l 460 388 l 724 122 l 642 70 z "},"»":{"ha":794,"x_min":71,"x_max":724,"o":"m 440 70 l 358 122 l 622 388 l 622 349 l 358 614 l 440 666 l 724 368 l 440 70 m 153 70 l 71 122 l 335 388 l 335 349 l 71 614 l 153 666 l 437 368 l 153 70 z "},"‹":{"ha":507,"x_min":71,"x_max":437,"o":"m 355 70 l 71 368 l 355 666 l 437 614 l 173 349 l 173 388 l 437 122 l 355 70 z "},"›":{"ha":507,"x_min":71,"x_max":437,"o":"m 152 70 l 71 122 l 334 388 l 334 349 l 71 614 l 152 666 l 437 368 l 152 70 z "},"ƒ":{"ha":463,"x_min":-119,"x_max":469,"o":"m 10 589 l 15 664 l 369 664 l 364 589 l 10 589 m -119 -280 l -93 -194 q -53 -206 -73 -201 q -14 -210 -33 -210 q 31 -201 8 -210 q 70 -170 54 -193 q 90 -104 87 -147 l 151 767 q 184 875 156 833 q 256 937 212 917 q 353 957 301 957 q 411 953 381 957 q 469 940 440 949 l 442 854 q 401 867 422 863 q 363 871 381 871 q 318 863 340 871 q 279 831 295 854 q 259 765 263 808 l 199 -106 q 165 -214 194 -172 q 93 -276 137 -256 q -5 -297 49 -297 q -62 -292 -33 -297 q -119 -280 -91 -288 z "},"¶":{"ha":833,"x_min":78,"x_max":663,"o":"m 374 336 q 153 408 229 336 q 78 603 78 480 q 153 800 78 727 q 374 872 229 872 l 641 872 l 641 776 l 438 776 l 438 336 l 374 336 m 387 -175 l 387 872 l 472 872 l 472 -175 l 387 -175 m 579 -175 l 579 872 l 663 872 l 663 -175 l 579 -175 z "},"§":{"ha":833,"x_min":113,"x_max":720,"o":"m 444 298 q 524 312 488 298 q 581 350 560 326 q 603 408 603 375 q 573 466 603 444 q 483 505 542 488 l 353 547 q 225 618 269 572 q 181 728 181 665 q 250 859 181 810 q 438 908 320 908 q 626 857 559 908 q 697 732 694 807 l 590 732 q 544 799 585 777 q 444 822 503 822 q 331 791 368 822 q 294 722 294 760 q 412 623 294 657 l 544 578 q 675 511 629 552 q 720 408 720 469 q 688 311 720 356 q 595 238 655 266 q 453 210 535 210 l 444 298 m 391 535 q 286 504 324 535 q 248 433 248 472 q 366 333 248 367 l 498 289 q 628 221 583 263 q 674 117 674 179 q 642 21 674 66 q 550 -52 611 -24 q 397 -80 488 -80 q 246 -52 310 -80 q 149 24 183 -25 q 113 135 115 72 l 217 135 q 267 40 219 72 q 390 8 316 8 q 510 39 465 8 q 556 117 556 69 q 526 176 556 154 q 436 215 496 198 l 308 256 q 178 329 222 283 q 134 440 134 376 q 205 573 134 524 q 391 622 275 622 l 391 535 z "},"©":{"ha":958,"x_min":33,"x_max":924,"o":"m 479 -8 q 306 26 387 -8 q 164 122 226 61 q 68 264 103 183 q 33 437 33 344 q 68 610 33 529 q 164 752 103 690 q 306 848 226 813 q 479 883 387 883 q 652 848 571 883 q 794 752 733 813 q 890 610 855 690 q 924 437 924 529 q 890 264 924 344 q 794 122 855 183 q 652 26 733 61 q 479 -8 571 -8 m 479 49 q 630 80 560 49 q 753 163 700 110 q 836 286 806 216 q 867 437 867 357 q 836 588 867 517 q 753 711 806 658 q 630 795 700 765 q 479 825 560 825 q 329 795 399 825 q 205 711 258 765 q 121 588 151 658 q 91 437 91 517 q 121 286 91 357 q 205 163 151 216 q 329 80 258 110 q 479 49 399 49 m 477 158 q 354 193 406 158 q 274 293 302 229 q 247 441 247 357 q 277 592 247 531 q 360 685 308 653 q 477 717 412 717 q 616 674 563 717 q 688 561 668 631 l 616 547 q 563 627 599 597 q 477 657 526 657 q 399 633 435 657 q 341 560 363 608 q 319 441 319 512 q 336 327 319 377 q 389 248 353 276 q 477 219 424 219 q 578 253 541 219 q 616 343 616 288 l 689 343 q 630 207 689 256 q 477 158 572 158 z "},"®":{"ha":958,"x_min":33,"x_max":924,"o":"m 479 -8 q 306 26 387 -8 q 164 122 226 61 q 68 264 103 183 q 33 437 33 344 q 68 610 33 529 q 164 752 103 690 q 306 848 226 813 q 479 883 387 883 q 652 848 571 883 q 794 752 733 813 q 890 610 855 690 q 924 437 924 529 q 890 264 924 344 q 794 122 855 183 q 652 26 733 61 q 479 -8 571 -8 m 479 49 q 630 80 560 49 q 753 163 700 110 q 836 286 806 216 q 867 437 867 357 q 836 588 867 517 q 753 711 806 658 q 630 795 700 765 q 479 825 560 825 q 329 795 399 825 q 205 711 258 765 q 121 588 151 658 q 91 437 91 517 q 121 286 91 357 q 205 163 151 216 q 329 80 258 110 q 479 49 399 49 m 602 192 l 457 421 l 526 421 l 683 192 l 602 192 m 319 192 l 319 697 l 495 697 q 626 655 581 697 q 670 547 670 614 q 626 440 670 481 q 495 399 581 399 l 381 399 l 381 192 l 319 192 m 381 442 l 490 442 q 576 470 547 442 q 606 543 606 499 q 577 616 606 589 q 495 643 549 643 l 381 643 l 381 442 z "},"™":{"ha":936,"x_min":4,"x_max":866,"o":"m 4 1055 l 4 1101 l 344 1101 l 344 1055 l 189 1055 l 201 1067 l 201 665 l 147 665 l 147 1067 l 159 1055 l 4 1055 m 418 1101 l 496 1101 l 646 800 l 640 800 l 790 1101 l 866 1101 l 866 665 l 811 665 l 811 1045 l 821 1045 l 661 720 l 625 720 l 466 1043 l 472 1043 l 472 665 l 418 665 l 418 1101 z "},"°":{"ha":473,"x_min":51,"x_max":422,"o":"m 237 663 q 144 688 186 663 q 76 756 101 713 q 51 849 51 798 q 76 942 51 900 q 144 1008 101 983 q 237 1033 186 1033 q 330 1008 288 1033 q 397 942 372 983 q 422 849 422 900 q 397 756 422 798 q 330 688 372 713 q 237 663 288 663 m 237 739 q 314 771 282 739 q 345 849 345 803 q 314 926 345 894 q 237 958 282 958 q 159 926 192 958 q 127 849 127 894 q 159 771 127 803 q 237 739 192 739 z "},"¦":{"ha":389,"x_min":140,"x_max":249,"o":"m 140 493 l 140 1042 l 249 1042 l 249 493 l 140 493 m 140 -169 l 140 379 l 249 379 l 249 -169 l 140 -169 z "},"†":{"ha":694,"x_min":58,"x_max":637,"o":"m 298 -175 l 285 872 l 410 872 l 394 -175 l 298 -175 m 58 542 l 58 612 l 347 622 l 637 612 l 637 542 l 347 531 l 58 542 z "},"‡":{"ha":694,"x_min":58,"x_max":637,"o":"m 298 -175 l 285 872 l 410 872 l 394 -175 l 298 -175 m 58 542 l 58 612 l 347 622 l 637 612 l 637 542 l 347 531 l 58 542 m 58 316 l 58 385 l 347 395 l 637 385 l 637 316 l 347 304 l 58 316 z "},"¢":{"ha":712,"x_min":71,"x_max":640,"o":"m 326 -146 l 326 13 l 419 13 l 419 -146 l 326 -146 m 326 654 l 326 793 l 419 793 l 419 654 l 326 654 m 374 -17 q 225 26 294 -17 q 113 148 156 69 q 71 333 71 226 q 113 521 71 443 q 225 640 156 599 q 374 681 294 681 q 475 664 430 681 q 553 617 519 647 q 608 549 586 587 q 640 469 630 511 l 529 460 q 471 551 512 517 q 372 585 431 585 q 280 557 323 585 q 209 473 236 528 q 182 333 182 417 q 207 200 182 256 q 274 112 231 143 q 372 81 317 81 q 489 118 449 81 q 529 224 529 156 l 640 224 q 608 100 640 154 q 515 15 575 46 q 374 -17 455 -17 z "},"¤":{"ha":833,"x_min":100,"x_max":733,"o":"m 417 157 q 275 195 339 157 q 173 298 211 233 q 135 440 135 362 q 173 581 135 517 q 275 683 211 645 q 417 721 339 721 q 558 683 494 721 q 659 581 622 645 q 697 440 697 517 q 659 298 697 362 q 558 195 622 233 q 417 157 494 157 m 417 258 q 507 283 466 258 q 573 348 548 307 q 597 440 597 390 q 573 531 597 490 q 507 595 548 572 q 417 619 466 619 q 326 595 367 619 q 260 531 285 572 q 236 440 236 490 q 260 348 236 390 q 326 283 285 307 q 417 258 367 258 m 597 565 l 542 621 l 678 756 l 733 701 l 597 565 m 232 569 l 100 700 l 154 756 l 286 625 l 232 569 m 601 310 l 733 179 l 679 122 l 547 254 l 601 310 m 232 310 l 286 254 l 154 122 l 100 179 l 232 310 z "},"€":{"ha":851,"x_min":36,"x_max":806,"o":"m 467 -17 q 271 41 353 -17 q 143 202 188 99 q 99 442 99 306 q 148 686 99 587 q 280 836 197 785 q 467 888 363 888 q 688 818 603 888 q 804 636 772 748 l 688 613 q 602 742 660 694 q 467 790 543 790 q 343 751 401 790 q 251 634 286 712 q 215 442 215 556 q 243 256 215 338 q 327 128 272 175 q 467 82 383 82 q 627 138 567 82 q 688 283 688 193 l 806 283 q 763 123 806 190 q 643 19 719 56 q 467 -17 567 -17 m 36 335 l 36 403 l 511 403 l 511 335 l 36 335 m 36 475 l 36 543 l 511 543 l 511 475 l 36 475 z "},"₨":{"ha":806,"x_min":128,"x_max":704,"o":"m 128 806 l 128 872 l 704 872 l 704 806 l 128 806 m 128 594 l 128 663 l 704 663 l 704 594 l 128 594 m 128 411 l 207 411 l 657 0 l 504 0 l 128 343 l 128 411 m 165 411 l 213 411 q 398 468 339 411 q 457 610 457 526 q 398 750 457 694 q 213 806 339 806 l 165 806 l 165 854 l 213 854 q 415 823 335 854 q 534 736 495 791 q 574 610 574 681 q 538 476 574 536 q 423 379 502 415 q 213 343 343 343 l 165 343 l 165 411 z "},"¥":{"ha":762,"x_min":13,"x_max":749,"o":"m 324 0 l 324 358 l 13 872 l 143 872 l 393 449 l 365 449 l 619 872 l 749 872 l 433 358 l 433 0 l 324 0 m 144 140 l 144 208 l 614 208 l 614 140 l 144 140 m 144 278 l 144 346 l 614 346 l 614 278 l 144 278 z "},"∕":{"ha":379,"x_min":-189,"x_max":601,"o":"m -189 -11 l 517 937 l 601 937 l -106 -11 l -189 -11 z "},"×":{"ha":729,"x_min":91,"x_max":638,"o":"m 166 76 l 91 153 l 288 351 l 91 547 l 166 624 l 365 426 l 562 624 l 638 547 l 440 351 l 638 153 l 562 76 l 365 274 l 166 76 z "},"÷":{"ha":729,"x_min":122,"x_max":607,"o":"m 122 314 l 122 408 l 607 408 l 607 314 l 122 314 m 364 97 q 314 117 334 97 q 293 165 293 138 q 314 214 293 194 q 364 235 334 235 q 416 214 395 235 q 436 165 436 194 q 416 117 436 138 q 364 97 395 97 m 364 486 q 314 506 334 486 q 293 554 293 525 q 314 602 293 583 q 364 622 334 622 q 416 602 395 622 q 436 554 436 583 q 416 506 436 525 q 364 486 395 486 z "},"≠":{"ha":729,"x_min":136,"x_max":593,"o":"m 219 68 l 431 628 l 507 628 l 296 68 l 219 68 m 136 163 l 136 256 l 593 256 l 593 163 l 136 163 m 136 428 l 136 522 l 593 522 l 593 428 l 136 428 z "},"≥":{"ha":729,"x_min":130,"x_max":599,"o":"m 159 182 l 130 269 l 527 415 l 527 376 l 130 526 l 159 611 l 590 438 l 590 356 l 159 182 m 142 0 l 142 83 l 599 83 l 599 0 l 142 0 z "},"≤":{"ha":729,"x_min":130,"x_max":599,"o":"m 572 182 l 140 356 l 140 438 l 572 611 l 599 526 l 202 376 l 202 415 l 599 269 l 572 182 m 130 0 l 130 83 l 587 83 l 587 0 l 130 0 z "},"±":{"ha":729,"x_min":106,"x_max":624,"o":"m 319 729 l 410 729 l 410 499 l 624 499 l 624 425 l 410 425 l 410 194 l 319 194 l 319 425 l 106 425 l 106 499 l 319 499 l 319 729 m 128 83 l 603 83 l 603 0 l 128 0 l 128 83 z "},"≈":{"ha":729,"x_min":88,"x_max":642,"o":"m 146 347 l 88 377 q 148 490 112 452 q 235 527 184 527 q 288 518 258 527 q 369 489 317 509 q 446 461 420 469 q 491 452 472 452 q 543 470 520 452 q 585 530 566 488 l 642 494 q 579 387 618 422 q 490 352 540 352 q 436 361 466 352 q 354 390 406 371 q 300 411 323 403 q 261 423 278 419 q 232 427 244 427 q 185 409 206 427 q 146 347 164 392 m 146 112 l 88 142 q 148 255 112 217 q 235 292 184 292 q 288 283 258 292 q 369 254 317 274 q 446 226 420 235 q 491 217 472 217 q 543 235 520 217 q 585 295 566 253 l 642 259 q 579 152 618 186 q 490 117 540 117 q 436 126 466 117 q 354 155 406 135 q 300 176 323 167 q 261 188 278 184 q 232 192 244 192 q 185 175 206 192 q 146 112 164 157 z "},"¬":{"ha":729,"x_min":127,"x_max":602,"o":"m 127 440 l 602 440 l 602 203 l 523 203 l 523 388 l 549 356 l 127 356 l 127 440 z "},"∞":{"ha":940,"x_min":36,"x_max":903,"o":"m 253 132 q 149 154 199 132 q 68 223 99 176 q 36 342 36 269 q 68 461 36 415 q 149 530 99 508 q 253 551 199 551 q 339 537 295 551 q 419 488 382 523 q 481 392 457 453 l 459 392 q 520 488 483 453 q 601 537 558 523 q 686 551 645 551 q 791 530 741 551 q 872 461 840 508 q 903 342 903 415 q 872 223 903 269 q 791 154 840 176 q 686 132 741 132 q 601 146 645 132 q 520 195 558 160 q 460 291 483 230 l 481 291 q 420 195 458 230 q 339 146 382 160 q 253 132 295 132 m 269 203 q 378 241 328 203 q 459 361 428 280 l 459 323 q 378 443 428 404 q 269 481 328 481 q 198 466 231 481 q 143 420 165 451 q 122 342 122 390 q 143 264 122 294 q 198 218 165 233 q 269 203 231 203 m 671 203 q 742 218 708 203 q 797 264 776 233 q 817 342 817 294 q 797 420 817 390 q 742 466 776 451 q 671 481 708 481 q 561 443 611 481 q 481 323 512 404 l 481 361 q 561 241 512 280 q 671 203 611 203 z "},"∅":{"ha":833,"x_min":91,"x_max":742,"o":"m 137 62 l 91 107 l 698 714 l 742 668 l 137 62 m 417 118 q 281 155 342 118 q 183 252 219 191 q 147 388 147 314 q 183 524 147 463 q 281 622 219 585 q 417 658 342 658 q 553 622 492 658 q 651 524 615 585 q 688 388 688 463 q 651 252 688 314 q 553 155 615 191 q 417 118 492 118 m 417 189 q 517 216 472 189 q 589 288 562 243 q 616 388 616 333 q 589 488 616 443 q 517 560 562 533 q 417 587 472 587 q 317 560 363 587 q 245 488 272 533 q 218 388 218 443 q 245 288 218 333 q 317 216 272 243 q 417 189 363 189 z "},"∫":{"ha":661,"x_min":36,"x_max":624,"o":"m 36 -280 l 63 -194 q 103 -206 83 -201 q 142 -210 124 -210 q 187 -201 165 -210 q 226 -170 210 -193 q 246 -104 243 -147 l 306 767 q 339 875 311 833 q 412 937 367 917 q 509 957 456 957 q 567 953 538 957 q 624 940 596 949 l 597 854 q 557 867 578 863 q 518 871 537 871 q 473 863 496 871 q 434 831 451 854 q 415 765 418 808 l 354 -106 q 322 -214 350 -172 q 249 -276 293 -256 q 151 -297 204 -297 q 94 -292 124 -297 q 36 -280 65 -288 z "},"∏":{"ha":913,"x_min":140,"x_max":772,"o":"m 140 -326 l 140 872 l 772 872 l 772 -326 l 665 -326 l 665 816 l 698 780 l 214 780 l 247 816 l 247 -326 l 140 -326 z "},"∑":{"ha":773,"x_min":71,"x_max":703,"o":"m 386 273 l 71 780 l 71 872 l 703 872 l 703 780 l 108 780 l 160 816 l 503 273 l 386 273 m 386 273 l 503 273 l 160 -270 l 108 -235 l 703 -235 l 703 -327 l 71 -327 l 71 -235 l 386 273 z "},"√":{"ha":793,"x_min":7,"x_max":786,"o":"m 327 1 l 194 319 l 231 280 l 32 239 l 7 303 l 280 378 l 402 80 l 360 80 l 689 1168 l 786 1168 l 418 1 l 327 1 z "},"µ":{"ha":841,"x_min":121,"x_max":700,"o":"m 592 665 l 700 665 l 700 0 l 592 0 l 592 133 q 502 25 559 63 q 371 -12 445 -12 q 229 21 288 -12 l 229 -282 l 121 -282 l 121 665 l 229 665 l 229 251 q 270 125 229 168 q 386 82 310 82 q 495 115 449 82 q 566 207 541 149 q 592 342 592 266 l 592 665 z "},"∂":{"ha":766,"x_min":82,"x_max":695,"o":"m 380 -17 q 232 27 299 -17 q 123 149 164 70 q 82 335 82 228 q 122 518 82 441 q 226 638 161 596 q 369 681 292 681 q 503 640 444 681 q 597 528 563 600 q 631 360 631 456 l 590 360 q 559 487 589 438 q 483 561 528 537 q 391 585 438 585 q 291 555 336 585 q 220 468 247 524 q 193 333 193 412 q 219 199 193 256 q 291 111 246 142 q 393 81 336 81 q 496 115 454 81 q 561 210 538 150 q 588 347 584 271 q 576 565 594 461 q 520 760 559 669 q 422 926 481 851 q 285 1057 363 1001 l 369 1124 q 502 988 442 1066 q 605 817 562 909 q 672 626 648 726 q 695 426 695 526 q 671 242 695 324 q 605 103 647 160 q 505 14 562 45 q 380 -17 447 -17 z "},"‰":{"ha":1406,"x_min":71,"x_max":1336,"o":"m 1157 -14 q 1071 9 1111 -14 q 1006 76 1031 31 q 981 186 981 120 q 1006 295 981 251 q 1071 362 1031 340 q 1157 385 1111 385 q 1246 362 1205 385 q 1311 295 1287 340 q 1336 186 1336 251 q 1311 76 1336 120 q 1246 9 1287 31 q 1157 -14 1205 -14 m 1157 61 q 1223 91 1198 61 q 1249 186 1249 121 q 1223 281 1249 250 q 1157 311 1198 311 q 1092 281 1117 311 q 1067 186 1067 250 q 1092 91 1067 121 q 1157 61 1117 61 m 140 0 l 728 872 l 840 872 l 253 0 l 140 0 m 733 -14 q 647 9 688 -14 q 582 76 607 31 q 557 186 557 120 q 582 295 557 251 q 647 362 607 340 q 733 385 688 385 q 822 362 781 385 q 888 295 863 340 q 913 186 913 251 q 888 76 913 120 q 822 9 863 31 q 733 -14 781 -14 m 733 61 q 800 91 774 61 q 825 186 825 121 q 800 281 825 250 q 733 311 774 311 q 668 281 693 311 q 643 186 643 250 q 668 91 643 121 q 733 61 693 61 m 247 490 q 161 513 201 490 q 96 580 121 535 q 71 689 71 624 q 96 798 71 754 q 161 865 121 842 q 247 888 201 888 q 335 865 294 888 q 401 798 376 842 q 426 689 426 754 q 401 580 426 624 q 335 513 376 535 q 247 490 294 490 m 247 564 q 312 594 287 564 q 338 689 338 624 q 312 784 338 753 q 247 815 287 815 q 182 784 207 815 q 157 689 157 753 q 182 594 157 624 q 247 564 207 564 z "},"◊":{"ha":713,"x_min":71,"x_max":643,"o":"m 71 436 l 315 872 l 400 872 l 643 436 l 400 0 l 315 0 l 71 436 m 181 415 l 181 457 l 370 101 l 345 101 l 533 457 l 533 415 l 345 771 l 370 771 l 181 415 z "},"̈":{"ha":0,"x_min":71,"x_max":449,"o":"m 375 791 q 324 811 345 791 q 303 860 303 831 q 324 910 303 889 q 375 931 345 931 q 427 910 406 931 q 449 860 449 889 q 427 811 449 831 q 375 791 406 791 m 143 791 q 91 811 112 791 q 71 858 71 831 q 91 909 71 889 q 143 929 112 929 q 195 909 174 929 q 217 858 217 889 q 195 811 217 831 q 143 791 174 791 z "},"̇":{"ha":0,"x_min":71,"x_max":231,"o":"m 150 797 q 93 818 116 797 q 71 872 71 840 q 93 928 71 905 q 150 951 116 951 q 208 928 184 951 q 231 872 231 905 q 208 818 231 840 q 150 797 184 797 z "},"̀":{"ha":0,"x_min":68,"x_max":377,"o":"m 323 781 l 68 1007 l 144 1069 l 377 825 l 323 781 z "},"́":{"ha":0,"x_min":71,"x_max":380,"o":"m 125 781 l 71 825 l 304 1069 l 380 1007 l 125 781 z "},"̋":{"ha":0,"x_min":71,"x_max":339,"o":"m 294 759 l 235 768 l 255 994 l 339 979 l 294 759 m 131 765 l 71 772 l 82 999 l 167 988 l 131 765 z "},"̂":{"ha":0,"x_min":71,"x_max":512,"o":"m 136 759 l 71 810 l 291 1026 l 512 810 l 447 759 l 272 936 l 310 936 l 136 759 z "},"̌":{"ha":0,"x_min":71,"x_max":512,"o":"m 291 769 l 71 984 l 136 1035 l 310 849 l 272 849 l 447 1035 l 512 984 l 291 769 z "},"̆":{"ha":0,"x_min":71,"x_max":457,"o":"m 264 800 q 123 850 176 800 q 71 977 71 900 l 161 977 q 189 901 161 928 q 264 874 217 874 q 339 901 311 874 q 367 977 367 928 l 457 977 q 405 850 457 900 q 264 800 352 800 z "},"̊":{"ha":0,"x_min":71,"x_max":349,"o":"m 210 915 q 140 934 172 915 q 90 984 108 953 q 71 1054 71 1016 q 90 1124 71 1092 q 140 1175 108 1156 q 210 1194 172 1194 q 280 1175 248 1194 q 330 1124 311 1156 q 349 1054 349 1092 q 330 984 349 1016 q 280 934 311 953 q 210 915 248 915 m 210 993 q 254 1011 236 993 q 272 1054 272 1028 q 254 1098 272 1081 q 210 1116 236 1116 q 166 1098 184 1116 q 149 1054 149 1081 q 166 1011 149 1028 q 210 993 184 993 z "},"̃":{"ha":0,"x_min":32,"x_max":469,"o":"m 76 776 l 32 805 q 81 911 49 874 q 156 948 113 948 q 193 941 174 948 q 257 912 213 935 q 317 883 300 890 q 349 876 333 876 q 388 893 369 876 q 422 948 408 910 l 469 916 q 441 841 459 872 q 399 793 422 810 q 351 776 376 776 q 307 785 331 776 q 239 817 284 794 q 185 843 201 837 q 156 849 170 849 q 114 833 134 849 q 76 776 94 817 z "},"̄":{"ha":0,"x_min":197,"x_max":631,"o":"m 197 901 l 631 901 l 631 811 l 197 811 l 197 901 z "},"̒":{"ha":0,"x_min":69,"x_max":247,"o":"m 185 959 l 247 928 q 185 889 210 910 q 151 835 160 867 q 194 818 177 833 q 208 778 210 803 q 189 738 207 754 q 143 721 170 721 q 90 744 111 721 q 72 807 69 768 q 102 889 73 846 q 185 959 131 932 z "},"̦":{"ha":0,"x_min":71,"x_max":249,"o":"m 133 -305 l 71 -274 q 133 -234 108 -256 q 167 -181 158 -212 q 124 -164 141 -179 q 110 -124 108 -149 q 130 -83 111 -99 q 175 -67 148 -67 q 228 -90 207 -67 q 247 -153 249 -114 q 217 -235 245 -192 q 133 -305 188 -278 z "},"̧":{"ha":0,"x_min":71,"x_max":366,"o":"m 71 -247 l 90 -201 q 182 -232 141 -228 q 248 -222 223 -236 q 274 -184 272 -208 q 256 -142 276 -160 q 203 -111 235 -124 q 138 -91 172 -99 l 187 39 l 249 33 l 202 -88 l 177 -49 q 282 -83 240 -62 q 345 -129 324 -103 q 363 -189 366 -156 q 330 -252 360 -228 q 253 -284 299 -276 q 158 -282 207 -291 q 71 -247 110 -273 z "},"̨":{"ha":0,"x_min":71,"x_max":404,"o":"m 404 -250 q 314 -287 361 -274 q 222 -301 266 -301 q 112 -269 153 -301 q 71 -183 71 -238 q 115 -77 71 -128 q 247 8 159 -26 l 317 -19 q 194 -86 240 -51 q 149 -162 149 -122 q 175 -208 149 -194 q 235 -223 200 -223 q 301 -212 267 -223 q 378 -178 335 -201 l 404 -250 z "},"˙":{"ha":301,"x_min":71,"x_max":231,"o":"m 150 797 q 93 818 116 797 q 71 872 71 840 q 93 928 71 905 q 150 951 116 951 q 208 928 184 951 q 231 872 231 905 q 208 818 231 840 q 150 797 184 797 z "},"˝":{"ha":409,"x_min":71,"x_max":339,"o":"m 294 759 l 235 768 l 255 994 l 339 979 l 294 759 m 131 765 l 71 772 l 82 999 l 167 988 l 131 765 z "},"ˇ":{"ha":582,"x_min":71,"x_max":512,"o":"m 291 769 l 71 984 l 136 1035 l 310 849 l 272 849 l 447 1035 l 512 984 l 291 769 z "},"˘":{"ha":527,"x_min":71,"x_max":457,"o":"m 264 800 q 123 850 176 800 q 71 977 71 900 l 161 977 q 189 901 161 928 q 264 874 217 874 q 339 901 311 874 q 367 977 367 928 l 457 977 q 405 850 457 900 q 264 800 352 800 z "},"˚":{"ha":419,"x_min":71,"x_max":349,"o":"m 210 915 q 140 934 172 915 q 90 984 108 953 q 71 1054 71 1016 q 90 1124 71 1092 q 140 1175 108 1156 q 210 1194 172 1194 q 280 1175 248 1194 q 330 1124 311 1156 q 349 1054 349 1092 q 330 984 349 1016 q 280 934 311 953 q 210 915 248 915 m 210 993 q 254 1011 236 993 q 272 1054 272 1028 q 254 1098 272 1081 q 210 1116 236 1116 q 166 1098 184 1116 q 149 1054 149 1081 q 166 1011 149 1028 q 210 993 184 993 z "},"¯":{"ha":575,"x_min":71,"x_max":505,"o":"m 71 901 l 505 901 l 505 811 l 71 811 l 71 901 z "},"¸":{"ha":433,"x_min":71,"x_max":366,"o":"m 71 -247 l 90 -201 q 182 -232 141 -228 q 248 -222 223 -236 q 274 -184 272 -208 q 256 -142 276 -160 q 203 -111 235 -124 q 138 -91 172 -99 l 187 39 l 249 33 l 202 -88 l 177 -49 q 282 -83 240 -62 q 345 -129 324 -103 q 363 -189 366 -156 q 330 -252 360 -228 q 253 -284 299 -276 q 158 -282 207 -291 q 71 -247 110 -273 z "},"˛":{"ha":474,"x_min":71,"x_max":404,"o":"m 404 -250 q 314 -287 361 -274 q 222 -301 266 -301 q 112 -269 153 -301 q 71 -183 71 -238 q 115 -77 71 -128 q 247 8 159 -26 l 317 -19 q 194 -86 240 -51 q 149 -162 149 -122 q 175 -208 149 -194 q 235 -223 200 -223 q 301 -212 267 -223 q 378 -178 335 -201 l 404 -250 z "}}}
